<?xml version="1.0" encoding="utf-8"?>
<!-- Generator: Adobe Illustrator 21.1.0, SVG Export Plug-In . SVG Version: 6.00 Build 0)  -->
<svg version="1.1" xmlns="http://www.w3.org/2000/svg" xmlns:xlink="http://www.w3.org/1999/xlink" x="0px" y="0px"
	 viewBox="0 0 850.4 850.4" style="enable-background:new 0 0 850.4 850.4;" xml:space="preserve">
<g id="Слой_1">
</g>
<g id="Слой_2">
	<g>
		<path d="M334.7,380.2c9.3-5.7,14-15.8,14-30.3c0-16.1-6.2-26.7-18.5-31.8c-10.6-3.6-24.2-5.4-40.7-5.4h-75v76h83.8
			C313.3,388.7,325.4,385.9,334.7,380.2z"/>
		<path d="M618,397c-10.6-9.1-23.7-13.7-39.3-13.7c-17,0-30.2,4.8-39.6,14.5c-9.4,9.7-15.3,22.7-17.7,39.2h114.2
			C634.5,419.4,628.6,406.1,618,397z"/>
		<path d="M333.8,451.6c-8.2-3.7-19.6-5.7-34.4-5.8h-84.8v91.9h83.7c14.9,0,26.6-2,34.9-6.1c15.1-7.5,22.6-21.8,22.6-43
			C355.7,470.6,348.4,458.3,333.8,451.6z"/>
		<path d="M425.2,0C190.4,0,0,190.4,0,425.2s190.4,425.2,425.2,425.2S850.4,660,850.4,425.2S660,0,425.2,0z M503,259h151.8v44.7H503
			V259z M413.1,548.4c-6.5,10.8-14.6,19.8-24.4,27.1c-11,8.4-24,14.2-38.9,17.3c-15,3.1-31.2,4.7-48.7,4.7H145.8V252.9h166.5
			c42,0.6,71.8,12.9,89.3,36.7c10.5,14.7,15.8,32.2,15.8,52.6c0,21-5.3,38-16,50.7c-5.9,7.2-14.7,13.7-26.3,19.6
			c17.6,6.4,30.9,16.5,39.8,30.4c8.9,13.9,13.4,30.7,13.4,50.5C428.5,513.9,423.3,532.2,413.1,548.4z M704.5,480.8H519.9
			c1,25.4,9.9,43.3,26.5,53.5c10.1,6.4,22.3,9.5,36.5,9.5c15.1,0,27.4-3.9,36.8-11.6c5.1-4.2,9.7-10,13.6-17.4H701
			c-1.8,15-10,30.3-24.6,45.8c-22.7,24.7-54.5,37-95.4,37c-33.7,0-63.5-10.4-89.3-31.2c-25.8-20.8-38.7-54.6-38.7-101.5
			c0-43.9,11.6-77.6,34.9-101c23.3-23.4,53.5-35.1,90.6-35.1c22.1,0,41.9,4,59.6,11.9c17.7,7.9,32.3,20.4,43.8,37.5
			c10.4,15.1,17.1,32.5,20.2,52.4C704.1,442.1,704.8,458.9,704.5,480.8z"/>
	</g>
</g>
</svg>
