<?xml version="1.0" encoding="UTF-8"?> <svg xmlns="http://www.w3.org/2000/svg" xmlns:xlink="http://www.w3.org/1999/xlink" viewBox="0 0 167.74 170.94"> <defs> <style>.cls-1{fill:url(#radial-gradient);}</style> <radialGradient id="radial-gradient" cx="88.65" cy="90.36" r="101.78" gradientUnits="userSpaceOnUse"> <stop offset="0" stop-color="#f2f2f2"></stop> <stop offset="0.26" stop-color="#bfbfbf" stop-opacity="0.4"></stop> <stop offset="0.49" stop-color="#f2f2f2" stop-opacity="0.3"></stop> <stop offset="0.74" stop-color="#bfbfbf" stop-opacity="0.2"></stop> <stop offset="1" stop-color="#f2f2f2"></stop> </radialGradient> </defs> <title>Asset 2</title> <g id="Layer_2" data-name="Layer 2"> <g id="Layer_1-2" data-name="Layer 1"> <path class="cls-1" d="M147.84,89.85c-.75-1.35-19.65-31.8-62.1-31.8S24.39,88.5,23.64,89.85l-.9,1.5.9,1.5c.75,1.35,19.65,32,62.1,32s61.35-30.6,62.1-31.95l.9-1.5Zm-62.7,29h-.75a27.38,27.38,0,1,1,.75,0ZM29.79,91.35A68.15,68.15,0,0,1,68.64,66a30.28,30.28,0,0,0-.45,50.7A69.19,69.19,0,0,1,29.79,91.35Zm71.1,26a30.2,30.2,0,0,0-.45-51.75,69.54,69.54,0,0,1,41.25,25.8A67.78,67.78,0,0,1,100.89,117.3Z"></path> <path class="cls-1" d="M85,76.65a14.7,14.7,0,1,0,14.7,14.7A14.72,14.72,0,0,0,85,76.65Zm-5.55,12a3.45,3.45,0,1,1,3.45-3.45A3.39,3.39,0,0,1,79.44,88.65Z"></path> <polygon class="cls-1" points="86.96 0 88.52 27.6 87.29 55.21 84.52 55.23 82.96 27.63 84.18 0.02 86.96 0"></polygon> <polygon class="cls-1" points="86.96 0 88.52 27.6 87.29 55.21 84.52 55.23 82.96 27.63 84.18 0.02 86.96 0"></polygon> <polygon class="cls-1" points="1.27 29.15 23.39 45.91 44.25 64.22 42.98 65.77 20.86 49.01 0 30.7 1.27 29.15"></polygon> <polygon class="cls-1" points="5.94 139.95 22.32 126.75 39.89 115.19 41.09 116.83 24.72 130.04 7.14 141.6 5.94 139.95"></polygon> <polygon class="cls-1" points="45.01 163.09 54.33 144.2 65.81 126.54 67.97 127.76 58.64 146.65 47.16 164.31 45.01 163.09"></polygon> <polygon class="cls-1" points="85.59 170.94 84.42 150.04 85.34 129.13 87.44 129.12 88.61 150.02 87.69 170.93 85.59 170.94"></polygon> <polygon class="cls-1" points="129.64 166.44 117.37 147.46 106.82 127.46 108.55 126.45 120.83 145.43 131.37 165.43 129.64 166.44"></polygon> <polygon class="cls-1" points="164.38 141.3 144.21 131.31 125.32 119.07 126.6 116.83 146.76 126.82 165.65 139.06 164.38 141.3"></polygon> <path class="cls-1" d="M167.74,32,151.22,49.87l0,0L132.5,66.56l-1.37-1.41,16.93-18,18.31-16.57Z"></path> <polygon class="cls-1" points="134.96 10.01 122.51 34.68 107.64 57.99 105.23 56.61 117.68 31.94 132.54 8.63 134.96 10.01"></polygon> <polygon class="cls-1" points="36.79 9.39 51.93 32.51 64.68 57.04 62.28 58.44 47.14 35.32 34.39 10.79 36.79 9.39"></polygon> </g> </g> </svg> 