<?xml version="1.0" encoding="utf-8"?>
<!-- Generator: Adobe Illustrator 21.1.0, SVG Export Plug-In . SVG Version: 6.00 Build 0)  -->
<svg version="1.1" xmlns="http://www.w3.org/2000/svg" xmlns:xlink="http://www.w3.org/1999/xlink" x="0px" y="0px"
	 viewBox="0 0 850.4 850.4" style="enable-background:new 0 0 850.4 850.4;" xml:space="preserve">
<g id="Слой_1">
</g>
<g id="Слой_2">
	<path d="M425.2,5C190.4,5,0,193.1,0,425.2s190.4,420.2,425.2,420.2s425.2-188.1,425.2-420.2S660,5,425.2,5z M644.7,511.3
		c0,72.3-59.3,130.8-132.4,130.8H338c-73.1,0-132.4-58.6-132.4-130.8V339.1c0-72.3,59.3-130.8,132.4-130.8h174.3
		c73.1,0,132.4,58.6,132.4,130.8V511.3z"/>
	<g>
		<path d="M425.2,533.7c-60.6,0-109.8-48.7-109.8-108.5s49.3-108.5,109.8-108.5S535,365.4,535,425.2S485.7,533.7,425.2,533.7z
			 M425.2,354.9c-39.2,0-71.1,31.5-71.1,70.3c0,38.8,31.9,70.3,71.1,70.3s71.1-31.5,71.1-70.3C496.3,386.4,464.4,354.9,425.2,354.9z
			"/>
	</g>
	<ellipse cx="548.4" cy="296.1" rx="26" ry="25.7"/>
</g>
</svg>
