<?xml version="1.0" encoding="UTF-8"?> <svg xmlns="http://www.w3.org/2000/svg" xmlns:xlink="http://www.w3.org/1999/xlink" viewBox="0 0 138.88 144.4"> <defs> <style>.cls-1{fill:url(#New_Gradient_Swatch_1);}.cls-2{fill:url(#New_Gradient_Swatch_1-2);}.cls-3{fill:url(#New_Gradient_Swatch_1-3);}.cls-4{fill:url(#New_Gradient_Swatch_1-4);}.cls-5{fill:url(#New_Gradient_Swatch_1-5);}.cls-6{fill:url(#New_Gradient_Swatch_1-6);}.cls-7{fill:url(#New_Gradient_Swatch_1-7);}.cls-8{fill:url(#New_Gradient_Swatch_1-8);}.cls-9{fill:url(#New_Gradient_Swatch_1-9);}.cls-10{fill:url(#New_Gradient_Swatch_1-10);}.cls-11{fill:url(#New_Gradient_Swatch_1-11);}.cls-12{fill:url(#New_Gradient_Swatch_1-12);}.cls-13{fill:url(#New_Gradient_Swatch_1-13);}.cls-14{fill:url(#New_Gradient_Swatch_1-14);}.cls-15{fill:url(#New_Gradient_Swatch_1-15);}.cls-16{fill:url(#New_Gradient_Swatch_1-16);}.cls-17{fill:url(#New_Gradient_Swatch_1-17);}.cls-18{fill:url(#New_Gradient_Swatch_1-18);}.cls-19{fill:url(#New_Gradient_Swatch_1-19);}.cls-20{fill:url(#New_Gradient_Swatch_1-20);}.cls-21{fill:url(#New_Gradient_Swatch_1-21);}.cls-22{fill:url(#New_Gradient_Swatch_1-22);}.cls-23{fill:url(#New_Gradient_Swatch_1-23);}.cls-24{fill:url(#New_Gradient_Swatch_1-24);}.cls-25{fill:url(#New_Gradient_Swatch_1-25);}.cls-26{fill:url(#New_Gradient_Swatch_1-26);}.cls-27{fill:url(#New_Gradient_Swatch_1-27);}.cls-28{fill:url(#New_Gradient_Swatch_1-28);}.cls-29{fill:url(#New_Gradient_Swatch_1-29);}.cls-30{fill:url(#New_Gradient_Swatch_1-30);}.cls-31{fill:url(#New_Gradient_Swatch_1-31);}.cls-32{fill:url(#New_Gradient_Swatch_1-32);}.cls-33{fill:url(#New_Gradient_Swatch_1-33);}.cls-34{fill:url(#New_Gradient_Swatch_1-34);}.cls-35{fill:url(#New_Gradient_Swatch_1-35);}.cls-36{fill:url(#New_Gradient_Swatch_1-36);}.cls-37{fill:url(#New_Gradient_Swatch_1-37);}.cls-38{fill:url(#New_Gradient_Swatch_1-38);}.cls-39{fill:url(#New_Gradient_Swatch_1-39);}.cls-40{fill:url(#New_Gradient_Swatch_1-40);}.cls-41{fill:url(#New_Gradient_Swatch_1-41);}.cls-42{fill:url(#New_Gradient_Swatch_1-42);}.cls-43{fill:url(#New_Gradient_Swatch_1-43);}.cls-44{fill:url(#New_Gradient_Swatch_1-44);}.cls-45{fill:url(#New_Gradient_Swatch_1-45);}.cls-46{fill:url(#New_Gradient_Swatch_1-46);}.cls-47{fill:url(#New_Gradient_Swatch_1-47);}.cls-48{fill:url(#New_Gradient_Swatch_1-48);}.cls-49{fill:url(#New_Gradient_Swatch_1-49);}.cls-50{fill:url(#New_Gradient_Swatch_1-50);}.cls-51{fill:url(#New_Gradient_Swatch_1-51);}.cls-52{fill:url(#New_Gradient_Swatch_1-52);}.cls-53{fill:url(#New_Gradient_Swatch_1-53);}.cls-54{fill:url(#New_Gradient_Swatch_1-54);}.cls-55{fill:url(#New_Gradient_Swatch_1-55);}.cls-56{fill:url(#New_Gradient_Swatch_1-56);}.cls-57{fill:url(#New_Gradient_Swatch_1-57);}.cls-58{fill:url(#New_Gradient_Swatch_1-58);}.cls-59{fill:url(#New_Gradient_Swatch_1-59);}.cls-60{fill:url(#New_Gradient_Swatch_1-60);}.cls-61{fill:url(#New_Gradient_Swatch_1-61);}.cls-62{fill:url(#New_Gradient_Swatch_1-62);}.cls-63{fill:url(#New_Gradient_Swatch_1-63);}.cls-64{fill:url(#New_Gradient_Swatch_1-64);}.cls-65{fill:url(#New_Gradient_Swatch_1-65);}.cls-66{fill:url(#New_Gradient_Swatch_1-66);}.cls-67{fill:url(#New_Gradient_Swatch_1-67);}.cls-68{fill:url(#New_Gradient_Swatch_1-68);}.cls-69{fill:url(#New_Gradient_Swatch_1-69);}</style> <linearGradient id="New_Gradient_Swatch_1" y1="50.67" x2="93.81" y2="50.67" gradientUnits="userSpaceOnUse"> <stop offset="0" stop-color="#bfbfbf"></stop> <stop offset="0.27" stop-color="#6a6a6a"></stop> <stop offset="0.45" stop-color="#bfbfbf"></stop> <stop offset="0.77" stop-color="#6a6a6a"></stop> <stop offset="1" stop-color="#bfbfbf"></stop> </linearGradient> <linearGradient id="New_Gradient_Swatch_1-2" x1="14.2" y1="97.04" x2="14.2" y2="97.04" xlink:href="#New_Gradient_Swatch_1"></linearGradient> <linearGradient id="New_Gradient_Swatch_1-3" x1="17.01" y1="121.4" x2="71.5" y2="121.4" xlink:href="#New_Gradient_Swatch_1"></linearGradient> <linearGradient id="New_Gradient_Swatch_1-4" x1="70.72" y1="119.5" x2="70.72" y2="119.5" xlink:href="#New_Gradient_Swatch_1"></linearGradient> <linearGradient id="New_Gradient_Swatch_1-5" x1="70.72" y1="119.49" x2="70.72" y2="119.49" xlink:href="#New_Gradient_Swatch_1"></linearGradient> <linearGradient id="New_Gradient_Swatch_1-6" x1="92.39" y1="88.35" x2="95.07" y2="88.35" xlink:href="#New_Gradient_Swatch_1"></linearGradient> <linearGradient id="New_Gradient_Swatch_1-7" x1="92.57" y1="102.85" x2="94.41" y2="102.85" xlink:href="#New_Gradient_Swatch_1"></linearGradient> <linearGradient id="New_Gradient_Swatch_1-8" x1="69.64" y1="112.25" x2="89.97" y2="112.25" xlink:href="#New_Gradient_Swatch_1"></linearGradient> <linearGradient id="New_Gradient_Swatch_1-9" x1="92.27" y1="88.15" x2="95.66" y2="88.15" xlink:href="#New_Gradient_Swatch_1"></linearGradient> <linearGradient id="New_Gradient_Swatch_1-10" x1="91.39" y1="103.86" x2="94.76" y2="103.86" xlink:href="#New_Gradient_Swatch_1"></linearGradient> <linearGradient id="New_Gradient_Swatch_1-11" x1="69.62" y1="112.28" x2="88.68" y2="112.28" xlink:href="#New_Gradient_Swatch_1"></linearGradient> <linearGradient id="New_Gradient_Swatch_1-12" x1="92.2" y1="69.75" x2="107.08" y2="69.75" xlink:href="#New_Gradient_Swatch_1"></linearGradient> <linearGradient id="New_Gradient_Swatch_1-13" x1="103.41" y1="72.47" x2="103.42" y2="72.47" xlink:href="#New_Gradient_Swatch_1"></linearGradient> <linearGradient id="New_Gradient_Swatch_1-14" x1="106.79" y1="82.09" x2="106.89" y2="82.09" xlink:href="#New_Gradient_Swatch_1"></linearGradient> <linearGradient id="New_Gradient_Swatch_1-15" x1="97.31" y1="64.25" x2="97.32" y2="64.25" xlink:href="#New_Gradient_Swatch_1"></linearGradient> <linearGradient id="New_Gradient_Swatch_1-16" x1="97.32" y1="64.51" x2="97.67" y2="64.51" xlink:href="#New_Gradient_Swatch_1"></linearGradient> <linearGradient id="New_Gradient_Swatch_1-17" x1="84.26" y1="107.61" x2="94.14" y2="107.61" xlink:href="#New_Gradient_Swatch_1"></linearGradient> <linearGradient id="New_Gradient_Swatch_1-18" x1="13" y1="108.56" x2="23.42" y2="108.56" xlink:href="#New_Gradient_Swatch_1"></linearGradient> <linearGradient id="New_Gradient_Swatch_1-19" x1="18.88" y1="98.81" x2="19.78" y2="98.81" xlink:href="#New_Gradient_Swatch_1"></linearGradient> <linearGradient id="New_Gradient_Swatch_1-20" x1="19.64" y1="98.88" x2="19.66" y2="98.88" xlink:href="#New_Gradient_Swatch_1"></linearGradient> <linearGradient id="New_Gradient_Swatch_1-21" x1="16.63" y1="118.24" x2="23.33" y2="118.24" xlink:href="#New_Gradient_Swatch_1"></linearGradient> <linearGradient id="New_Gradient_Swatch_1-22" x1="66.6" y1="125.71" x2="77.58" y2="125.71" xlink:href="#New_Gradient_Swatch_1"></linearGradient> <linearGradient id="New_Gradient_Swatch_1-23" x1="68.17" y1="116.68" x2="68.2" y2="116.68" xlink:href="#New_Gradient_Swatch_1"></linearGradient> <linearGradient id="New_Gradient_Swatch_1-24" x1="93.14" y1="49.3" x2="95.12" y2="49.3" xlink:href="#New_Gradient_Swatch_1"></linearGradient> <linearGradient id="New_Gradient_Swatch_1-25" x1="90.21" y1="60.88" x2="105.23" y2="60.88" xlink:href="#New_Gradient_Swatch_1"></linearGradient> <linearGradient id="New_Gradient_Swatch_1-26" x1="97.4" y1="64.2" x2="97.53" y2="64.2" xlink:href="#New_Gradient_Swatch_1"></linearGradient> <linearGradient id="New_Gradient_Swatch_1-27" x1="103.28" y1="72.26" x2="103.35" y2="72.26" xlink:href="#New_Gradient_Swatch_1"></linearGradient> <linearGradient id="New_Gradient_Swatch_1-28" x1="91.38" y1="53.21" x2="91.4" y2="53.21" xlink:href="#New_Gradient_Swatch_1"></linearGradient> <linearGradient id="New_Gradient_Swatch_1-29" x1="93.2" y1="102.63" x2="94.2" y2="102.63" xlink:href="#New_Gradient_Swatch_1"></linearGradient> <linearGradient id="New_Gradient_Swatch_1-30" x1="93.08" y1="100.73" x2="93.39" y2="100.73" xlink:href="#New_Gradient_Swatch_1"></linearGradient> <linearGradient id="New_Gradient_Swatch_1-31" x1="87.9" y1="107.59" x2="92.9" y2="107.59" xlink:href="#New_Gradient_Swatch_1"></linearGradient> <linearGradient id="New_Gradient_Swatch_1-32" x1="92.27" y1="88.1" x2="96.72" y2="88.1" xlink:href="#New_Gradient_Swatch_1"></linearGradient> <linearGradient id="New_Gradient_Swatch_1-33" x1="90.83" y1="105.33" x2="94.2" y2="105.33" xlink:href="#New_Gradient_Swatch_1"></linearGradient> <linearGradient id="New_Gradient_Swatch_1-34" x1="122.3" y1="113.37" x2="122.33" y2="113.37" xlink:href="#New_Gradient_Swatch_1"></linearGradient> <linearGradient id="New_Gradient_Swatch_1-35" x1="133.55" y1="121.38" x2="133.61" y2="121.38" xlink:href="#New_Gradient_Swatch_1"></linearGradient> <linearGradient id="New_Gradient_Swatch_1-36" x1="138.82" y1="83.87" x2="138.82" y2="83.87" xlink:href="#New_Gradient_Swatch_1"></linearGradient> <linearGradient id="New_Gradient_Swatch_1-37" x1="138.82" y1="83.96" x2="138.88" y2="83.96" xlink:href="#New_Gradient_Swatch_1"></linearGradient> <linearGradient id="New_Gradient_Swatch_1-38" x1="138.83" y1="83.95" x2="138.86" y2="83.95" xlink:href="#New_Gradient_Swatch_1"></linearGradient> <linearGradient id="New_Gradient_Swatch_1-39" x1="93.4" y1="100.84" x2="94.51" y2="100.84" xlink:href="#New_Gradient_Swatch_1"></linearGradient> <linearGradient id="New_Gradient_Swatch_1-40" x1="92.98" y1="101.04" x2="94.25" y2="101.04" xlink:href="#New_Gradient_Swatch_1"></linearGradient> <linearGradient id="New_Gradient_Swatch_1-41" x1="92.88" y1="91.63" x2="96.86" y2="91.63" xlink:href="#New_Gradient_Swatch_1"></linearGradient> <linearGradient id="New_Gradient_Swatch_1-42" x1="94.23" y1="90.26" x2="94.26" y2="90.26" xlink:href="#New_Gradient_Swatch_1"></linearGradient> <linearGradient id="New_Gradient_Swatch_1-43" x1="93.02" y1="101.13" x2="94.34" y2="101.13" xlink:href="#New_Gradient_Swatch_1"></linearGradient> <linearGradient id="New_Gradient_Swatch_1-44" x1="92.97" y1="92.02" x2="97.23" y2="92.02" xlink:href="#New_Gradient_Swatch_1"></linearGradient> <linearGradient id="New_Gradient_Swatch_1-45" x1="96.81" y1="93.49" x2="96.83" y2="93.49" xlink:href="#New_Gradient_Swatch_1"></linearGradient> <linearGradient id="New_Gradient_Swatch_1-46" x1="97.21" y1="93.9" x2="97.23" y2="93.9" xlink:href="#New_Gradient_Swatch_1"></linearGradient> <linearGradient id="New_Gradient_Swatch_1-47" x1="93.08" y1="95.85" x2="97.23" y2="95.85" xlink:href="#New_Gradient_Swatch_1"></linearGradient> <linearGradient id="New_Gradient_Swatch_1-48" x1="94.92" y1="92.47" x2="94.95" y2="92.47" xlink:href="#New_Gradient_Swatch_1"></linearGradient> <linearGradient id="New_Gradient_Swatch_1-49" x1="94.97" y1="92.49" x2="95" y2="92.49" xlink:href="#New_Gradient_Swatch_1"></linearGradient> <linearGradient id="New_Gradient_Swatch_1-50" x1="97.18" y1="93.98" x2="97.23" y2="93.98" xlink:href="#New_Gradient_Swatch_1"></linearGradient> <linearGradient id="New_Gradient_Swatch_1-51" x1="93.51" y1="91.74" x2="95.62" y2="91.74" xlink:href="#New_Gradient_Swatch_1"></linearGradient> <linearGradient id="New_Gradient_Swatch_1-52" x1="94.64" y1="93.75" x2="94.68" y2="93.75" xlink:href="#New_Gradient_Swatch_1"></linearGradient> <linearGradient id="New_Gradient_Swatch_1-53" x1="94.89" y1="94.93" x2="94.9" y2="94.93" xlink:href="#New_Gradient_Swatch_1"></linearGradient> <linearGradient id="New_Gradient_Swatch_1-54" x1="94.87" y1="94.93" x2="94.89" y2="94.93" xlink:href="#New_Gradient_Swatch_1"></linearGradient> <linearGradient id="New_Gradient_Swatch_1-55" x1="89.59" y1="101.95" x2="96.85" y2="101.95" xlink:href="#New_Gradient_Swatch_1"></linearGradient> <linearGradient id="New_Gradient_Swatch_1-56" x1="94.2" y1="100.33" x2="94.21" y2="100.33" xlink:href="#New_Gradient_Swatch_1"></linearGradient> <linearGradient id="New_Gradient_Swatch_1-57" x1="94.18" y1="100.45" x2="94.19" y2="100.45" xlink:href="#New_Gradient_Swatch_1"></linearGradient> <linearGradient id="New_Gradient_Swatch_1-58" x1="94.27" y1="101.93" x2="94.28" y2="101.93" xlink:href="#New_Gradient_Swatch_1"></linearGradient> <linearGradient id="New_Gradient_Swatch_1-59" x1="93.24" y1="103.66" x2="93.24" y2="103.66" xlink:href="#New_Gradient_Swatch_1"></linearGradient> <linearGradient id="New_Gradient_Swatch_1-60" x1="93.4" y1="103.92" x2="93.41" y2="103.92" xlink:href="#New_Gradient_Swatch_1"></linearGradient> <linearGradient id="New_Gradient_Swatch_1-61" x1="89.98" y1="108.43" x2="89.99" y2="108.43" xlink:href="#New_Gradient_Swatch_1"></linearGradient> <linearGradient id="New_Gradient_Swatch_1-62" x1="89.98" y1="108.44" x2="89.98" y2="108.44" xlink:href="#New_Gradient_Swatch_1"></linearGradient> <linearGradient id="New_Gradient_Swatch_1-63" x1="89.96" y1="108.54" x2="89.98" y2="108.54" xlink:href="#New_Gradient_Swatch_1"></linearGradient> <linearGradient id="New_Gradient_Swatch_1-64" x1="94.22" y1="101.61" x2="94.23" y2="101.61" xlink:href="#New_Gradient_Swatch_1"></linearGradient> <linearGradient id="New_Gradient_Swatch_1-65" x1="92.4" y1="98.43" x2="96.72" y2="98.43" xlink:href="#New_Gradient_Swatch_1"></linearGradient> <linearGradient id="New_Gradient_Swatch_1-66" x1="93.23" y1="98.29" x2="95.88" y2="98.29" xlink:href="#New_Gradient_Swatch_1"></linearGradient> <linearGradient id="New_Gradient_Swatch_1-67" x1="101.85" y1="101.81" x2="113.04" y2="101.81" xlink:href="#New_Gradient_Swatch_1"></linearGradient> <linearGradient id="New_Gradient_Swatch_1-68" x1="109.95" y1="101.6" x2="123.6" y2="101.6" xlink:href="#New_Gradient_Swatch_1"></linearGradient> <linearGradient id="New_Gradient_Swatch_1-69" x1="121.09" y1="100.21" x2="134.74" y2="100.21" xlink:href="#New_Gradient_Swatch_1"></linearGradient> </defs> <title>Asset 4</title> <g id="Layer_2" data-name="Layer 2"> <g id="Draw_Layer" data-name="Draw Layer"> <path class="cls-1" d="M93.53,48.74C88.59,24.62,75.71-.95,43.76,0-6.73,1.57-7.31,63.05,11,92.65a4.32,4.32,0,0,1,2.1,2.66A6.19,6.19,0,0,1,14.2,97h0a5.69,5.69,0,0,1,.59.86,8.76,8.76,0,0,1,2.12,2.68,4.77,4.77,0,0,1,.73.76,2.49,2.49,0,0,0,1.42-.82c.06,0,.08-.11.14-.14v0s0,0,0,0a.39.39,0,0,1,.08-.1c.41-.19.69-1.33.78-1.72-.71-1.37-3.74-4.18-3.91-5.68C-5.34,67.29-4.16,17,36.9,7.62,64.67,1.29,86.53,27.13,89.93,50a10.78,10.78,0,0,1,2.87,3A4.22,4.22,0,0,0,93.53,48.74Z"></path> <polygon class="cls-2" points="14.2 97.04 14.2 97.04 14.2 97.04 14.2 97.04 14.2 97.04"></polygon> <path class="cls-3" d="M19.46,106.14c0,.13,0,.25,0,.38,3.19,8.74-9.41,32.34,3.65,33.46,6.25,3.47,31,5.35,38,4,3.14-.62,5,1.44,7.46-1,2.89-2.88,1.8-19.66,2.21-23.4h0v0h0v0h0c.25-2.23,1.31-6,.45-8.31-8.59,4.71.52,24-6.36,28,0,.11,0,.23,0,.35a7.84,7.84,0,0,1-2.48-.21c-10.73-.84-29.09-5.8-39-2.62L20,136.44c.72-11.26,5.29-27.79,0-38-.18,2.58-.38,5.16-.58,7.74Z"></path> <polygon class="cls-4" points="70.72 119.5 70.72 119.5 70.72 119.5 70.72 119.5 70.72 119.5"></polygon> <polygon class="cls-5" points="70.72 119.5 70.72 119.49 70.72 119.5 70.72 119.5 70.72 119.5"></polygon> <path class="cls-6" d="M94.3,85.05c-.47-.44-1.75,3-1.86,3.56-.22,1.11.25,3.92,1.89,2.82C95.34,90.75,95.3,86,94.3,85.05Z"></path> <path class="cls-7" d="M93.63,100.47c-.64.09-1.55,4.08-.75,4.86.54-.75,1.23-1.14,1.46-2,.29-1-.38-2-.14-3l-.57.1Z"></path> <path class="cls-8" d="M89.58,110.5c-1.53-1.3-2.77.13-4.36.09a15.86,15.86,0,0,1-8.56-.16c-1.23,0-2.43-.13-3.66-.13-1.51.64-2.88,1.3-3.36,2.9.94,1.49,4,1,5.41,1a5.63,5.63,0,0,1,5.26.18c1.76.08,4.85.58,6.51-.51C88.46,113.87,90.92,112.26,89.58,110.5Z"></path> <path class="cls-9" d="M95.63,86.34c.14-1.28-.28-1.93-1.46-1.47-.64.26-1.08,1.84-1.28,2.4-.34,1-.86,2.15-.5,3.2.58,1.7,1.64,1.06,2.89.61a2.54,2.54,0,0,1-.14-2.15A12.41,12.41,0,0,0,95.63,86.34Z"></path> <path class="cls-10" d="M93.64,100.47c-.79.12-.63,2.31-1.1,3.24-.65,1.27-1.82,2.1-.67,3.64a13.93,13.93,0,0,1,2.47-3.5c1.18-1.54-.55-1.76-.14-3.48l-.56.1Z"></path> <path class="cls-11" d="M87.76,110.74c-3.42,0-7.81,1-11.1-.32-1.23,0-2.43-.11-3.67-.12-1.55.67-2.83,1.31-3.37,3a2.62,2.62,0,0,0,.95.59h0a26.88,26.88,0,0,0,4.67.25,5.72,5.72,0,0,1,4.88.15c.94,0,2.52-.29,3-1.11C84.69,113.08,91,110.76,87.76,110.74Z"></path> <path class="cls-12" d="M107.07,77.83a1.48,1.48,0,0,0,0-.21,4.19,4.19,0,0,1-.86-1.27,10.64,10.64,0,0,1-2.78-3.88h0l-.06-.13.05.1a7.66,7.66,0,0,1-.67-3.93,4.8,4.8,0,0,1-.41-2.15c-2.1-4.51-4.13-9-6.2-13.56h0a2.38,2.38,0,0,0-3.92-.65c3.8,5.18,7,14.65,8.32,20.91-.06-.18-.13-.36-.2-.55.28.77.55,1.54.82,2.31a4.27,4.27,0,0,1,.83,1c5.15,2.85.77,9.71-4.24,8.28a10.2,10.2,0,0,1-2.88.49,4.8,4.8,0,0,0-2.27,3.48c1.08-.06,2.15-.08,3.23-.06,4.25-3.17,7.53.11,11-5.55A31.8,31.8,0,0,0,107.07,77.83Z"></path> <polygon class="cls-13" points="103.42 72.47 103.42 72.47 103.41 72.47 103.42 72.47 103.42 72.47 103.42 72.47"></polygon> <path class="cls-14" d="M106.79,82.5h0l.09-.8c0,.27-.07.54-.1.81Z"></path> <path class="cls-15" d="M97.31,64.25h0v0Z"></path> <path class="cls-16" d="M97.33,64.27l.34.5a3.64,3.64,0,0,0-.35-.52s0,0,0,0Z"></path> <path class="cls-17" d="M91.81,107.52c.43-1.22,4-5.22,1.34-6.34.23,2.52-2.22,4.8-3.57,6.67a6.55,6.55,0,0,1-2.17,2.21c-1,.54-2.32.4-2.92,1.58-1,2,1.72,2.85,3.22,2.14a7.09,7.09,0,0,0,2.88-2.47C91.32,110.11,91.11,108.74,91.81,107.52Z"></path> <path class="cls-18" d="M23.29,111.45c-.56-4.68-.83-8.61-3.08-12.72A32.33,32.33,0,0,1,14,93.23h0c-1.14-1.31-1,1.71-.89,2a8.84,8.84,0,0,1,1.16,1.81l0,0a5.18,5.18,0,0,1,.6.87,8.64,8.64,0,0,1,2.12,2.68c4.12,3.53,4.15,24.26,5.77,23.62a86.61,86.61,0,0,1,.73-9.78c0,.21-.07.41-.09.61A13.84,13.84,0,0,0,23.29,111.45Z"></path> <path class="cls-19" d="M19.42,98c-.92.27-.56,3,.25.82h0c.08-.21.29-1-.25-.83Z"></path> <path class="cls-20" d="M19.66,98.85l0,.05,0-.05Z"></path> <path class="cls-21" d="M22.77,115.17a67.2,67.2,0,0,1-1.93-11.3c0,.13,0,.26.05.39-.06-.65-2.34-6.69-2.55-2.11,3.74,5.41,2.34,15.89,1.24,21.88-.41,2.29-3.75,7.43-2.76,9.73,1.07,2.51,5.62,3.56,3.94-.08C22.29,128.21,24.34,120.77,22.77,115.17Z"></path> <path class="cls-22" d="M73.09,110.3H73c-5.31,2.29-5.33,9.28-6,13.84l.09-.61c-.23,1.65-1.38,18.34,1.11,17.56,1.86-.57,2.58-22.34,3.74-24.52,1.4-2.64,5.89-2.45,5.67-5.85a7.45,7.45,0,0,1-.91-.3c-1.21,0-2.37-.16-3.58-.12Z"></path> <path class="cls-23" d="M68.17,116.71l0-.07,0,.07Z"></path> <path class="cls-24" d="M95.09,51.32a4.62,4.62,0,0,1-1.54-4.59c-.82-3.9-.28,4.32.48,6.05C95,53.37,95.21,51.87,95.09,51.32Z"></path> <path class="cls-25" d="M91.52,46.58a.72.72,0,0,0-.21.85c-2.39.24-.17,5.06.07,5.75v0c2,5.76,13.93,19.88,13.86,22a32.19,32.19,0,0,1-1.82-2.72,2.1,2.1,0,0,0,.13.26l-.19-.39a.38.38,0,0,1,.06.13,6.38,6.38,0,0,1-.72-2.53c-3.35-4.38-6.6-13.16-8.41-18.44h0c-.21-.38-2.53-5-2.76-4.92Z"></path> <path class="cls-26" d="M97.4,64.1l.13.19a1.27,1.27,0,0,1-.13-.19Z"></path> <path class="cls-27" d="M103.28,72.19a1,1,0,0,1,.07.15,1,1,0,0,0-.07-.15Z"></path> <path class="cls-28" d="M91.4,53.24l0-.06a.14.14,0,0,1,0,.06Z"></path> <path class="cls-29" d="M93.64,100.47c-.59.07-.25,3.76-.44,4.43,1.31-1.42.68-2.65,1-4.53l-.56.1Z"></path> <path class="cls-30" d="M93.08,100.54l0,.43c.36-.42.34-.56,0-.43Z"></path> <path class="cls-31" d="M91.82,107.51a14.59,14.59,0,0,0,1.08-4.31c-.48.94-1.37,1.61-1.79,2.59-.33.76-.14,1.36-.5,2.21-.21.51-2.12,2.45-2.71,2.37a4.89,4.89,0,0,0,1.46-.58c-.63.82-1,2.39.38,2.17C91.38,111.71,91.25,108.5,91.82,107.51Z"></path> <path class="cls-32" d="M96.3,85.1c-.9,0-1-.92-2.13-.23-.67.42-1,1.71-1.27,2.4-.35,1-.87,2.14-.51,3.2.59,1.71,1.64,1.06,2.9.61a3.71,3.71,0,0,1,.24-4.16C95.73,86.62,97.52,85.13,96.3,85.1Z"></path> <path class="cls-33" d="M91.82,107.52c.49-1.42,1.45-2.82,1.92-4.12a16.57,16.57,0,0,0,.46-3c-1.8.32-.74,1.5-1.47,3a18.58,18.58,0,0,0-1.26,2.37c-.12.37-1.06,4.74-.41,4.51C91.52,109.52,91.32,108.38,91.82,107.52Z"></path> <path class="cls-34" d="M122.32,113.34h0c0,.07,0,.07,0,0Z"></path> <path class="cls-35" d="M133.61,121.34l-.06.07.06-.07Z"></path> <path class="cls-36" d="M138.82,83.87h0Z"></path> <path class="cls-37" d="M138.85,84v0h0l0,0-.06-.15,0,.09Z"></path> <path class="cls-38" d="M138.86,84l0-.06,0,.06Z"></path> <path class="cls-39" d="M94.08,100.52a1.42,1.42,0,0,0-.67.2c.7-.69,0,.35.11.3-.72.65,2-.74.56-.5Z"></path> <path class="cls-40" d="M93.63,100.46c-1.28.21-.44,1.46.62,1.21a2.49,2.49,0,0,1,0-1.3l-.57.09Z"></path> <path class="cls-41" d="M96.85,93.11c-.51-.83-2-3.83-3.58-2.86-.92.6,0,1.53.64,2a5.85,5.85,0,0,0,1.58.79S97,93.31,96.85,93.11Z"></path> <path class="cls-42" d="M94.23,90.25Z"></path> <path class="cls-43" d="M93.64,100.46c-1.12.18-.61,1.64.7,1.42a2.45,2.45,0,0,1-.14-1.51l-.56.09Z"></path> <path class="cls-44" d="M93.37,90.07c-1.6.41,2.13,2.94,2.13,3.17.53.23,1.1.79,1.7.73,0-.18.07-.31,0-.45a1,1,0,0,1-.25,0c-.21,0-.89-.57-1.06-.63.28.1-.81-.29-.91-.36-.26-.16-1.31-2.51-1.58-2.46Z"></path> <path class="cls-45" d="M96.81,93.49Z"></path> <path class="cls-46" d="M97.21,94h0a.77.77,0,0,1,0-.15.77.77,0,0,0,0,.15Z"></path> <path class="cls-47" d="M94.33,99.74a9.51,9.51,0,0,1,2.75-5.2,3,3,0,0,0,.15-.9c-.12-.29-.38-.5-.53-.79-2.9-.14-2.59-4.3-2.58-4.3-1,0-.46,2.82-.42,3.3a10.51,10.51,0,0,1-.11,3,43.8,43.8,0,0,0-.48,5.5c0,2.06-.42,3.56,1.91,2.28A2.69,2.69,0,0,1,94.33,99.74Z"></path> <path class="cls-48" d="M94.92,92.46l0,0,0,0Z"></path> <path class="cls-49" d="M95,92.48Z"></path> <path class="cls-50" d="M97.18,94.14a.86.86,0,0,0,0-.32c0,.11,0,.22,0,.32Z"></path> <path class="cls-51" d="M95.57,94.74a2,2,0,0,0-.58-.65,6.63,6.63,0,0,1-.92-3.1c0-.3-.13-2.65-.45-2.67s0,2.26,0,2.37c.14,1.08-.12,2.1.45,3.17C94.28,94.21,95.91,96,95.57,94.74Z"></path> <path class="cls-52" d="M94.64,93.73Z"></path> <path class="cls-53" d="M94.89,94.91Z"></path> <path class="cls-54" d="M94.87,94.91Z"></path> <path class="cls-55" d="M92.06,107.14c1.41-2.14,2.55-2.73,2.2-5.32-.1-.68,0,.07,0-.24-.37-2.46,2.19-4.37,2.58-6.61S94.91,96.44,94.58,97a13.83,13.83,0,0,0-1.53,3.84c-.3,1.54.08,2.35-.67,3.66-.5.87-3.13,3.39-2.75,4.44C90.37,111,91.77,107.54,92.06,107.14Z"></path> <path class="cls-56" d="M94.21,100.3Z"></path> <path class="cls-57" d="M94.19,100.42Z"></path> <path class="cls-58" d="M94.27,101.88Z"></path> <path class="cls-59" d="M93.24,103.66Z"></path> <path class="cls-60" d="M93.4,103.92Z"></path> <path class="cls-61" d="M90,108.43Z"></path> <path class="cls-62" d="M90,108.43Z"></path> <path class="cls-63" d="M90,108.47Z"></path> <path class="cls-64" d="M94.23,101.61s0,0,0,0Z"></path> <path class="cls-65" d="M94.36,101.76a9.81,9.81,0,0,1,.35-4.41c.4-.93,1.68-1.93,1.92-2.87.5-2-1.32,0-1.88.81-.89,1.34-2.23,3.43-2.35,5.09C92.26,102.21,94.92,105,94.36,101.76Z"></path> <path class="cls-66" d="M95.11,93.39a4.44,4.44,0,0,0-1.5,2.19c-.34.7-.85,6.71.5,7.73,1,.76,1.1-.71,1.14-1.5.1-2-.8-4.43.1-6.39-.12.26,1.4-3.45-.24-2Z"></path> <path class="cls-67" d="M109.91,87.61a2.07,2.07,0,0,0-1.58,2.1,1.56,1.56,0,0,0,0,.48,29.91,29.91,0,0,1,.56,3.76,31,31,0,0,1-.41,6.67,26.53,26.53,0,0,1-1.88,5.73c-.15.31-.31.62-.48.92s-.46.78-.7,1.17a29.41,29.41,0,0,1-2.36,3.26l-.09.1-.1.12,0,0a2.09,2.09,0,0,0-.14.17c-.06,0-.11.11-.16.16a2.23,2.23,0,0,0-.22,3,2,2,0,0,0,1.42.74,1.88,1.88,0,0,0,1.44-.51l.09-.1a.46.46,0,0,0,.07-.07l.1-.11s0,0,0,0a1.79,1.79,0,0,0,.27-.28,30.16,30.16,0,0,0,2.48-3.13,20.89,20.89,0,0,0,1.57-2.72,30,30,0,0,0,2.37-6.27,26.83,26.83,0,0,0,.85-6.68,31.43,31.43,0,0,0-.76-6.77,2.37,2.37,0,0,0-.18-.53,2,2,0,0,0-.69-.91,1.77,1.77,0,0,0-.47-.25,1.81,1.81,0,0,0-1-.07Zm-4.71,27.93h0l0,0,0,0Z"></path> <path class="cls-68" d="M118.3,79.62a2.38,2.38,0,0,0-.94.21,3.41,3.41,0,0,0-1.71,1.89v0c.43,1.16.82,2.35,1.15,3.57l0,.13a43.73,43.73,0,0,1,.94,4.44h0s0,.09,0,.14,0,.06,0,.08a.28.28,0,0,1,0,.09l0,.13v.05l0,.17a0,0,0,0,0,0,0,.68.68,0,0,0,0,.14.19.19,0,0,0,0,.08s0,.07,0,.11c.16,1.2.26,2.41.31,3.64v0l0,.85v.41c0,.09,0,.17,0,.26v.29c0,.89,0,1.78,0,2.67l0,.43a38.06,38.06,0,0,1-1.1,6.67l-.19.67a39.14,39.14,0,0,1-2,5.83v0a2.14,2.14,0,0,0-.1.22l-.06.15,0,0c-.1.22-.2.45-.31.67s-.23.5-.36.74a33.71,33.71,0,0,1-2.47,4.27l-.1.15-.26.37s0,0,0,0c-.12.17-.24.34-.37.5,0,0,0,0,0,0l-.06.07-.27.36s0,0,0,0l-.13.18,0,.06-.45.55a4.51,4.51,0,0,0,.09.53,3,3,0,0,0,.29.74.64.64,0,0,0,.08.14s0,0,0,0v0a3.44,3.44,0,0,0,.28.36,1.81,1.81,0,0,0,.33.29l0,0h0a2.06,2.06,0,0,0,.69.32,1.91,1.91,0,0,0,1.69-.44c.29-.29.57-.59.84-.89h0l-.1.11.11-.12,0,0a8.07,8.07,0,0,0,.81-.92c.45-.51.88-1.05,1.29-1.6a38.45,38.45,0,0,0,2.32-3.62,36.53,36.53,0,0,0,2.31-4.89,35.21,35.21,0,0,0,1.49-5.16,42.71,42.71,0,0,0,.71-4.39,51.15,51.15,0,0,0,.32-5.54c0-1.45-.09-2.91-.22-4.35,0-.11,0-.22,0-.32a1.85,1.85,0,0,1,0-.23s0,0,0,0a.11.11,0,0,0,0,0,.36.36,0,0,0,0-.1.3.3,0,0,0,0-.1l0-.16a.3.3,0,0,0,0-.1l0-.17s0-.05,0-.08a1.29,1.29,0,0,1,0-.19.13.13,0,0,1,0-.06,1.74,1.74,0,0,1-.05-.22v0a40.53,40.53,0,0,0-1.84-6.22h0l-.08-.2,0-.07s0-.07,0-.11a1.54,1.54,0,0,0-.08-.19c-.24-.59-.49-1.16-.76-1.72l-.09-.2v0c-.2-.43-.42-.85-.63-1.26a2.47,2.47,0,0,0-.52-.18,2.57,2.57,0,0,0-.68-.06Zm-3.93,42.53a.12.12,0,0,0-.05,0,.12.12,0,0,1,.05,0Z"></path> <path class="cls-69" d="M129.44,74a2.22,2.22,0,0,0-.95.26,3.81,3.81,0,0,0-1.7,2.25l0,0c.44,1.38.83,2.8,1.16,4.25l0,.16c.39,1.73.7,3.5.93,5.28v0a1,1,0,0,0,0,.17.28.28,0,0,0,0,.09s0,.08,0,.11a.88.88,0,0,1,0,.16.43.43,0,0,1,0,0c0,.07,0,.14,0,.21s0,0,0,0,0,.11,0,.17,0,.06,0,.1a.53.53,0,0,0,0,.12c.16,1.43.26,2.88.31,4.33v0c0,.33,0,.67,0,1a2.44,2.44,0,0,1,0,.27V94c0,1.06.05,2.13,0,3.18l0,.52a53.56,53.56,0,0,1-1.1,8c-.07.26-.13.52-.19.79a53.05,53.05,0,0,1-2,7l0,0-.09.26-.07.18v.05c-.1.27-.21.54-.31.8l-.36.89a45.11,45.11,0,0,1-2.47,5.08l-.11.18-.25.44,0,0c-.11.2-.24.4-.36.6,0,0,0,0,0,0l-.06.09-.27.43h0l-.14.21a.18.18,0,0,1,0,.07l-.44.66a3.19,3.19,0,0,0,.09.63,3.86,3.86,0,0,0,.29.89c0,.05,0,.1.08.16s0,0,0,0v0a3.07,3.07,0,0,0,.28.42,1.84,1.84,0,0,0,.33.35l0,0h0a1.79,1.79,0,0,0,.69.37,1.66,1.66,0,0,0,1.69-.52c.28-.34.56-.7.84-1.06h0a1.13,1.13,0,0,0-.1.13l.11-.14,0,0a9.48,9.48,0,0,0,.81-1.1c.44-.61.87-1.25,1.29-1.91a47.77,47.77,0,0,0,2.32-4.31,48.29,48.29,0,0,0,2.31-5.82,50.61,50.61,0,0,0,1.48-6.15c.33-1.72.54-3.47.71-5.23.21-2.19.32-4.4.33-6.6,0-1.73-.09-3.47-.22-5.19,0-.13,0-.25,0-.38a2.51,2.51,0,0,1,0-.27.13.13,0,0,1,0-.06.11.11,0,0,1,0-.06s0-.08,0-.12,0-.08,0-.12l0-.19s0-.08,0-.12l0-.2s0-.06,0-.09a2,2,0,0,0,0-.24.13.13,0,0,0,0-.06c0-.09,0-.18,0-.27v0a55,55,0,0,0-1.84-7.41h0l-.08-.24,0-.09s0-.08,0-.12-.06-.16-.08-.23c-.24-.7-.49-1.38-.76-2.05l-.09-.23s0,0,0,0c-.2-.51-.42-1-.64-1.51a2.49,2.49,0,0,0-.51-.21,2.26,2.26,0,0,0-.68-.08Zm-3.94,50.67,0,.07,0-.07Z"></path> </g> </g> </svg> 