<?xml version="1.0" encoding="UTF-8"?> <svg xmlns="http://www.w3.org/2000/svg" viewBox="0 0 182.13 197.49"> <defs> <style>.cls-1{fill:#404040;}</style> </defs> <title>Asset 2gsml</title> <g id="Layer_2" data-name="Layer 2"> <g id="Layer_11" data-name="Layer 11"> <g id="Shape_11" data-name="Shape 11"> <path class="cls-1" d="M102.1,19.49A88.23,88.23,0,0,0,76.68,3.93c-2.61-1-5.27-2-7.93-2.88,34.18-5.19,70.65,9.14,92.16,36.2s27.26,65.81,14.5,97.95-43.51,56.4-77.73,61.34S27.1,186.88,5.79,159.66a87.13,87.13,0,0,0,79.68-.08A87.11,87.11,0,0,0,130.6,93.91,87.15,87.15,0,0,0,102.1,19.49Z"></path> </g> </g> <g id="Draw_Layer" data-name="Draw Layer"> <path class="cls-1" d="M44.23,130.83a.9.9,0,0,1,.38.34.32.32,0,0,1-.13.44l-.52-.87a.73.73,0,0,1,.76-.16.73.73,0,0,1,.14-.56l-.77-.21a4.47,4.47,0,0,1,2-.46,4.27,4.27,0,0,0-.67-.74,1.45,1.45,0,0,0,1,.14c.32-.07.7-.23.91,0a2.16,2.16,0,0,1,3.5-1.55,4.7,4.7,0,0,0-2.41.12,3.71,3.71,0,0,0,2.77.32,8.34,8.34,0,0,1,1.46-.41,1.15,1.15,0,0,0,1.23-.7c.18-.21.47-.4.72-.29l-1.07,1.14a.68.68,0,0,1-.41.26c-.23,0-.47-.21-.67-.1a5.34,5.34,0,0,1-1.38.51,3.78,3.78,0,0,1-1.57.06.5.5,0,0,0,.55.48,1.2,1.2,0,0,0-.9.84c0,.14-.22.17-.36.17-.61,0-1.22,0-1.83-.07l-.07-.61a1.52,1.52,0,0,1-1.26.74c-.17,0-.42.14-.29.25a.41.41,0,0,1,.43.2,2.46,2.46,0,0,1-1.55.71Zm3.51-2.63c-.15.12-.05.39.13.45a.74.74,0,0,0,.56-.09c0,.14.15.24.28.19s.22-.19.33-.28.3-.13.38,0a.56.56,0,0,0-1.07-.2,1.06,1.06,0,0,0-.61-.06ZM56,126.76a.62.62,0,0,0,.54.41,1.73,1.73,0,0,0,.71-.1l1-.29c.4-.11.92-.19,1.16.15a2.54,2.54,0,0,0,2.33.64c-.06.33.34.56.43.88.14.51-.51.87-.69,1.37a2.17,2.17,0,0,0,1-.13l-.12.36c.2.22.64-.11.49-.36a3.75,3.75,0,0,0,1.6,0,.32.32,0,0,1-.44.29c-.53-.28-1.13.46-1.71.3-.28-.07-.6-.33-.79-.12a.47.47,0,0,1-.45.08c-.65-.09-1.3-.2-1.94-.34.08-.31.48-.39.79-.45s.7-.27.62-.59c0-.08-.08-.16-.07-.25s.12-.17.18-.1a.89.89,0,0,1-.4,1.13c-.2.1,0,.42.26.39s.41-.2.63-.18a.83.83,0,0,1,.35-.66,1.13,1.13,0,0,0,.42-.64c0-.25-.3-.52-.49-.35l-.33.25c-.16-.29-.42-.63-.74-.54a.41.41,0,0,1-.5-.4l-1.3.46-.59.21.08-.65c-.18.25-.56.1-.83,0s-.73-.15-.77.15a12.15,12.15,0,0,1,1.18.33.43.43,0,0,1-.21.39,7.19,7.19,0,0,0-2-.65.81.81,0,0,0,0-.74.61.61,0,0,0-.42.57,1.22,1.22,0,0,1-.6,0,.67.67,0,0,0,.56-.64c0-.18.29-.17.46-.09s.45.1.45-.09Zm3,.64h.31c.08,0,.06-.19,0-.25a.53.53,0,0,0-.28-.07h-.35a.2.2,0,0,0-.15,0c-.12.07-.07.28.05.34a.61.61,0,0,0,.42,0l0,0ZM37.19,89.77c0,.26-.07.65-.31.56a3.65,3.65,0,0,0-.59-2.51c-1.37-2.69-2.63-5.45-3.76-8.25l1.45,3,2.53,5.22c.08.16.35.31.39.13l.29,1.85ZM98.1,143.13c-.11-.22-.13-.47-.25-.68s-.41-.37-.6-.23l.62,1.66a2.24,2.24,0,0,0,.41.78l-.21.06a.42.42,0,0,1,0-.29l-.28-.17-.44-1.18a2.78,2.78,0,0,0-1.21-1.71c.21-.2.54,0,.76.17a2.45,2.45,0,0,0,.72.48,1,1,0,0,0,.85,0c.15,0,0,.28-.09.37s-.31.25-.2.37l.8.9c.17.18.35.44.23.66a.55.55,0,0,0,.37.75l-.2.11a.78.78,0,0,1-.48-.76c0-.5-.54-.81-.76-1.26Zm-53.87-15.2a.52.52,0,0,1,.57-.55,5.64,5.64,0,0,0,2.16-.17c0-.21-.25-.33-.47-.34s-.52-.07-.54-.29a2.23,2.23,0,0,1,1.38.35l.26.2a3,3,0,0,1-1.67.81c-.27,0-.6,0-.74.2a.91.91,0,0,1-1.19.28,1.16,1.16,0,0,0,.52,0,.39.39,0,0,0,.27-.4l-.55,0Zm40.2,6.32a2.12,2.12,0,0,1-.83.05l-.15,0c-.23-.13-.12-.5-.29-.69s-.34-.14-.51-.22-.23-.38-.05-.41a.73.73,0,0,0,.32.18.25.25,0,0,0,.29-.17c0-.15-.12-.26-.25-.33a2.42,2.42,0,0,0-1.57-.14.88.88,0,0,1-.82-.2,2.9,2.9,0,0,1,2-.07c.24.08.36-.43.6-.36a2.12,2.12,0,0,0,.75.23.31.31,0,0,1-.58,0,.26.26,0,0,0-.27.36c.23.06.33.32.43.54a3.27,3.27,0,0,0,1,1.29ZM62.57,82.5l.08-.41L63,80.3l.57-2.85.31-1.59c.14,0,.15.22.13.37l-.75,4a24.09,24.09,0,0,0-.44,3,.84.84,0,0,0-.44.45,9.19,9.19,0,0,1,.19-1.28ZM51.48,92a.26.26,0,0,0-.3,0,.62.62,0,0,0,0-.5c.2-.09.23-.36.22-.58,0-.92-.08-1.85-.15-2.77l0-.61-.28-4.06c.17.05.21.27.23.45l.29,3.25a13.1,13.1,0,0,1,.07,1.77c0,.7-.15,1.5.33,2a4.16,4.16,0,0,0-.33,1.77,2.1,2.1,0,0,1-.05-.75Zm26,3.76c-.09-.17-.34,0-.46.13a9,9,0,0,0-.71,1c-.12.2-.2.52,0,.6a.41.41,0,0,1-.42.21l0-.31a2,2,0,0,0-.4.23,4.92,4.92,0,0,1,1.14-1.67,2.54,2.54,0,0,0,.85-1.09,2.28,2.28,0,0,1,.6-.85,7.52,7.52,0,0,0,.47-.64l1.56-2.26a3.44,3.44,0,0,1-1.06,1.78c-.26.23-.33.61-.54.91s-.62.54-.77.91a1.48,1.48,0,0,0-.09.51l-.06.78c-.11,0-.1-.17-.16-.27ZM23,136.09c.17-.32-.41-.73-.18-1a10,10,0,0,0,1-1.61c.19.07.21.36.11.54s-.29.31-.41.48-.1.29,0,.32.13,0,.18-.08l1.45-1.37A6,6,0,0,1,23.86,135c-.36.32-.44.94-.9,1.09ZM89.07,92.47a2.42,2.42,0,0,1,0,.93l-3.29,3.28a11.92,11.92,0,0,1-.9.84,7,7,0,0,1-1.22.78l1.3-1.15a6.28,6.28,0,0,0,.82-.81c.73-.92,1.72-1.6,2.52-2.46a3,3,0,0,0,.8-1.41ZM54.9,83.74v2a5.08,5.08,0,0,1-.12,1.23q-.09-6,0-12c.12,2.94.1,5.88.09,8.83ZM41.33,92.52a.31.31,0,0,0-.39-.12.24.24,0,0,1,0-.35.39.39,0,0,0,.48.22.4.4,0,0,0,.23-.49l-.48-1.33-.07-.19L40,87.16a.58.58,0,0,1,0-.48c.78,1.11.79,2.65,1.65,3.7-.21.35.06.83.42,1a1.68,1.68,0,0,1,0,.67.38.38,0,0,1-.09-.37.23.23,0,0,0-.25,0,.57.57,0,0,1-.42.81ZM58.1,88.78l0-1.61a.62.62,0,0,1,.08-.36c.07-.1.21-.19.17-.3a1.58,1.58,0,0,1,0-.75l.28-2.5c.18,0,.21.27.19.45l-.24,2.77a5.79,5.79,0,0,0,0,1.1,3.73,3.73,0,0,1-.26,1.58l-.16-.38Zm20.95,45.08a.62.62,0,0,0,.77-.31c.25.55.93.71,1.49.9a5.26,5.26,0,0,1,1.08.49A5,5,0,0,1,83.68,136a3.15,3.15,0,0,1-1.32-.77A1,1,0,0,0,82,135c-.86-.29-1.74-.55-2.61-.78-.14,0-.35,0-.32.13-.09-.07-.19-.15-.2-.26s.09-.25.19-.21ZM87.48,136l-.09.32a.77.77,0,0,0-.73-.37,2.26,2.26,0,0,0-.83.24.43.43,0,0,0-.35-.28,1.1,1.1,0,0,1-1.62.31l.26-.23c.1.25.46.28.71.18s.45-.31.7-.41a3.35,3.35,0,0,1,1.3,0c.25,0,.58-.13.52-.37a5.38,5.38,0,0,1-.91-.81,1.47,1.47,0,0,1,.89.25,2.77,2.77,0,0,0,.4,1.17l-.25,0ZM61.11,74.45l.12-1a.66.66,0,0,1,.07.44l-.21,2.25,0,.37c-.11,1.24-.23,2.47-.39,3.7,0,.17-.07.37-.23.43a5.93,5.93,0,0,1,.06-1.33l.25-1.94.37-3Zm-2.43,8.46a1.42,1.42,0,0,1,0-.68l.15-1.53.2-1.92,0-.53a21.41,21.41,0,0,1,.41-2.78.39.39,0,0,1,.14.46,5,5,0,0,1-.21.48,1.81,1.81,0,0,0-.07.52c-.08,1.79-.22,3.57-.43,5.35a1.06,1.06,0,0,1-.21.63ZM98.87,127a2.42,2.42,0,0,1,.88.14,4.11,4.11,0,0,0,1.6.11c0,.14-.22.17-.36.17H99.67l-2.25,0-2.32,0c.47-.38,1.18-.09,1.76-.25a3.31,3.31,0,0,1,.42-.12.36.36,0,0,1,.37.17.2.2,0,0,0,0-.22.47.47,0,0,1,.47,0,1,1,0,0,0,.44.19c.17,0,.34-.17.26-.31Zm-7.1,11.55c.32-.13.6.23.76.52s.47.64.77.49a.9.9,0,0,1,1.24.6c-.4-.38-1-.28-1.58-.35a4.5,4.5,0,0,1-1.48-.55.61.61,0,0,0,.29-.71ZM19.16,97.58a1.74,1.74,0,0,1,.75.44L22.24,100l.94.79L24.69,102c-.16.08-.34,0-.48-.14l-1.16-.92c-1.34-1.07-2.63-2.19-3.89-3.35Zm-6.3,5.72-.38-.26a.9.9,0,0,0,0,.46c-.1,0-.18-.07-.23-.15A4.18,4.18,0,0,0,11,102.19c-.86-.55-1.94-.81-2.59-1.6l.84.46,2.18,1.19a3.68,3.68,0,0,0,2.28.66.59.59,0,0,1-.75,0l-.11.35ZM36.17,92.61a.24.24,0,0,1,.34.27.84.84,0,0,1-.61-.49c-.17-.36-.36-.72-.54-1.09l-1.79-3.5a3.17,3.17,0,0,1,.94,1.42,16.23,16.23,0,0,0,2,3.21l-.28-.13a.37.37,0,0,0,0,.31Zm12.39-1.74c.06.06.14.13.13.22a5.73,5.73,0,0,0,.13,1.43.16.16,0,0,1-.28,0l-.4-1.81c0-.13,0-.26-.07-.38s0-.31,0-.47l-.09-1.65a2.31,2.31,0,0,1,.4,1.24c0,.5-.12,1.08.22,1.45Zm-19,45a1.71,1.71,0,0,0,.92-.4c0,.26-.25.44-.49.55l-2,.87a1.51,1.51,0,0,1,.63-.67,5.28,5.28,0,0,0,1.26-1.1.93.93,0,0,0,.27-.44.34.34,0,0,0-.24-.4.58.58,0,0,1,.27.91,2.16,2.16,0,0,1-.4.27.42.42,0,0,0-.21.41ZM90.78,104l-4.16,2.83c-.14.1-.31.2-.46.13a12.67,12.67,0,0,1,1.73-1.28L90.42,104c.12-.08.31-.13.36,0ZM26.67,135.9c.06-.16-.13-.28-.29-.31s-.36,0-.43-.19a3.64,3.64,0,0,0,.57-.25c-.05.23.29.35.53.28s.49-.19.69-.06a2,2,0,0,1-1.42.87,1,1,0,0,0-.91.49c-.17-.08-.1-.35,0-.48s.34-.21.39-.39a1.47,1.47,0,0,0,.83,0Zm40.83-9.65a.43.43,0,0,0-.55.12,1.43,1.43,0,0,0-.2.58.63.63,0,0,0,0,.41c.08.12.29.15.35,0a.8.8,0,0,1,.66-.47c.12,0,.08.22,0,.26a1.94,1.94,0,0,1-.34,0c-.12,0-.21.19-.11.25a.15.15,0,0,1,0,.22.41.41,0,0,1-.24.06.76.76,0,0,1-.37,0c-.34-.16-.27-.66-.14-1s.37-.76.73-.71a1.44,1.44,0,0,0,.68-.18c.22-.08.54-.06.62.16a.13.13,0,0,1-.1.18c-.09-.16-.33-.1-.49,0s-.35.22-.5.12ZM88.65,136l-.33-.62a.18.18,0,0,1,.3,0c-.16.27.09.62.39.73s.63.1.92.21l-.26.18c0-.2-.32-.24-.44-.08a.57.57,0,0,0,0,.55,1.19,1.19,0,0,1,1.45.07c.1.09.25,0,.37,0s.3.08.26.2l-1.23-.18,0,.23a.23.23,0,0,1,.24.23.22.22,0,0,1-.26.19.87.87,0,0,0-.94-.69,3.57,3.57,0,0,0-.43-1ZM67.6,124.47a1,1,0,0,1,1.14.16,2.15,2.15,0,0,1,.59,1.06,1.14,1.14,0,0,0,.49.63.45.45,0,0,1-.59-.18,2.92,2.92,0,0,1-.27-.63.59.59,0,0,0-.5-.41.91.91,0,0,1-.86-.63Zm-2.71,4.31a1.76,1.76,0,0,1,1.32-.09c.36.07.72.15,1.07.24.19,0,.44.18.39.37a2.23,2.23,0,0,0-1.76,0c-.13.08-.29,0-.41-.1l-.61-.47Zm1.45-41.13c.39-.06.58-.51.67-.9s.16-.83.5-1a25.85,25.85,0,0,0-.83,3.45.94.94,0,0,1-.28.67l0-1.68a.68.68,0,0,0-.11-.51Zm15.08,46a1.54,1.54,0,0,0-.89-.56l-.1.26c-.07-.59-1-.63-1.28-1.15l.2-.13a2.55,2.55,0,0,0,1.2.75A4.53,4.53,0,0,1,82.8,134c-.46.19-1-.61-1.38-.34ZM67.79,85.31l-.34.48a8,8,0,0,1,.4-1.81l.63-2c.11-.37.23-.74.36-1.1a8.33,8.33,0,0,1,.58-1.25l-.27.89L68.1,84a1.77,1.77,0,0,1-.27.63,1.46,1.46,0,0,0-.22.35c0,.13,0,.31.18.32ZM17.5,110.05l.31.16-.54.08a.26.26,0,0,0-.21-.34.88.88,0,0,1-.3-.1c-.83-.39-1.65-.8-2.47-1.23.1-.18.36-.09.52,0s.4.25.52.09a1.53,1.53,0,0,0,.92.62,5.48,5.48,0,0,0,1.75.24.93.93,0,0,0,.34,0c0,.19-.28.21-.47.21s-.44.11-.37.29ZM48.65,83.51l.28,2,.37,2.67a.94.94,0,0,1-.23-.59c-.34-2.21-.64-4.42-.93-6.63a12.56,12.56,0,0,1,.51,2.51ZM79.5,98.14a.91.91,0,0,1-.6.65,2.14,2.14,0,0,1,.25-.41l1.74-2.26a1.07,1.07,0,0,1,.7-.52.7.7,0,0,1-.21.42l-1.18,1.4a.85.85,0,0,0-.27.52c0,.14,0,.28,0,.42s-.16.3-.28.23a.28.28,0,0,0-.2-.45ZM88.28,96l2.9-2.79.54-.53c.31-.29.61-.59.91-.89.15,0,.05.27-.06.38l-4,3.74c-.09.08-.23.17-.33.09Zm-23-18.53c-.06.6-.15,1.19-.26,1.78l-.18,1a12.68,12.68,0,0,1-.63,2.44,7.55,7.55,0,0,1,.17-1.42c.19-1.05.4-2.09.61-3.12a1.3,1.3,0,0,1,.29-.69Zm8.23,17.28c.16-.23.32-.54.17-.79.76-.26.85-1.36,1.53-1.79a.62.62,0,0,1-.14.48,7.51,7.51,0,0,1-1.21,1.59c-.07,0,0,.16,0,.25a.49.49,0,0,1-.11.28q-.63,1-1.35,2l.06-.37,1.06-1.6Zm-39.8,3c-.44-.46-.45-1.22-.9-1.68s-.68-.75-1-1.15a2.1,2.1,0,0,1-.55-1.15,39.8,39.8,0,0,1,2.43,3.36,1.17,1.17,0,0,0,.52.44,1.31,1.31,0,0,0-.5.18Zm46.41,37.84a1,1,0,0,1,.62.16,1.32,1.32,0,0,0,.59.24.42.42,0,0,0,.46-.36l2.46,1.62c-.56,0-1-.48-1.49-.75a2.34,2.34,0,0,0-1.66-.23l-1-.68ZM25.43,101.3l-.18-.18c.16-.13.39,0,.54.15q1.73,1.56,3.53,3c-.36.1-.71-.18-1-.44l-2.58-2.45c-.09-.09-.22-.18-.33-.13Zm55,14.86-.31,1.44A3.91,3.91,0,0,1,79,118a.42.42,0,0,1,.25-.41,1.41,1.41,0,0,1,.5-.12c.17,0,.09-.31-.07-.34s-.32.06-.49.07-.36-.18-.25-.3l.1-.07a1.58,1.58,0,0,1,1.19-.19.49.49,0,0,1,.15-.5ZM5.73,102.47l4.2,2a1.55,1.55,0,0,1,.76.59l-5.3-2.58c0-.13.22-.1.34,0ZM67.9,79.05a.93.93,0,0,0-.19.37A12.15,12.15,0,0,1,67,82.51c.12-.92.28-1.84.47-2.76a1.23,1.23,0,0,1,.23-.58,1.44,1.44,0,0,0,.25-.61l.3-1.3a2.94,2.94,0,0,1-.3,1.79ZM17.36,112.11a3.44,3.44,0,0,0,1.68.76.79.79,0,0,1,0,.43,1.75,1.75,0,0,1-1.15-.52.7.7,0,0,0-.31-.23,8.29,8.29,0,0,1-1.9-.62,1.93,1.93,0,0,1,1.14.09.67.67,0,0,0,.51.09Zm1.44.82c-.1,0-.14.15-.08.24s.14-.14.09-.24ZM44.25,88.59l.11-.66.53,1.87c.17.59.34,1.18.47,1.78l-.28-.09-.72-2.42a.31.31,0,0,0-.31-.42.21.21,0,0,1,.2-.06Zm27.92,1.53L73,88.33a6.36,6.36,0,0,1-.61,1.78l-.52,1.11a1.26,1.26,0,0,0-.16.92c.06.18-.2.35-.37.25a.43.43,0,0,1-.15-.5,1.9,1.9,0,0,1,.3-.49,6.6,6.6,0,0,0,.7-1.28Zm16.89,10.39a.31.31,0,0,1-.11.37,1.36,1.36,0,0,1-.39.17,3.4,3.4,0,0,0-1.06,1,1.36,1.36,0,0,1-1.29.57,7.31,7.31,0,0,1,1.43-1.11c.24-.14.51-.31.54-.58a1.87,1.87,0,0,0,.88-.43Zm1.53,10.31-.38-.32a2.15,2.15,0,0,0,1.21-.35c.56-.29,1.13-.55,1.72-.79.16-.06.4-.1.46.07l-1.45.69-1.06.5a2.37,2.37,0,0,1-.5.2ZM92.52,89.6c.12-.14.3-.3.47-.22-1.16,1.18-2.31,2.36-3.47,3.53-.09-.13,0-.3.13-.42.53-.58,1.07-1.14,1.64-1.68.42-.4.85-.78,1.23-1.21ZM30,98.09a13.58,13.58,0,0,1-1-1.29c.81.27,1,1.57,1.89,1.65-.14.69.92,1.13.89,1.83a1.63,1.63,0,0,1-.17-.2l-1.2-1.45L30,98.09Zm51-.38.21.05L82.86,96a2,2,0,0,1-.64,1l-1.31,1.36a.47.47,0,0,1-.56.4c-.13-.46.83-.68.68-1.13Zm-71.14,24c-.17-.11-.4.07-.41.26a.65.65,0,0,0,.27.5L8.65,122a1.67,1.67,0,0,0-.84-.19c.14-.26.51-.16.8-.13a4.84,4.84,0,0,0,1.19-.11,1.16,1.16,0,0,1,1.1.35,1.33,1.33,0,0,1-1-.21Zm-.81.37c.09,0,.23,0,.18-.1s-.26,0-.19.12v0Zm23.17-33.7c.11.22.52.22.54.46a2.16,2.16,0,0,0,.47,1,8.25,8.25,0,0,1,.6,1l.72,1.35c-.2,0-.33-.2-.44-.37-.32-.54-.62-1.09-.91-1.64l-1-1.83ZM35.56,131a.58.58,0,0,0-.13-.83.37.37,0,0,1,.5.21.89.89,0,0,1,0,.6.42.42,0,0,1-.11.17.39.39,0,0,1-.32,0,3.18,3.18,0,0,0-1.73.09,1.66,1.66,0,0,1,1.67-.55l0,.18a.37.37,0,0,0,.2.12ZM17.21,142.84a.14.14,0,0,0,.17,0,.21.21,0,0,0-.05-.29,5.07,5.07,0,0,0,1-.44.27.27,0,0,0,.08-.07c.09-.13-.11-.28-.26-.32l.74-.29c.16.16,0,.42-.2.56l-1.4,1.18a.93.93,0,0,1-.43-.61l-.37-.06a1.08,1.08,0,0,0,.35-.28,2.11,2.11,0,0,1,.39.58ZM88,104.41a.23.23,0,0,0,.22.06.17.17,0,0,1-.09.24c-.12-.24-.5-.14-.7,0a1.85,1.85,0,0,0-.62,1.16,1.51,1.51,0,0,1,.42-1.31,4.42,4.42,0,0,1,1.16-.84l1-.56L88,104.41Zm8.38,12.23a.35.35,0,0,1,.06.56,1.94,1.94,0,0,1-.25-.57,2.29,2.29,0,0,1-1.27-.06c.2-.15.48-.29.67-.14s.43-.05.6-.2a1.86,1.86,0,0,1,1.71-.34.41.41,0,0,0-.35.26l-.37-.08a.64.64,0,0,0-.49,0c-.15.08-.19.34,0,.41l-.28.14ZM52,130.6a1.11,1.11,0,0,0-.59.63.47.47,0,0,1,.36.32,1.64,1.64,0,0,0-.76.53,1.2,1.2,0,0,1-.84-.61c.1-.1.28,0,.4.09s.32.15.38,0a3.71,3.71,0,0,1,.91-1.2.37.37,0,0,1,.14.22Zm-30.44,8.1L20.39,140a3.54,3.54,0,0,0,.47-1.65l.44,0a.13.13,0,1,0,.21,0l-.21,0a.31.31,0,0,1,.36-.38.32.32,0,0,1,.36-.29,1.12,1.12,0,0,0-.35.71.58.58,0,0,1-.15.29Zm-7.21-18.54a5.37,5.37,0,0,1-1.65,0,2.74,2.74,0,0,1-.39-.09l-1-.25a12.63,12.63,0,0,1,3.47.28l-.44,0Zm65.48,8.92a2.35,2.35,0,0,1,.42-.76.76.76,0,0,1,.79-.25,2.06,2.06,0,0,0-.33.17,1.13,1.13,0,0,0-.47,1,.42.42,0,0,1-.37.38,1.11,1.11,0,0,1-.57-.1.55.55,0,0,1-.31-.19c-.07-.11,0-.29.13-.28l.9.38a.26.26,0,0,0-.19-.31ZM38,87.69c0,.1-.16.11-.24.06a.54.54,0,0,1-.16-.25l-1.13-3c.16,0,.26.16.32.31L38,87.69Zm54.33,23.88a2.62,2.62,0,0,1-1.08,0h0c-.13,0,0-.26.09-.27s.25.07.37.12a1.29,1.29,0,0,0,1-.26,3.16,3.16,0,0,1,2-.58,10.7,10.7,0,0,0-1.81.77,2.71,2.71,0,0,1-.52.24ZM93.84,142a1,1,0,0,1,.35-.27l1.16.69a.88.88,0,0,0-.51,0,.32.32,0,0,0-.15.43c.1.12.3.11.42.22a.53.53,0,0,1-.66-.13,1.43,1.43,0,0,1-.3-.66l-.2,0a.44.44,0,0,0-.11-.27Zm.77.43,0-.2a.33.33,0,0,0-.33,0,.21.21,0,0,0,.28.19ZM56,89.61A2.21,2.21,0,0,0,55.6,88H56a.26.26,0,0,0,.2.26c-.06.77-.1,1.54-.1,2.31-.13.11-.07.32,0,.49a1.08,1.08,0,0,1-.33,1l-.2-.12c.31-.14.37-.55.38-.88L56,89.61ZM8.34,134.46a.78.78,0,0,1-.56-.37,8.73,8.73,0,0,0,2.21-.42c.29-.1.67-.18.84.06L9.26,134c-.34.06-.74.17-.88.48l.64.09a.76.76,0,0,1-.44.21c-.17,0-.33-.19-.24-.34Zm29-3.5a1.16,1.16,0,0,0-.62-.19.51.51,0,0,0-.5.35.36.36,0,0,1,.4-.48,1,1,0,0,0-.18-.69,2.2,2.2,0,0,0,1-.53,2.92,2.92,0,0,1,1.21-.42l-.2.37c0-.13-.23-.14-.37-.1a1.56,1.56,0,0,0-.9.73h-.39a1.8,1.8,0,0,0,0,.61.79.79,0,0,1,.55.35Zm37.47-1.54a2.5,2.5,0,0,1,.85.7.33.33,0,0,1-.41.12.33.33,0,0,1-.17-.39c0-.09-.08-.18-.17-.16a.52.52,0,0,0-.25.14c-.23.18-.66.18-.74-.1a.38.38,0,0,1,.32-.43.79.79,0,0,1,.57.12Zm-61.48-3a.24.24,0,0,0-.18-.31c.07-.11.23-.11.36-.11l1.17.07c.19,0,.44,0,.46-.22a.75.75,0,0,0-.44-.25l1.3,0a.72.72,0,0,1-.74.25l-.16.3-1.77.23ZM66,86.58a.42.42,0,0,0,.27,0c.13.14,0,.37-.13.5s-.33.27-.32.46A.44.44,0,0,1,66,87a.29.29,0,0,0-.07-.36.28.28,0,0,0-.37,0c-.1.11-.08.28-.12.43s-.2.3-.32.2a1,1,0,0,1,.37-.75c.33-.26,0-.85.21-1.2l.12.6a.24.24,0,0,0,.33-.13.58.58,0,0,1,.05.37.3.3,0,0,0-.23.39ZM47.74,125.49a4.92,4.92,0,0,1,1-.57c.48-.19,1,.15,1.39.47-.17,0-.33-.08-.49-.15a1,1,0,0,0-1.29.63c-.22-.12-.43-.25-.64-.38Zm38-24.07a2.24,2.24,0,0,0,.76-.8c.31,0,.55-.25.76-.48A5.17,5.17,0,0,1,88.77,99c0,.07,0,.14-.11.19l-2.57,2.18c-.11.1-.3.19-.39.07ZM86.93,89.2c-.58.82-1.18,1.62-1.81,2.4a.72.72,0,0,1-.25.21c-.11,0-.25,0-.27-.12.89-.56,1.3-1.66,2-2.41.08-.07.2-.15.29-.08ZM68.9,129a.54.54,0,0,0-.78,0l-.26-.26a.87.87,0,0,1,.81-.26,1.87,1.87,0,0,1,.8.36.29.29,0,0,1,.11.11c0,.1,0,.22-.13.27a.58.58,0,0,1-.32,0l-.55-.06.32-.17ZM65.78,85.15,66.87,83l-.36,1.58a1.76,1.76,0,0,1-.5,1.05l0-.47a.36.36,0,0,0-.25,0ZM38.32,81.77c.19.52.38,1,.55,1.57A1.29,1.29,0,0,1,39,84,40,40,0,0,1,37.56,80a10.66,10.66,0,0,1,.76,1.81Zm16.61,7.4c0,.41,0,.83,0,1.24-.07-.06-.16.06-.15.15s.09.17.1.26-.11.2-.17.13c0-1.19-.06-2.38,0-3.56,0-.11.08-.26.17-.21l0,2ZM71.86,131a2.18,2.18,0,0,0-1.59,0,1.42,1.42,0,0,1-.71.18c-.25-.05-.43-.4-.23-.55.28.2.65.05,1,0a2.75,2.75,0,0,1,1.54.37ZM30.3,110.59a.4.4,0,0,0-.31-.38c0-.11.09-.21.21-.2a.48.48,0,0,1,.27.2.91.91,0,0,1,.25.72c-.06.26-.43.43-.6.22a.86.86,0,0,0-.54-.3c0-.14.15-.24.29-.23s.32.08.43,0ZM66.24,130a3,3,0,0,0,1.67-.48l.94.35c0-.18.29-.26.35-.1a.74.74,0,0,1-1.15,0c-.12-.16-.36,0-.5.18a1,1,0,0,1-1.31,0Zm-6.11-44,.12.57-.5-.21a1,1,0,0,1-.09,1.1c-.27.3-.11.91-.48,1.06L59,88.16a.77.77,0,0,0,.42-.59,2.11,2.11,0,0,0,0-.75l.3.14c.1-.37-.29-.85,0-1.12l.15.3c.13.06.26-.09.31-.22ZM79.38,133c0,.26-.44.23-.66.09s-.5-.33-.72-.18c-.41.28-1-.31-1.45-.11a1.68,1.68,0,0,1,.76-.19,4.21,4.21,0,0,1,2.07.39Zm4.51-.24a.57.57,0,0,1,.26-.2c0,.18.27.23.46.25a5.86,5.86,0,0,1,1.6.34,1.33,1.33,0,0,1-1.12,0c-.26-.1-.64-.26-.77,0a.86.86,0,0,1-.43-.43Zm19,15.84a.87.87,0,0,0-1-.41,2.89,2.89,0,0,1-.78-1.92c.12-.11.31,0,.34.19s0,.31,0,.47c.06.42.6.73.49,1.14a.7.7,0,0,1,1,.53Zm-60-18.76.77-.69a.77.77,0,0,1,.41-.23c.16,0,.34.15.28.3a.57.57,0,0,0-.56.44.53.53,0,0,1-.9.18ZM69.7,86.37l.57-1.61a1.65,1.65,0,0,1,.42-.74,34.27,34.27,0,0,1-1.14,3.42,1.75,1.75,0,0,1,.15-1.07ZM88.39,90,87.1,91.52a12.76,12.76,0,0,0-.93,1.16.47.47,0,0,1,.11-.52c.3-.38.76-.66.88-1.12a4.1,4.1,0,0,1,1.23-1ZM79.85,94.1,79,95.47a1.61,1.61,0,0,1-.21.3c-.11.12-.24.21-.35.31a1.76,1.76,0,0,0-.43.58c-.12,0-.06-.22,0-.32l1.9-2.59a.41.41,0,0,1-.08.35Zm-54,2.5a9.81,9.81,0,0,1,2.1,2c.13.16.06.41,0,.61a2.49,2.49,0,0,0-.64-1L25.84,96.6Zm-10.65,38c-.41.52-.5,1.35-1.11,1.61-.26.11-.63.16-.65.44-.13-.3.2-.59.51-.71s.68-.27.73-.59a2.2,2.2,0,0,1,.91-1.47c0,.28-.22.5-.39.72Zm70.17-41-1.71,1.86a.17.17,0,0,1-.26,0l2.34-2.58a1.12,1.12,0,0,1-.37.72Zm-46.72,34a2.89,2.89,0,0,0,1.57-.08l-.8.81c-.21.2-.54.41-.75.21-.09,0-.08-.16,0-.2a.57.57,0,0,1,.26,0,.46.46,0,0,0,.4-.45.58.58,0,0,1-.68-.25ZM52.42,82.29l0,.84a4.28,4.28,0,0,1-.07,1.43,19.05,19.05,0,0,1-.09-4.27l.11,2Zm20,46.05c.63-.19,1.06-.81,1.7-1a.71.71,0,0,1,.83.24,2.83,2.83,0,0,0-2,.75c-.17.12-.47.2-.51,0Zm16.29-39a.48.48,0,0,1,0,.45c0-.25-.35-.45-.25-.68s.61,0,.78-.25a5.51,5.51,0,0,1,1-1,4.34,4.34,0,0,1-.59,1,1.34,1.34,0,0,1-1,.51ZM6,125.72l2.19.16.81.06c.06.12-.14.2-.27.19A7,7,0,0,1,6,125.72ZM82,88.52c.5-.7,1-1.4,1.49-2.09a5.58,5.58,0,0,1-1.6,2.47c-.06-.13,0-.27.11-.38ZM37.1,133a.85.85,0,0,0-.74.56.51.51,0,0,0-.4-.08c-.11-.13,0-.34.16-.41s.33-.06.5-.12.3-.23.24-.38a.37.37,0,0,1,.18-.45,1.12,1.12,0,0,1,.51-.11,2.8,2.8,0,0,0-.46.3.39.39,0,0,0-.09.5c.15.17.54.22.46.44h-.32a.34.34,0,0,1,0-.24ZM74,130.9c.24.06.47-.08.7-.1s.53.24.37.42a.88.88,0,0,0-.58-.22c-.21,0-.4.29-.26.45s.29.11.45.14.34.19.23.32-.13.07-.2.08-.44,0-.57-.14.05-.68-.14-.95ZM49.43,88.5l.09,1.6.08,1.44-.51-3,.34,0Zm51,24.08-2.31.77c-.24.07-.54.13-.7-.06l1.16-.36a5.37,5.37,0,0,1,1.85-.35ZM89.68,137.79a9.26,9.26,0,0,0,.6,1c.1.14.28.29.41.17a.44.44,0,0,1,.69.2,1.75,1.75,0,0,1-1.87-1,.49.49,0,0,1,0-.26c0-.09.13-.16.21-.12ZM50.62,79.1A16.89,16.89,0,0,1,51,82.71a2.06,2.06,0,0,1-.1.75l0-.77-.22-3.59ZM23.5,137.7a.81.81,0,0,0,.64-.47c.09-.18.1-.4.18-.59s.24-.38.44-.36a5.46,5.46,0,0,0-.5,1.59,2.15,2.15,0,0,1-.56.12.72.72,0,0,0-.2-.29Zm8.91-44.45c-.1-.13-.18-.26-.27-.4L30.85,90.9a1.44,1.44,0,0,1-.3-.8l.7,1.07,1,1.61a.52.52,0,0,1,.11.47Zm74.07,27.22a1.22,1.22,0,0,0-1.09-.35,3.81,3.81,0,0,0-.57.19,2.83,2.83,0,0,1-1.58.07,3.22,3.22,0,0,0,1.69-.42c.23-.12.54.11.76,0a.45.45,0,0,1,.5.08,1.51,1.51,0,0,1,.29.45Zm-94.42-5.91a.71.71,0,0,0-.74-.27,1.06,1.06,0,0,1-.63-.09l-1.81-.69a4.5,4.5,0,0,1,1.8.44c.3.15.67.32.93.12a.69.69,0,0,1,.45.49Zm-1.28,34.28a18.76,18.76,0,0,1,1.16-1.94c.13-.18.28-.38.5-.39a14.15,14.15,0,0,1-1.07,1.69,7.1,7.1,0,0,1-.59.64Zm57.63-14.6a.63.63,0,0,0-.57-.39c-.2,0-.51,0-.5-.17s.24-.17.4-.14a3.76,3.76,0,0,1,1.46.56,3.54,3.54,0,0,1-.79.14ZM89.3,107.65a4,4,0,0,1,1.63-1.2c.22-.1.47-.18.57-.4.15.16-.06.39-.24.49l-2,1.11ZM72.41,130.9a3.45,3.45,0,0,0-1.08-.59c-.16-.06-.39-.06-.43.1-.14-.12,0-.37.13-.44a.79.79,0,0,1,.54.05,1.86,1.86,0,0,1,.6.29.64.64,0,0,1,.24.59Zm30.13-11.67-2.52.34a.26.26,0,0,1-.26-.13,7.65,7.65,0,0,1,2.48-.31c.11,0,.24,0,.3.1ZM12,138.6a.73.73,0,0,1-.45,1,4.73,4.73,0,0,1-1.08,1.65l1-1.78.24-.12.34-.75Zm80.27-11.25a4.66,4.66,0,0,0,1.18-.59.72.72,0,0,0,.25.66l-1,.16c-.2,0-.51,0-.48-.23Zm-70.89,2.16c-.23.57-1.1.75-1.19,1.36l-.41.07c.19-.48.45-1,.95-1.14a1.67,1.67,0,0,0,.65-.29ZM9.5,149.69a1,1,0,0,1-.19.45l-.86,1.32c-.11.17-.29.35-.47.28l.45-.71a4.34,4.34,0,0,1,1.07-1.34Zm60.09-22.13.76.07a.45.45,0,0,0-.37-.5.44.44,0,0,0-.45.42,1.21,1.21,0,0,0-.25-.84,1.33,1.33,0,0,1,1.33,1,.82.82,0,0,1-1-.14ZM71,87.49a1.07,1.07,0,0,1,.1-.65l.64-1.77a1.21,1.21,0,0,1,.41-.64,1.6,1.6,0,0,1-.31.89.89.89,0,0,0-.26.46A3.46,3.46,0,0,1,71,87.49ZM40.2,83.05a1.34,1.34,0,0,1,.48.84,4.41,4.41,0,0,0,.84,2,.44.44,0,0,1-.52-.19,1.44,1.44,0,0,1-.17-.58,8.34,8.34,0,0,0-.63-2.12Zm64.88,31.07-1.37.31a10.17,10.17,0,0,1-1.34.24,11.38,11.38,0,0,1,2.92-.79c.07.1-.09.21-.21.24ZM11.44,134.93a.45.45,0,0,0-.38-.39.44.44,0,0,0-.47.29l-.42,1.2a6,6,0,0,1,.15-1.34c.09-.4.68-.45,1-.23a.36.36,0,0,1,.08.47Zm94.21,17.86a2.55,2.55,0,0,1-1.07-1.52,1.12,1.12,0,0,0-.32-.71c.32,0,.47.38.57.68a8.52,8.52,0,0,0,.82,1.55ZM28.47,100.92l1.39,1.43c.08.08.16.2.1.3a15.49,15.49,0,0,1-1.88-1.83c.09-.13.29,0,.39.1Zm-16.76-.52v.29A12.14,12.14,0,0,1,9.23,99l1.13.66c.44.26.89.52,1.35.74Zm51.84,27.25a1.48,1.48,0,0,1-.57.19.51.51,0,0,1-.51-.24.41.41,0,0,0-.41-.23c0-.18.27-.22.44-.14s.35.21.52.13a.39.39,0,0,1,.53.29Zm-11-2.38a2.25,2.25,0,0,1-1.49.12,1.79,1.79,0,0,1-.72-.35.78.78,0,0,1,.4,0l1.81.24Zm-48,30.49a.83.83,0,0,0,.19.52,1.15,1.15,0,0,0,.75-.37c.15-.17.27-.41.5-.44a1,1,0,0,1-.9.86c-.15,0-.23.19-.31.32s-.33.2-.36,0c0-.31.08-.62.13-.93Zm90.25-15v-.51a1,1,0,0,0,.44.52c.22.09.54-.06.51-.29.12,0,.08.21,0,.33a.61.61,0,0,0,.1.58c-.33.06-.48-.61-.8-.51a.84.84,0,0,1-1-.56,3.2,3.2,0,0,0,.76.44Zm-77.14.46a1.6,1.6,0,0,0,.68-.79,1.11,1.11,0,0,1,1.1-.68.21.21,0,0,0-.06.22,1.11,1.11,0,0,0-1,1.3l-.72-.05Zm6.26-8.06a.39.39,0,0,1,.24-.51.21.21,0,0,0,.29.16,1,1,0,0,1,.9-.6.7.7,0,0,1,0,.38l-1.45.57Zm-10.6-3.51,0,.34c-.52,0-1,0-1.56.07a.52.52,0,0,0,.24-.27c0-.12-.07-.28-.19-.24a1.1,1.1,0,0,1,.51-.05l-.13.26c.5.29,1.13-.39,1.69-.22a.59.59,0,0,1-.54.11Zm60.06-.14c-.11.23-.45.11-.68,0a1.41,1.41,0,0,0-.73-.1c-.1-.12,0-.31.14-.36a.67.67,0,0,1,.44,0,1.57,1.57,0,0,1,.83.42Zm28.27-9.64h.47l-.22.8a.81.81,0,0,1-1,.17.3.3,0,0,0,.15-.32l.75.07a.66.66,0,0,0-.11-.71Zm-50.5,6.76c-.06-.09.09-.17.19-.17l1.29,0a2,2,0,0,1,.49,0c0,.24-.3.33-.54.31l-1.43-.11Zm-21.84,4.25a1.26,1.26,0,0,0,.94-.67c.16.08.35,0,.51-.11s.42-.08.47.1l-1.42.69c-.16.08-.39.14-.5,0Zm13.5-.51a.57.57,0,0,0-.69,0c-.32.22-.75-.33-1.1-.16-.11.05-.25.16-.32.07,0-.26.36-.32.62-.29l1.48.18a.16.16,0,0,1,0,.22ZM12.52,105.07l.44-.44a1.56,1.56,0,0,1,0,.48,1.23,1.23,0,0,0,.81-.56,1,1,0,0,0,.54.32,1.7,1.7,0,0,0-1.17.55,1.22,1.22,0,0,0-.66-.35Zm36,25.09c.12,0,.16.17.09.26s-.19.15-.26.25a.29.29,0,0,0,0,.34.62.62,0,0,0-.46.16.56.56,0,0,1-.47.12c-.16-.06-.18-.35,0-.37a1.35,1.35,0,0,0,1.09-.76Zm-16.45,2.69A.26.26,0,0,1,32,133c-.14.06-.31-.13-.43,0l1.39-1.73-.83,1.63ZM56.38,82.07a.15.15,0,0,1-.16,0,4.5,4.5,0,0,1,.18-2.42l0,1.91c0,.09,0,.21.09.25a.21.21,0,0,0-.08.23Zm16.54-.14A.81.81,0,0,1,73,81.6l.17-.17c.35-.38.21-1.13.68-1.35l-1.18,3,.22-1.18ZM31.09,97.32,29.35,95.1c-.06-.08-.12-.18-.05-.25l1,1.19a2.67,2.67,0,0,1,.75,1.28ZM17.64,113.59a.32.32,0,0,0,.09.25c-.5.2-1-.33-1.52-.43-.31-.06-.69,0-.88-.25a2.24,2.24,0,0,1,1.2.18c.36.16.75.41,1.11.25ZM69.23,74.77a4,4,0,0,0-.61,1.82.54.54,0,0,1-.31.46A25.49,25.49,0,0,1,69,74.46l.19.31Zm-6.81,56.48c.24.35-.11.85-.53.92a1,1,0,0,1-.68-.17,1.6,1.6,0,0,0,1.21-.75ZM33.06,132a.53.53,0,0,0,.44-.42l.39.19a3.45,3.45,0,0,1-.31.77.54.54,0,0,1-.71.2c0-.11.1-.19.21-.2a.91.91,0,0,0,.33,0,.24.24,0,0,0,0-.39l-.38-.12Zm-22.6-.47-.4.25a1.25,1.25,0,0,0-1.31-.33.71.71,0,0,1,1.12-.17.75.75,0,0,0,.59.25Zm59.45-3.11a.93.93,0,0,0,1.12-.37,1.36,1.36,0,0,1,.5.18.44.44,0,0,1,.18.47.17.17,0,0,1-.12.11c-.2.05-.16-.34-.33-.45s-.44.28-.71.28-.4-.14-.46,0l-.18-.24Zm-58.4,5.17a.37.37,0,0,1,0-.45.64.64,0,0,0,.19.35c.1.08.3,0,.32-.09a.38.38,0,0,1,.67-.1.13.13,0,0,1-.09.17c0-.19-.36-.12-.43.06s0,.4-.1.58l-.6-.52Zm30.68-7.37c-.4,0-.69.59-1,.43A1.28,1.28,0,0,1,42.3,126h.55a.39.39,0,0,1-.42.28l-.24,0Zm-21,15.19a4.63,4.63,0,0,1,1.14-1.88.6.6,0,0,1,.07.39l-.31,0a2.54,2.54,0,0,1-.9,1.54ZM68.61,90l-.48,1.13a.44.44,0,0,1-.13.2.26.26,0,0,1-.32,0l.79-1.5.14.2Zm35.58,28.47,1.79-.12.79,0c-.49.46-1.36,0-1.93.39a.74.74,0,0,1-.65-.22Zm-39,8.45a.29.29,0,0,1,.16,0,.16.16,0,0,1,0,.18,1.62,1.62,0,0,1-1.65-.37l1.44.15Zm21,7.69a2.07,2.07,0,0,1-1.61-.93,3.49,3.49,0,0,1,1.61.93Zm-22.53-2.15-1-.17a1.29,1.29,0,0,1,1.08-.31c.14.14.24.43.06.49a.32.32,0,0,1-.14,0Zm-52.11-2.93a1.57,1.57,0,0,1-.61,0,1,1,0,0,1-1.4.37l-.11-.5c.09-.08.2.07.26.18a.63.63,0,0,0,1.08-.08,1.58,1.58,0,0,1,.78,0Zm-3.2-23.65a5.22,5.22,0,0,1,2,.8,1.81,1.81,0,0,0,.6.31,1,1,0,0,1-.67-.17l-1.9-.94Zm53.5-20.5a.53.53,0,0,1-.32-.53.4.4,0,0,0,.37.28.33.33,0,0,0,.3-.33.27.27,0,0,0-.38-.2,1.28,1.28,0,0,0,.5-.71,4.32,4.32,0,0,1,0,1.39.46.46,0,0,0-.45.1Zm4.3-12.19L66,75.1c0,.23-.09.51-.31.59a11,11,0,0,1,.51-2.54ZM50,129.12a.62.62,0,0,1,.95.26c0,.14.24.16.38.11a.88.88,0,0,1,.42-.11.69.69,0,0,1-1,.14,1.58,1.58,0,0,0-.74-.4Zm-32-20.4V109l-1-.37-.31-.36a1.12,1.12,0,0,1,1,.29l.26.18Zm51.89,21.2,0-.19c.25-.08.4-.33.61-.49s.6-.15.64.11a.38.38,0,0,1-.31.1.46.46,0,0,0-.31.06c-.09.07-.09.25,0,.27a.71.71,0,0,1-.61.14Zm29.43-14.33a.7.7,0,0,1,.69-.27c0-.19.24-.26.42-.29l1.33-.16c0,.15-.16.23-.31.24a7.75,7.75,0,0,0-2.13.48ZM11,126.11a9.52,9.52,0,0,1-1.6-.15l1.22-.19c.33,0,.8,0,.85.33a.24.24,0,0,1-.32-.25.21.21,0,0,0-.25,0l.1.25Zm84.47-5.59a3.47,3.47,0,0,1,1.53-.77.41.41,0,0,1,.19,0,.16.16,0,0,1,.1.17,1.48,1.48,0,0,1-.79.25,3.39,3.39,0,0,0-1,.35Zm-71.5-16.33,1.33.8.29.18a3.78,3.78,0,0,1-.94-.22c-.35-.13-.72-.4-.68-.76Zm55.28,6.09-.31.89,1.58,4a11.33,11.33,0,0,1-3.46,3.5c-.78.5.2,1.61,1,2A19.34,19.34,0,0,1,84,124.4c1.36,1.34,2.78,3.12,4.67,2.91a3.91,3.91,0,0,0,3,2.51l-1.15-.43c.1,1.32,1.64,1.91,2.8,2.55a13,13,0,0,1,3.64,3.38,59.25,59.25,0,0,1,10.27,18.93,26.28,26.28,0,0,0-4.06-7.28c.36,1.11.72,2.23,1.09,3.34a26.85,26.85,0,0,0-6-8.93c-1.11-1.12-2.21-2.25-3.32-3.38l-3.14-3.8,1.1,2.11L90.49,135c-.11.43.77.33.75-.11s-.5-.69-.91-.85l-3-1.16a4.35,4.35,0,0,1,2.37,2.9,21.2,21.2,0,0,0-7.42-5.39,6.08,6.08,0,0,0,3.19-.24,6.46,6.46,0,0,1-3.22-2l2.21,1a3.55,3.55,0,0,0-3.06-1.73l.7,1.36c-.48-1.21-2.12-1.32-3.42-1.22l-2.77.2,4.33-.61-1.62-.56a3.61,3.61,0,0,1-3.32-.14,3.46,3.46,0,0,0,2.54-.57,2.12,2.12,0,0,0-2.52-.8l1.28.74L74,125a2.56,2.56,0,0,1-2.34.67l3.19.78a3.71,3.71,0,0,1-3.65,0l1.59-.09a5.15,5.15,0,0,1-3.39-2.27,3.82,3.82,0,0,0,3.16,1,7.22,7.22,0,0,0-6.57-.9c-.27-.32.5-.66.66-.27s-.27.8-.69.81a2.84,2.84,0,0,1-1.18-.39,4.05,4.05,0,0,0-3.75.3,13.76,13.76,0,0,1,5.56,1.4,4.46,4.46,0,0,0-4.44.54c-.37,0-.29-.72.06-.67l-8.89-.33c-.28.3.57.49.61.08s-.41-.68-.79-.84a8.9,8.9,0,0,0-3.4-.9,3,3,0,0,0-2.82,1.74L41.38,128A32.32,32.32,0,0,1,51,123.11l-2.11.11a1.66,1.66,0,0,1,1.34-.44c-.52-.73-1.66-.3-2.45.14s-2,.72-2.38-.11a.8.8,0,0,0,.17,1.18c-1.71-1.16-3.91.45-5.34,2l1.83-2.62-2.41.64a16.34,16.34,0,0,0-2.86,4.8l.11-1.3a6.63,6.63,0,0,1-5,2.86,1,1,0,0,1-.31,1.58c.3.29.5-.57.09-.62s-.7.39-.93.74-.66.72-1,.49a5.23,5.23,0,0,0,2.12-3.27,1.8,1.8,0,0,0-1.23.11l5.24-3.29-2.32,2.66c-.21.24-.41.62-.18.84a9.34,9.34,0,0,0,4.47-4.15c.17-.32-.23-.89-.31-.54l1.37-.43-3.42-.18a44.3,44.3,0,0,1-8.08,6.21,7.27,7.27,0,0,0,2.5,1.18,3.42,3.42,0,0,0-2.3,2.59l2.21-1.36-.37,1a1.89,1.89,0,0,1-.6,1,.66.66,0,0,1-1-.19c-.14-.36.48-.74.65-.39l-2,.81a1.92,1.92,0,0,0,.71-1.48l-2.67,1.15A3.45,3.45,0,0,0,25.82,132a1.36,1.36,0,0,1,.28,1.41,2.41,2.41,0,0,0,2.37-2,2.53,2.53,0,0,1-1.9,1,2.51,2.51,0,0,0,1.26-1.4l-2.15.73,3.22-2.93c-4.42.76-5.68,7-9.76,8.85-.79.36-1.76,1.47-.95,1.79a9.88,9.88,0,0,0-4.63,5.87l.95-3.06-2.25,3.06,4.69-7.2a41.77,41.77,0,0,0-6.43,9.31L11,145a58.42,58.42,0,0,0-4.88,9.79A36.35,36.35,0,0,0,7.53,150l-2.39,5a39.31,39.31,0,0,1,4.55-10.52l-1.1.91q2.43-3.81,4.69-7.72l-.54,1.81a61.14,61.14,0,0,1,15.71-15.35l-.91,1.16,5.59-3.84-1.83,1.44a13.11,13.11,0,0,0,5.54-3.86l-5.38-2.68c-1.6.35-1.61-3.32-3.23-3.11l.75,1.19-1.22-1.19a.75.75,0,1,1,.81-1.14L28,110.58,30.58,112l.87-1.12L34.67,113l-1.13-1.72,2.31,1.63a21,21,0,0,1,4.7-1.9.8.8,0,0,0-1.32.08l.91-4.75L41,107a.78.78,0,0,1,0-1c.3-.25.85.24.55.49A11.56,11.56,0,0,0,42,99.82l2.51,2.42,1.79-.36-.49-1.49a5.45,5.45,0,0,1,1.5,2.66,1.86,1.86,0,0,0,1.42-2l.61,1.12a4,4,0,0,0,3.68-1c.36-.34.75-.8,1.23-.69s.18,1.1-.15.74a6.78,6.78,0,0,0,.75-3.22l.42,1.4.61-1.47A2.4,2.4,0,0,0,57,100l.22-2.41c-.11.71,1.23.35,1.24-.37l.08,2a30.17,30.17,0,0,0,2.2-5.48,3.65,3.65,0,0,1,.75,4,1,1,0,0,0,1.3,0l0,1.62,1-1-.35,1.25c.78.14,1.79.68,1.49,1.41l1-1.54c.35,1.5,1.82,2.42,3.16,3.17L71.59,104a2.86,2.86,0,0,0,2.64.14,3,3,0,0,0,3.62,0,3.12,3.12,0,0,1-1,1.82l2.71,2.46A3,3,0,0,0,78,110a.83.83,0,0,1,1.2.24Zm-22.57-6.62.3-.07a.54.54,0,0,0,.27-.11.19.19,0,0,0,0-.27h-.82a.39.39,0,0,0-.33.12c-.07.12,0,.28.16.33a.72.72,0,0,0,.41,0ZM61.07,95l-.11-.5a.31.31,0,0,0-.25,0L60.8,96a.32.32,0,0,1-.1.31c-.17.11,0,.41.23.36a.56.56,0,0,0,.34-.47,2.72,2.72,0,0,0,0-1.33l-.17.07ZM18.12,136.66c-.15.14-.31.34-.22.53a1.8,1.8,0,0,0,1.05-.55.48.48,0,0,1,.7.05.33.33,0,0,0,.49.19.92.92,0,0,0,.38-.48,1,1,0,0,1,.36-.49c.16-.1.37-.11.52-.22s.13-.42-.06-.42a.56.56,0,0,0-.22.13c-.08,0-.21,0-.21-.06l1.08-.82a.58.58,0,0,0,.21-.23,4.13,4.13,0,0,1,2-2.27c.13-.07.06-.3-.08-.35a.54.54,0,0,0-.42.09,11.47,11.47,0,0,0-3,2.61.15.15,0,0,0-.05.12c0,.06.09.08.15.08.48,0,.82-.45,1.1-.84.14,0,.16.25.07.37a.76.76,0,0,1-.36.24,3.1,3.1,0,0,0-1.67,2.24c-.21-.08-.16-.4,0-.59s.26-.45.12-.62l-.71.36a4.65,4.65,0,0,0-1.15.93Zm71.6-3.87c.27.05.43.31.61.52s.5.38.72.2a2.7,2.7,0,0,0-1.85-1.18c-.46-.06-.83-.64-1.28-.48s-.84-.25-1.19-.56a3.43,3.43,0,0,0-1.57-.78.42.42,0,0,0-.33,0c-.1.07-.09.25,0,.27a1.29,1.29,0,0,1,.88.64c.08.14.29.14.45.17a1.83,1.83,0,0,1,.49.23l1.14.73c.11.07.25.15.36.07s.52.14.81.2.5-.11.74-.06Zm-11-19.67a2,2,0,0,1-.64-1.06c0-.2-.11-.48-.33-.48s-.25.13-.27.27a.82.82,0,0,0,.08.4l1.07,3c0,.13.11.27.24.31s.34-.19.32-.39a3.13,3.13,0,0,0-.23-.54.42.42,0,0,1,.09-.53.25.25,0,0,0,0-.41.26.26,0,0,0-.39.14l-.37-.47a.38.38,0,0,0,.41-.24ZM42,110.88a1.59,1.59,0,0,0,.27-.45,7.74,7.74,0,0,0,.55-1.62c-.13-.17-.41,0-.49.18s-.09.43-.24.58-.48.26-.39.46-.14.56-.4.72-.57.34-.56.64c.19.19.51,0,.73-.09a2,2,0,0,0,.53-.42Zm10.8-6.81c-.35.13-.87,0-1,.36.09.29.71-.09.83.2,0,.12.23.07.34,0l.77-.46c0,.08.16,0,.23,0,.27-.18.57-.5.4-.79s-.61-.18-.85,0-.41.54-.72.65Zm-2.27,1.18c0-.27.37-.38.62-.31a1.81,1.81,0,0,0,.78.18v-.25c-.21.13-.51-.15-.41-.37l-.75,0a16.11,16.11,0,0,0-1.66.69c-.14.06-.29.18-.25.31l.36.2a1,1,0,0,1,.38-.31.48.48,0,0,0,.92-.18Zm19.52,1.18a1.35,1.35,0,0,0-.77-.31,3.22,3.22,0,0,0,.59,1.74.5.5,0,0,0,.35.25c.14,0,.29-.17.2-.28l-.34,0a1.47,1.47,0,0,0-.26-1.1.3.3,0,0,0,.23-.28ZM26.64,126a.7.7,0,0,0,.36-.45,11.12,11.12,0,0,0-2.31,1.4c-.13.1-.27.23-.25.39a.58.58,0,0,0,.49-.15L26.64,126Zm49.78-11.44-1.59-.73-.09,0c-.14,0,0,.24.07.33.28.22.47.55.78.73s.82,0,.83-.31ZM69,105.74l-.77,0a8.6,8.6,0,0,0,.19,1.13.51.51,0,0,0,.12.23c.14.11.38,0,.41-.21a.78.78,0,0,0-.14-.53.2.2,0,0,1,.13-.26.58.58,0,0,1,.32,0,.15.15,0,0,0,0-.24.45.45,0,0,0-.28-.09Zm15.45,19.13c-.52-.41-1-.79-1.6-1.16a.38.38,0,0,0-.25-.11c-.09,0-.18.1-.14.19a7.82,7.82,0,0,0,1.39,1c.19.11.45.2.6.05Zm-66.23,12.5a.66.66,0,0,0-.74.23,1.91,1.91,0,0,0-.3.77.31.31,0,0,0,0,.19c.08.18.36.06.44-.11s.07-.39.21-.52a1.27,1.27,0,0,1,.35-.17c.12-.06.22-.21.15-.32a.18.18,0,0,0-.1-.07Zm29.56-14.6c.1-.11,0-.27-.19-.31a1.16,1.16,0,0,0-1.34.51,2,2,0,0,0,1.45-.14.24.24,0,0,0,.08-.06ZM77,117.9a4.78,4.78,0,0,0-.6-1.76c-.12-.2-.34-.42-.55-.32l1,2a.12.12,0,0,0,.19.06ZM44.26,107.39a1.16,1.16,0,0,0-.8.47A3.2,3.2,0,0,0,43,109c.19.14.44-.1.48-.34s0-.5.22-.65a.76.76,0,0,1,.36-.11.46.46,0,0,0,.33-.18c.07-.11,0-.29-.13-.28Zm26.66-.65a.56.56,0,0,0-.24-.1.35.35,0,0,0-.31.24,1.22,1.22,0,0,0-.13.62c.12-.19.4-.16.62-.15s.52-.12.47-.34-.25-.2-.41-.27Zm-12-3.48c0-.18-.3-.24-.41-.1a.33.33,0,0,0,.13.46.54.54,0,0,0,.52-.06,1.41,1.41,0,0,0,.38-.39l.41-.54c-.31-.13-.59.22-.72.52a.43.43,0,0,1-.13.19c-.07,0-.18,0-.18-.08Zm4.68.62a.49.49,0,0,0-.51-.44.79.79,0,0,0-.64-.38.22.22,0,0,0-.14,0c-.09.08,0,.23.11.31l.44.35c.21.17.55.34.74.13Zm-50.93,39a.28.28,0,0,0,.09-.13.13.13,0,0,0,0-.14c-.16-.17-.43.06-.54.27a4.85,4.85,0,0,0-.3.91c.19.13.45-.06.54-.28a2.18,2.18,0,0,1,.25-.63Zm58.63-34.31a2.44,2.44,0,0,0,1.1.16.24.24,0,0,0-.21-.38,1.57,1.57,0,0,1-1.1-.2.51.51,0,0,0,.11.69l.1-.27ZM38.82,113.9l1.08-.57c.19-.1.4-.35.23-.49-.56.31-1.12.65-1.66,1,0,.15.23.13.35.06Zm36.36-.45.19-.24a4.62,4.62,0,0,1-1-1.33.24.24,0,0,0-.17.28.68.68,0,0,0,.17.31l.76,1ZM31,115.53a1.09,1.09,0,0,0,.21-.72,1.75,1.75,0,0,0-.73-.49.8.8,0,0,0-.13.47c.11.07.25-.08.38-.06s.16.22.13.36-.1.29,0,.41a.15.15,0,0,0,.17,0Zm37.18-12.2c-.12.11,0,.33.14.34a.32.32,0,0,0,.31-.29.75.75,0,0,0-.12-.44c-.1-.18-.34-.36-.48-.21s0,.35.12.48l0,.12ZM33.6,116.53a.6.6,0,0,0,.79-.38c.06-.22,0-.45,0-.67-.14-.06-.3.07-.34.21a.87.87,0,0,0,0,.45c-.23,0-.51.15-.52.39ZM77,114.17a.45.45,0,0,0,.12.2c.16.12.4-.05.42-.25a.77.77,0,0,0-.22-.53c-.11-.12-.33,0-.38.12a.68.68,0,0,0,.06.46Zm.52,1.41a.39.39,0,0,0,.58.27.39.39,0,0,0-.06-.64.39.39,0,0,0-.52.37Zm-41.72-2.2-.44-.3a.21.21,0,0,0-.13,0,.16.16,0,0,0-.14.19.46.46,0,0,0,.14.22,2.28,2.28,0,0,0,.5.38.32.32,0,0,0,.19.05.2.2,0,0,0,.1-.26.54.54,0,0,0-.22-.23Zm26-9.26c.05.06.1.12.17.12s.18-.25.09-.4a1.27,1.27,0,0,0-.64-.55.2.2,0,0,0-.11.18l.49.65Zm-21,6.12a.43.43,0,0,0,0-.56.41.41,0,0,0-.56,0c-.06.06-.09.18,0,.23a.79.79,0,0,0,.61.29ZM13.89,140.88a.19.19,0,0,0,0-.09c0-.13-.2-.1-.3,0a1.6,1.6,0,0,0-.41.52c-.08.15-.05.42.12.38s.1-.07.13-.12l.43-.68ZM95.7,137.8a2.65,2.65,0,0,0,.64,1,.21.21,0,0,0,.17.07,1.05,1.05,0,0,0-.81-1.06Zm-21.13-33c-.22-.13-.58-.17-.65.07s.24.38.47.36a.33.33,0,0,0,.28-.15c.06-.09,0-.25-.12-.24l0,0ZM42.92,123.18a.31.31,0,0,0-.19.16.15.15,0,0,0,0,.17.93.93,0,0,0,1-.43,1.68,1.68,0,0,0-.86.1ZM94.08,136.6a.4.4,0,0,0,.2.11c.1,0,.22-.11.14-.18a1.18,1.18,0,0,0-.75-.74,1.37,1.37,0,0,0,.41.81ZM32.2,129c.13.07.25.17.38.23a.37.37,0,0,0,.43,0c.1-.1.05-.33-.1-.33a2.07,2.07,0,0,1-.7-.13V129Zm23.69-26.56a.26.26,0,0,0,.12.17.71.71,0,0,0,.59.18.74.74,0,0,0-.26-.55c-.17-.13-.48,0-.45.2Zm41.54,37.17a.84.84,0,0,0,.59.93,1,1,0,0,0-.59-.93ZM11,142.33a.89.89,0,0,0,.2-.4c-.26,0-.46.21-.6.43a.52.52,0,0,0-.1.27c0,.1.1.2.19.17l.32-.47Zm63.11-31.41v.31a.21.21,0,0,0,.19,0,.74.74,0,0,0,0-.83.18.18,0,0,0-.1-.09c-.11,0-.23.09-.22.22a.58.58,0,0,0,.18.32l0,0ZM29.19,128.29c0,.15.26.14.41.09l.31-.12a.23.23,0,0,0,.14-.1.15.15,0,0,0-.11-.2.5.5,0,0,0-.27,0l-.2.06c-.14,0-.31.12-.28.26ZM76,113.86l.24.41h.25v-.81a1.12,1.12,0,0,0-.46.38ZM62.87,100.92a.25.25,0,0,0,0-.26c-.15-.15-.42.1-.35.3s.29.31.49.39a.32.32,0,0,0-.08-.41l0,0Zm-2.8,24.64c-.15,0-.23.21-.13.32a.54.54,0,0,0,.43.11.3.3,0,0,0,.19,0c.11-.08,0-.28-.08-.34a.64.64,0,0,0-.41,0v0ZM29.63,112.23l.21,0a.36.36,0,0,0-.27-.35.9.9,0,0,0-.46,0,.34.34,0,0,0,.5.33l0,0Zm72.72,33.26a.23.23,0,0,0,.32.13,1,1,0,0,0-.42-.8.49.49,0,0,0,.1.65v0ZM73.61,124.44a.44.44,0,0,0,.66-.08.7.7,0,0,0-.7-.2.29.29,0,0,0,0,.31l0,0Zm-6.12-19.29a.47.47,0,0,0,.29.5c.2,0,.41-.25.24-.38a.46.46,0,0,1-.48-.26l-.11.12.06,0ZM77.72,117c0-.26-.08-.61-.34-.59a2.72,2.72,0,0,0,.06.75.15.15,0,0,0,.16,0l.11-.2ZM45.36,105.19a.47.47,0,0,0-.52.44.72.72,0,0,0,.48,0c.14-.09.18-.33,0-.41v0Zm14.7,20c.18,0,.44,0,.43-.19a.86.86,0,0,0-.39-.2.29.29,0,0,0-.33.21l.28.19Zm-22-10.84c-.14,0-.18.24-.06.32a.29.29,0,0,0,.37-.09.73.73,0,0,0,.09-.41.28.28,0,0,0-.38.17Zm-1.62,1.09,0-.2a1.57,1.57,0,0,0-.63-.51.17.17,0,0,0,0,.22,1.44,1.44,0,0,0,.65.49Zm39.09-2.14a.32.32,0,0,0-.12.39.34.34,0,0,0,.37.19.37.37,0,0,0-.22-.56l0,0ZM57.64,102.09a.44.44,0,0,0-.35.11.23.23,0,0,0,0,.33c.18.13.39-.11.47-.31a.23.23,0,0,0,0-.16s-.12,0-.12,0ZM40.5,112.36a.42.42,0,0,0-.24.42.77.77,0,0,0,.62-.52.28.28,0,0,0-.19-.12l-.19.2v0Zm-6.56,2.57a1.92,1.92,0,0,0-.53-.7s-.17-.07-.17,0a.93.93,0,0,0,.7.69Zm39.19-6.34a1,1,0,0,0,.29.54.28.28,0,0,0,.26.09.58.58,0,0,0-.55-.63Zm0-.52-.06-.24c-.15-.15-.48,0-.48.17s.4.27.43.06Zm-9.24-4.13a.54.54,0,0,0,.24-.74.31.31,0,0,0-.28.26.82.82,0,0,0,.05.41v.07ZM33.4,113.17a.32.32,0,0,0,.42.39.22.22,0,0,0,.11-.1.23.23,0,0,0-.16-.27.56.56,0,0,0-.34,0l0,0Zm55.44,18.72a.67.67,0,0,0,.54.24.78.78,0,0,0-.64-.53.19.19,0,0,0,.09.29Zm-13.06-13.1a.24.24,0,1,0,.16.39.25.25,0,0,0-.16-.39Zm-14.7-16a.7.7,0,0,0-.43.34.55.55,0,0,0,.5,0c.15-.1.1-.4-.07-.37Zm13,7.42a.47.47,0,0,0-.26-.73l.11.71.15,0v0Zm25.41,32.39a.55.55,0,0,0,.16.34c.11.08.3,0,.31-.09a.3.3,0,0,0-.08-.17,2.13,2.13,0,0,0-.34-.33l-.07.22,0,0Zm-68-26.89a.2.2,0,0,0,.29-.2.24.24,0,0,0-.33-.17.31.31,0,0,0-.15.36.14.14,0,0,0,.17,0l0,0Zm71.55,30-.28,0a.24.24,0,0,0,0,.2l.5.42a.69.69,0,0,0-.2-.56v0ZM37.35,119.52a.25.25,0,0,0-.41,0,.25.25,0,0,0,.23.34.25.25,0,0,0,.18-.37ZM57.87,99l0,.2a.28.28,0,0,0,.3-.23.73.73,0,0,0-.06-.41.34.34,0,0,0-.26.43Zm31.77,34.46a.49.49,0,0,0,.49.43.74.74,0,0,0-.3-.53c0-.07-.19,0-.17.09Zm-59.51-6.07a.32.32,0,0,0,.38,0,.31.31,0,0,0,.08-.38.41.41,0,0,0-.44.34l0,0ZM16.81,139.86a.42.42,0,0,0,.24-.12.15.15,0,0,0,0-.23.17.17,0,0,0-.12,0,.37.37,0,0,0-.33.17c0,.12.12.28.21.19Zm5.43-10.92a.34.34,0,0,0-.17.25.49.49,0,0,0,.58-.42.29.29,0,0,0-.39.17Zm44-23.57-.24,0a1.35,1.35,0,0,0,.37.73,1.12,1.12,0,0,0-.14-.69v0Zm8.81,19.49c.08,0,.15-.1.09-.17a.58.58,0,0,0-.29-.15c-.11,0-.24.09-.22.2s.25.15.41.11ZM35,116.73c-.08,0-.13.1-.11.2a1.11,1.11,0,0,0,.65,0,.39.39,0,0,0-.52-.17l0,0Zm43-7.79a.25.25,0,0,0,.19.12.45.45,0,0,0,.2-.45.31.31,0,0,0-.39.33Zm-2.5,15.86a.37.37,0,0,0,.32.06.25.25,0,0,0,0-.19.72.72,0,0,0-.51-.12.24.24,0,0,0,0,.2.27.27,0,0,0,.19,0Zm-24.21-1.54a.27.27,0,0,0,0,.34.69.69,0,0,0,.35,0,1.1,1.1,0,0,1-.19-.46l-.21.12,0,0ZM48.51,105.7a.24.24,0,0,0-.24.28.69.69,0,0,0,.52-.12.24.24,0,0,0,0-.2h-.24v0Zm23.94,17.92a.25.25,0,0,0,0,.38.22.22,0,0,0,.33-.16.19.19,0,0,0-.31-.14l0-.08Zm5-15.86a.28.28,0,0,0-.2-.12.8.8,0,0,0-.19.35.25.25,0,0,0,.19.12.4.4,0,0,0,.21-.35ZM100,143.39a.3.3,0,0,0,.38.18.49.49,0,0,0,0-.27.28.28,0,0,0-.33-.09l-.05.19ZM61.49,104.53a.33.33,0,0,0-.45.31.36.36,0,0,0,.47-.28l0,0Zm-1-1.36a.21.21,0,0,0-.24-.27.21.21,0,0,0,0,.37c.11,0,.29,0,.27-.1Zm14.27,3.88a.3.3,0,0,0,.23.43.29.29,0,0,0-.26-.47l0,0ZM55.1,102.54c-.06.13.17.24.28.14a.49.49,0,0,0,.12-.39.43.43,0,0,0-.37.26ZM40.52,123.23a.31.31,0,0,0-.43.18.32.32,0,0,0,.47,0,.2.2,0,0,0,0-.2l0,0Zm28.42-15.71a.34.34,0,0,0,.36.28c.13-.21-.21-.48-.39-.31l0,0ZM9.75,146a.62.62,0,0,0-.16.41.27.27,0,0,0,.32-.15.27.27,0,0,0-.14-.32l0,.06Zm14.39-14.47a.18.18,0,0,0,.23,0l.09-.4a.18.18,0,0,0-.24,0l-.1.39Zm42.62-25.16a.17.17,0,0,0,.28-.13.72.72,0,0,0-.34-.19.22.22,0,0,0,.07.33Zm.88.07.33.16a.3.3,0,0,0-.33-.39.18.18,0,0,0,0,.24Zm-21.5,19.19a.2.2,0,1,0-.34,0,.27.27,0,0,0,.31,0l0,0Zm30.31-10.46a.21.21,0,0,0,.31.17c0-.12,0-.26-.07-.32s-.27,0-.21.14ZM47.25,106h.24a.31.31,0,0,0,0-.23,1,1,0,0,1-.43,0,.26.26,0,0,0,0,.19.26.26,0,0,0,.19,0Zm11.55,19.2c-.14-.13-.39.12-.26.25s.39-.12.26-.25ZM27.48,112.3l0,.19c.15.15.47-.08.36-.27l-.32.1,0,0ZM11.34,143.73a.28.28,0,0,0-.17.3.22.22,0,0,0,.32-.08.22.22,0,0,0-.15-.29v.07Zm35.25-38.1a.22.22,0,0,0,.27.27.31.31,0,0,0,0-.32l-.28,0v0ZM23.26,128.46l.1-.24a.3.3,0,0,0-.41.24.31.31,0,0,0,.32,0ZM19.76,135c.16.14.44-.11.33-.29a.27.27,0,0,0-.3.25l0,0Zm12-22.56a.2.2,0,0,0,.31-.16.26.26,0,0,0-.27-.12.45.45,0,0,0,0,.28Zm55.09,20.31a.21.21,0,0,0-.31-.16.19.19,0,0,0,.08.25.19.19,0,0,0,.25-.07l0,0ZM44,106.86a.58.58,0,0,0-.31.11.39.39,0,0,0,0,.3.69.69,0,0,0,.27-.38v0Zm16.52,17.73a.32.32,0,0,0,.2.12.31.31,0,0,0,.11-.2.26.26,0,0,0-.27-.12.28.28,0,0,0,0,.2Zm-16.2-19.5.2,0,.12-.28c-.14-.1-.38.08-.31.24v0Zm10.75-1a.3.3,0,0,0,0-.36c-.2,0-.25.36,0,.4v0ZM35.63,117.92c.08.11.3,0,.27-.12a.22.22,0,0,0-.26-.12.19.19,0,0,0,0,.24Zm41.93-.44v.24a.34.34,0,0,0,.2,0,.45.45,0,0,0,0-.28.18.18,0,0,0-.23,0Zm18,21.1c-.07.17.17.34.31.24a.3.3,0,0,0-.32-.26v0ZM81.21,127.12c0-.13-.21-.14-.33-.09a.17.17,0,1,0,.32.09ZM31.39,112.58a.16.16,0,0,0,.22.11.42.42,0,0,0,0-.27.27.27,0,0,0-.19,0,.24.24,0,0,0,0,.2Zm19.89-8.25c.13,0,.14-.2.09-.32s-.26.27-.1.33Zm-5.57.91a.12.12,0,0,0,0,.19h.24a.2.2,0,0,0,0-.25l-.2,0v0Zm53.75,36.89a.22.22,0,0,0-.33-.16.19.19,0,0,0,.31.16Zm-87.77-1c-.14-.07-.25.14-.28.29a.25.25,0,0,0,.29-.3ZM77.56,118a.17.17,0,0,0,.24.16V118a.14.14,0,0,0-.24.08Zm-3.34-11.21a.22.22,0,0,0,.33.07c0-.17-.27-.25-.33-.09v0Zm-8.28-2.46a.35.35,0,0,0,.2.12.4.4,0,0,0,0-.28.28.28,0,0,0-.2,0,.24.24,0,0,0,0,.2Zm-8.22-5.77c0-.09,0-.21-.11-.2l-.12.28a.14.14,0,0,0,.24-.08Zm16.46,13.17a.26.26,0,0,0,.08-.42.29.29,0,0,0-.08.36v.06Zm-32.81.31a.16.16,0,0,0-.17-.17.16.16,0,0,0-.14.2.17.17,0,0,0,.26,0Zm-4.75,4.62c0-.09,0-.22-.12-.2l-.11.27a.14.14,0,0,0,.24-.07ZM78.23,126c-.08,0-.13.11-.11.2a.17.17,0,0,0,.23,0c0-.09,0-.23-.11-.18v0Zm10.24,2c0,.06.18,0,.15-.08a.27.27,0,0,0-.27-.12c-.07.07,0,.2.11.17v0Zm-33.2-25c0-.09-.1-.13-.19-.12a.18.18,0,0,0,0,.23c.09,0,.23,0,.19-.11ZM10.09,143.28l0,.2a.38.38,0,0,0,.21,0,.34.34,0,0,0,0-.2.28.28,0,0,0-.2,0Zm27.56-28.74-.2,0a.34.34,0,0,0,0,.2.14.14,0,0,0,.24-.16ZM60.72,97.4a.21.21,0,0,0,0-.19c-.12-.07-.27.15-.16.24l.2,0v0Zm-16,8.76-.2,0a.28.28,0,0,0,0,.2.24.24,0,0,0,.2,0,.25.25,0,0,0,0-.19v0ZM72.24,108l0-.21-.2,0a.16.16,0,0,0,.15.24ZM35.2,115a.24.24,0,0,0,0-.2.29.29,0,0,0-.2,0,.17.17,0,0,0,.24.16Zm13.52-12.53a.19.19,0,0,0-.12.32c.12,0,.13-.16.1-.27l0,0Zm-7.47,6.88c0,.12.27,0,.18-.11s-.27,0-.19.11Zm14.09-5.89a.15.15,0,0,0-.22-.08.24.24,0,0,0,0,.2c.09,0,.23,0,.19-.12Zm10.29.94c-.1-.07-.23.13-.12.19a.14.14,0,0,0,.18,0s0-.15-.07-.14v0Zm16.86,23a.12.12,0,0,0-.2,0c0,.08.06.17.13.19s.15-.13.07-.14ZM65.63,104.2c0-.11-.15-.14-.25-.08a.14.14,0,0,0,.24.08Zm5.28,1c0-.09-.22,0-.22.06a.13.13,0,0,0,.23-.07Zm-4.06-4c-.1,0-.14.14-.08.24s.14-.15.09-.25Zm4.3,6.53c.11.07.23-.14.12-.2s-.12.1-.1.19Zm22.29,24.56c0-.06-.09-.13-.15-.07a.25.25,0,0,0,0,.22l.12-.13,0,0Zm-35.73-33c-.05-.09-.22,0-.22.07a.14.14,0,0,0,.23-.08Zm-25.44,14.7c.1.07.23-.13.12-.2s-.13.1-.11.19Zm65.87,27.14c.11,0,.15-.14.09-.24s-.14.14-.09.24Zm-54-34.33c.11.07.23-.14.13-.2s-.13.1-.11.19ZM34.25,115c0-.09,0-.23-.11-.18s0,.26.12.19Zm43.83,18.53a1.78,1.78,0,0,0,.52-.11,2,2,0,0,0,0,1c0,.11-.25,0-.29-.08s0-.25-.06-.37-.17-.23-.26-.33-.17-.28-.08-.39l.18.27Zm-1.76-.86a11.82,11.82,0,0,1-1.22-.76c.23-.14.52,0,.74.22s.59.27.73,0a.42.42,0,0,1-.25.51ZM45.37,101.67a6,6,0,0,0-.59-.83.39.39,0,0,0,0-.44l.17-.18a2.23,2.23,0,0,1,.43,1.45Zm-5.66,24.27c-.17-.16-.39.15-.62.19s-.38-.17-.59-.22a1.74,1.74,0,0,1,.56-.17c.19-.06.38-.22.35-.41l.3.61Zm35.77,5.49c-.09,0-.14-.15,0-.19a1.76,1.76,0,0,1,1.06-.32c.27,0,.32-.38.27-.64a.59.59,0,0,1-.28.91c-.11,0-.26.05-.3.16a.31.31,0,0,0-.35-.13.91.91,0,0,0-.35.21Zm-26-5.25a1.17,1.17,0,0,1,.8-.13.5.5,0,0,1,.95,0,2.8,2.8,0,0,0-1.55.36l-.2-.2Zm-2-40.08a6,6,0,0,1-.29-1.38,3.57,3.57,0,0,1,0-.8,4.89,4.89,0,0,1,.29,2.18ZM26.72,93.9a4.66,4.66,0,0,1,1.15,1.27l.46.66s-.12,0-.16,0a17.73,17.73,0,0,1-1.45-1.88Zm36.71,35a3.67,3.67,0,0,0-.75.12.43.43,0,0,1,.28-.62.44.44,0,0,1,.47.5Zm-14.62,2.32a.32.32,0,1,1,.56-.32l-.3.64a.24.24,0,0,1-.06.08c-.08.06-.19,0-.22-.1a.43.43,0,0,1,0-.27v0Zm6-40.3a4.13,4.13,0,0,1-.09,1.71,1.68,1.68,0,0,1-.09.32,3.29,3.29,0,0,0-.13-1l.31-1ZM44.67,84.3l-.32-1.44c0-.17-.07-.38.06-.5l.51,2.37c-.16-.07-.21-.26-.25-.43ZM77.22,98a.44.44,0,0,1-.22.26.49.49,0,0,1-.35-.06l1.16-1.39L77.22,98Zm20.41,25.08a.18.18,0,0,0-.06.22.51.51,0,0,0,.72,0,14.61,14.61,0,0,0,1.48,0,5.23,5.23,0,0,1-2.26.16l-.1-.53a.17.17,0,0,1,.22.09ZM34.12,95.86a1.27,1.27,0,0,0,.69.44.72.72,0,0,0,.16.78c.17.23.39.47.37.75a1.78,1.78,0,0,1-.71-1.22c0-.31-.55-.44-.51-.75ZM82.3,89.94a.57.57,0,0,0,.83-.32c.06-.19.1-.49.3-.47a2.15,2.15,0,0,1-.28.83.78.78,0,0,1-.75.38l-.1-.42Zm5.55,18.13a3.46,3.46,0,0,1,1.34-.39,3.55,3.55,0,0,0-1.19.95c-.1,0-.08-.17,0-.24s.2-.15.15-.25l-.3-.07Zm5.49,30.77-.84-.7a.34.34,0,0,0,.42-.12.94.94,0,0,0,.13-.44l.16.45c-.18,0-.16.3,0,.4s.36.1.49.23a.52.52,0,0,0-.35.18Zm-83,9.64a3.09,3.09,0,0,0-.68,1.14.4.4,0,0,0-.64-.24.23.23,0,0,1,0-.24,1,1,0,0,1,.7.07.77.77,0,0,1,.67-.73Zm3.53-2.54a7.64,7.64,0,0,0-1.08,1l-.2-.12,1.17-1.12.11.27ZM91.23,96.83c.22-.48.84-.63,1.15-1,.13-.17.27-.42.48-.38s-.06.3-.19.4l-1.44,1Zm-66.56,3.69a9.06,9.06,0,0,1-1.22-1.18,9.83,9.83,0,0,1,1.68,1.33.5.5,0,0,1-.46-.15Zm33.08-6,.09.87a2,2,0,0,1,0,.74,1,1,0,0,1-.27-.74,1.12,1.12,0,0,1,.19-.87Zm-42,48.81a.44.44,0,0,1,.31-.37l0,.25c0,.28-.14.62-.42.68a1.74,1.74,0,0,1-.27.85v-.67a1.15,1.15,0,0,0,.43-.74Zm-9.49,6.29-.32,1.3a.7.7,0,0,1-.15.34.25.25,0,0,1-.34.06l.5-.8a.72.72,0,0,1,.31-.9Zm101.84-22.3-2.71.11a.27.27,0,0,1-.25-.07,12.74,12.74,0,0,1,3,0ZM97.91,119.8a.29.29,0,0,0-.23.25.78.78,0,0,1-.37,0,.81.81,0,0,1,1.08-.15,1.81,1.81,0,0,1-.14.61.5.5,0,0,0-.3-.3.74.74,0,0,0,0-.36ZM20.34,140a1.84,1.84,0,0,1-.57.38.6.6,0,0,1,0,.69.88.88,0,0,1-.64.33c.12-.18.32-.28.46-.45s.2-.44,0-.56a.9.9,0,0,1,.76-.39Zm43.78-13.49-.91-.1-.11-.28a11.26,11.26,0,0,1,1.3.16c.1.12-.13.23-.28.22Zm-21.69,4.26a.31.31,0,0,1,.19.18.69.69,0,0,1-.66.21,2.45,2.45,0,0,1-.68-.26.42.42,0,0,1-.2-.17c0-.08,0-.2.1-.2a.93.93,0,0,0,1.25.24ZM91.56,107.8a2.42,2.42,0,0,1-1.06.72.47.47,0,0,1-.4,0,4.36,4.36,0,0,1,1.46-.73ZM25.05,135.37a.45.45,0,0,1,.26,0,.27.27,0,0,1,.1.17,3.54,3.54,0,0,1-1.29.15c.16-.31.58-.36.93-.37Zm51.56-6.75-.31.6a.57.57,0,0,0-.08.25.56.56,0,0,0,.17.33,1.44,1.44,0,0,1-.62,0,2.8,2.8,0,0,1,.84-1.22ZM72.19,79.93l-.37,1.23a1.33,1.33,0,0,1-.28.57,8,8,0,0,1,.72-2.29,1.17,1.17,0,0,1-.07.49ZM15.41,97.83c.12-.06.27,0,.37.13l1.38,1.2c0,.09-.14.07-.21,0-.53-.43-1-.88-1.54-1.34Zm13.65-3.24-1.47-1.66c-.07-.08-.15-.2-.1-.31a9.58,9.58,0,0,1,1.57,2Zm58.16-5.66a3.65,3.65,0,0,1,.89-1.21.38.38,0,0,1,.26-.13,3.81,3.81,0,0,1-1.15,1.34ZM46.63,132.3a.13.13,0,0,0-.13-.19.85.85,0,0,1,.58-.06c.19.07.29.35.13.47s-.27,0-.41,0l-.46-.18.28-.05v0Zm54.05-15.68a2.5,2.5,0,0,1,1.24-.17l-1.12.32a.15.15,0,0,1-.13,0,.18.18,0,0,1-.06-.09l-.26-.64.53.09a.37.37,0,0,0-.2.48Zm-33,14.81.13-.47a1.69,1.69,0,0,1,1.45.86,4.45,4.45,0,0,1-1.07-.69c-.17-.15-.41.09-.51.3ZM11.06,105.29a2,2,0,0,1,1.7,1,19,19,0,0,0-1.7-1Zm19.8,29.59a1.65,1.65,0,0,0,.49-.87c.06-.24.12-.55.36-.57a1.87,1.87,0,0,0-.28.82,1.18,1.18,0,0,1-.1.54c-.1.16-.36.23-.47.08Zm2.77-47-1-1.69c-.07-.12-.13-.27,0-.38a7.26,7.26,0,0,1,1,2.07Zm-1.91-1.18-.26.07.77,1.45a2.43,2.43,0,0,1-.89-1.53.46.46,0,0,1,.38,0ZM53,128.19c.15.06,0,.28-.11.36a2.79,2.79,0,0,1-1.08.38l1-.68c.06,0,.13-.09.2-.06Zm41.11-21.78c0,.1-.15.13-.25.1s-.2-.09-.3-.05-.14.17-.19.28a.93.93,0,0,1-1.07.53,1.07,1.07,0,0,0,1-1l.77.19Zm-67,5.26a.28.28,0,0,1-.2,0c.07-.23-.16-.44-.39-.52s-.49-.14-.62-.34c.52.07,1.13.21,1.32.7l-.11.2ZM8.61,131.56l-1,.17a1.26,1.26,0,0,1-.28,0c-.13,0-.29-.05-.31-.17a.8.8,0,0,0,.7-.19c.08-.08.21,0,.32,0l.6.17ZM104,115.89a3.89,3.89,0,0,1-1.28.48,1.21,1.21,0,0,1-.5,0,4.27,4.27,0,0,1,1.78-.49Zm-72-31-.84-1.3c-.09-.15-.18-.38,0-.49A8.5,8.5,0,0,1,32,84.85Zm.24,51.1a1,1,0,0,1,.82-.36l.84,0c-.07.25-.43.21-.69.17a1.89,1.89,0,0,0-1,.14Zm4.32-6.65-1,.22a1.14,1.14,0,0,1,1.27-.44c0,.12-.14.19-.27.22ZM11.14,109.84a6.78,6.78,0,0,1-1.57-.43c-.09,0-.18-.17-.08-.2a5.42,5.42,0,0,1,1.65.63Zm92.37,34.32c.14-.07,0-.26-.12-.38a.49.49,0,0,1-.13-.31.79.79,0,0,1,.53.63,4.5,4.5,0,0,0,.22.82,1.72,1.72,0,0,1-.5-.76ZM82.11,98.81l-.44-.19a14.46,14.46,0,0,1,1.46.28,1,1,0,0,1-1,.11l-.06-.2ZM30,91.94a3.74,3.74,0,0,1,1,1.26.35.35,0,0,1,0,.38l-1-1.64Zm40.69-4.08a5.34,5.34,0,0,1-.36,1.48l-.2,0a4.43,4.43,0,0,1,.56-1.52ZM84.13,132a.8.8,0,0,1,.78.05,1.06,1.06,0,0,1,.47.55l-1.25-.6ZM91,102.2a.39.39,0,0,1-.23.07.21.21,0,0,1-.15-.09l1.62-.93a5.52,5.52,0,0,1-1.24,1ZM66.69,134.35c.24,0,.56,0,.6.25a2.07,2.07,0,0,1-1.38-.19,1.63,1.63,0,0,1,.76,0l0-.08Zm2.47-46.72a.3.3,0,0,1,.09-.13.15.15,0,0,1,.19,0A6.6,6.6,0,0,0,69,89.08a2.27,2.27,0,0,1,.16-1.45ZM56.31,86.22l-.05,1.37c0,.17-.09.4-.26.36-.21-.37.3-.81.21-1.23a1.77,1.77,0,0,1-.08-.31c0-.1.08-.22.18-.19Zm33.37,22.69a3.75,3.75,0,0,1-1.15.3c-.07,0-.17-.09-.09-.1,0-.23.34-.27.57-.25l.67,0ZM18,109a3.19,3.19,0,0,1,1.47.07l.31.08c0,.12-.21.12-.34.1L18,109ZM72.94,88.38a5.71,5.71,0,0,1,.65-1.28,2.48,2.48,0,0,1,.19-.26,2.52,2.52,0,0,1-.84,1.54ZM30.13,129.31a2,2,0,0,1-.58.95c-.09.08-.23.16-.33.08a2.82,2.82,0,0,1,.91-1ZM52.05,78l-.12-1.76A1.56,1.56,0,0,1,52,75.4V78Zm53.11,69.41a8.82,8.82,0,0,1,.54,1.17,1,1,0,0,1,.09.57,4.4,4.4,0,0,1-.63-1.74ZM36.92,93c.09.18.42.09.54.26s-.08.39-.28.42c0-.12-.08-.23-.19-.3s-.25-.11-.29-.24.16-.26.22-.14ZM95.05,139.2a2.38,2.38,0,0,1,.28.68.42.42,0,0,1-.29-.53.51.51,0,0,1-.45-.68.94.94,0,0,1,.42.54ZM89.9,87.63A5.72,5.72,0,0,0,91,86.91a2,2,0,0,1-.71,1c0-.08,0-.19-.1-.23a.53.53,0,0,0-.28,0ZM57.56,131c0-.39-.46-.7-.38-1.08,0-.22.26-.36.46-.46a.84.84,0,0,0-.16.87c.09.23.26.51.08.67ZM43.26,84.58a2.33,2.33,0,0,1-.08-.36,1,1,0,0,1,0-.35A5.84,5.84,0,0,1,43.67,86l-.41-1.45Zm49.32,55.86a1.56,1.56,0,0,1,.83,0,.59.59,0,0,1,0,.5,3.09,3.09,0,0,1-.78-.51ZM56.24,79.3a6.86,6.86,0,0,0,0-1.81c0-.09.05-.24.13-.19a3.31,3.31,0,0,1-.18,2Zm10.59,51.87c.13.27.62.29.65.6a.23.23,0,0,1-.08.2,1.32,1.32,0,0,1-.48-.29.43.43,0,0,1-.09-.51ZM23,136.54a2.42,2.42,0,0,1-.92-.25,1.56,1.56,0,0,1,1.25.11c0,.13-.2.15-.33.14ZM7.11,154.23a1,1,0,0,1-.35.88c-.16.19-.38.39-.61.31a4.26,4.26,0,0,0,1-1.19Zm43.1-29.75a1.1,1.1,0,0,1,.89-.18.14.14,0,0,1,.16.16,1,1,0,0,1-1,0Zm-47.36-6a.48.48,0,0,1,.53-.24,1.37,1.37,0,0,1,.77.33l-1.3-.09Zm44.7-32c0-.11.2-.12.26,0a.49.49,0,0,1,0,.34,3.89,3.89,0,0,0,0,1.13,1.21,1.21,0,0,1-.18-1.06.4.4,0,0,0-.11-.39ZM59.49,75.24a2.69,2.69,0,0,1,0-1.59,2.54,2.54,0,0,1,0,1.59Zm26.13,28.28a.26.26,0,0,0-.08-.41l.63-.3a.57.57,0,0,1-.55.71ZM59.94,85.23c0,.12.08.28,0,.34l-.06,0a1.76,1.76,0,0,1-.19-.73.63.63,0,0,1,.38-.6,1.22,1.22,0,0,0-.1,1Zm-40,52.83a.69.69,0,0,1,.25-.2.43.43,0,0,1,.25,0c-.64.21-.8,1.07-1.37,1.43a5.07,5.07,0,0,1,.87-1.23Zm5.13-3.14c0-.11.11-.21.23-.18s.23.1.35.07.17-.13.26-.19.26,0,.26.07a.92.92,0,0,1-1,.31.17.17,0,0,1-.12-.08ZM7.75,147.16l.34-.82a.75.75,0,0,0,.08-.41.22.22,0,0,1,.27,0,2.51,2.51,0,0,1-.69,1.23ZM16,105.35a1,1,0,0,1,.61.18,1.27,1.27,0,0,1-1.29-.38,1.11,1.11,0,0,1,.69.17v0Zm10.22-2a.09.09,0,0,1,0,.09s-.06.08,0,.12a1.3,1.3,0,0,1-.86-.93l.85.72ZM39,84a1.71,1.71,0,0,1,.5,1c0,.13,0,.3-.11.36L39,84Zm41.81,6.27.55-.84a3.21,3.21,0,0,1,.21-.3,2.69,2.69,0,0,1-1,1.58,2.38,2.38,0,0,1,.25-.44ZM37.75,128.06a.76.76,0,0,1,.38-.19.43.43,0,0,1,.45.3,3.91,3.91,0,0,0-1.22.17l.39-.28Zm67-12.14c-.18.06-.45.06-.48-.12a8.58,8.58,0,0,1,1.22-.27c.09,0,0,.15-.09.18l-.65.21ZM38.08,128.61a2.19,2.19,0,0,1-1.24.39,1.18,1.18,0,0,1,.46-.37c.26,0,.52,0,.78,0Zm68.28,25.28c-.17.12-.41,0-.51-.23a1.69,1.69,0,0,0-.31-.54.26.26,0,0,1,.27-.12,1.63,1.63,0,0,0,.55.89Zm-52.25-25.4.76,0a1.68,1.68,0,0,1-1.23.28c0-.2.27-.26.47-.26Zm18.23,5.81a.38.38,0,0,1,.15,0,.16.16,0,0,1,.08.14c-.37.12-.75.22-1.14.32.14-.33.56-.42.91-.47ZM8,136l-.79,0a2.14,2.14,0,0,1-.76,0A1.83,1.83,0,0,1,8,136ZM45.84,124.1a1.18,1.18,0,0,1,1.19-.21,1.76,1.76,0,0,1-1.19.21Zm49.49,18.32a1.29,1.29,0,0,1,1.13.54,1.83,1.83,0,0,1-1.13-.54Zm-22.86-15c.12-.07.26.06.27.2a1.15,1.15,0,0,1-.94-.11.51.51,0,0,1,.67-.11v0Zm-58.14-4a1,1,0,0,1,0-.38.25.25,0,0,0,.36.07.86.86,0,0,0,.25-.31l.2.11a.87.87,0,0,1-.85.51Zm24.55,3.08.44.06a1.18,1.18,0,0,1-1.12.31,2.31,2.31,0,0,1,.68-.35v0Zm-4.34-.74a.54.54,0,0,1,.59-.4,1.64,1.64,0,0,0-.36.87.63.63,0,0,1-.2-.46ZM17.16,140.6a.65.65,0,0,1,.29-.34.57.57,0,0,1-.64.73,1.07,1.07,0,0,1,.34-.39Zm52.62-14.95a7.61,7.61,0,0,1,1.29.61,1.41,1.41,0,0,1-1.29-.61Zm-5.39-52a11.4,11.4,0,0,0-.31,1.84,2.22,2.22,0,0,1,.31-1.84Zm-45.8,64.7a1.93,1.93,0,0,1,1-.66,1.21,1.21,0,0,1-1,.66Zm87.84,12.24c-.12,0-.22-.12-.25-.25l-.27-.94a5.59,5.59,0,0,1,.55.82c.07.12.11.32,0,.37ZM14.69,119.18l.36.11a.92.92,0,0,1-.06.52c0-.34-.61-.3-.77-.6l.47,0v0Zm80.55-25.9a.59.59,0,0,1,.2-.15.34.34,0,0,1,.28,0,13.76,13.76,0,0,0-1.1,1.06,3.52,3.52,0,0,1,.62-.9Zm3.92,27.61.7.2a4.41,4.41,0,0,1-1.31.1l.64-.32,0,0ZM43.89,132a.75.75,0,0,1,.71.61.63.63,0,0,1-.14.5,1.33,1.33,0,0,0-.57-1.11Zm-3.26-5a.28.28,0,0,1,.1-.09c.12,0,.21.13.33.1a1.14,1.14,0,0,1-.86.54l.43-.55ZM12.79,107.8c.28.25.81.09,1,.39a.47.47,0,0,1,.06.2l-.9-.33c-.12,0-.26-.16-.18-.26ZM73.35,90.88a2.55,2.55,0,0,1,.67-1.4,3.7,3.7,0,0,1-.67,1.4Zm-26.22-7a2,2,0,0,1-.21-1.59q.13.8.21,1.59Zm-7.38,45.29a1.16,1.16,0,0,1-.34.39c-.12.08-.37.05-.32-.09a.18.18,0,0,1,.07-.08l.67-.53-.09.3Zm53.06-26.63a10.35,10.35,0,0,1-1.14,1c-.08.06-.2.11-.26,0a6,6,0,0,1,1.4-1ZM31,132.78h.1a.13.13,0,0,1,0,.21c-.13-.17-.39,0-.51.16s-.24.41-.45.37a1,1,0,0,1,.85-.75ZM7.67,119.27c-.09-.11,0-.29.18-.32a.83.83,0,0,1,.42.11,2.51,2.51,0,0,0,.46.16c0,.12-.18.12-.3.07a1,1,0,0,0-.76,0Zm74,10.11a.58.58,0,0,1-.76.09,1.58,1.58,0,0,1,.75-.35.23.23,0,0,1,0,.25ZM32.84,93.73a2.16,2.16,0,0,1,.69,1.19,2.44,2.44,0,0,1-.69-1.19Zm51.25-1.34a.14.14,0,0,1,.11,0,.1.1,0,0,1,.06,0l-.69.93a1.11,1.11,0,0,1,.52-1ZM40.66,124.32a4,4,0,0,1-.85.56.66.66,0,0,1,.85-.56Zm24.51,8.08a.21.21,0,0,1,.12.07.14.14,0,0,1,0,.14.73.73,0,0,1-.85-.14,1.08,1.08,0,0,1,.75-.07Zm22.42,1.75-1,0a.31.31,0,0,1-.28-.26,2.74,2.74,0,0,1,1.25.3Zm-35.84-1.3c-.11.16-.43,0-.42-.16.16.09.33-.06.47-.15s.43-.06.39.11l-.43.2Zm-40-17.28a1.41,1.41,0,0,1-1.22,0,3.18,3.18,0,0,1-.4-.23,4.43,4.43,0,0,0,1.62.19Zm93.72,9.08c0,.09,0,.22-.15.24a.52.52,0,0,1-.32-.07l-.5-.22a1.41,1.41,0,0,1,1,.05Zm-22-35.5a2.39,2.39,0,0,1,.78-1,1.29,1.29,0,0,1-.78,1Zm-43.32-3a.32.32,0,0,0-.34.34,1.23,1.23,0,0,1-.21-.87l.57.49,0,0ZM14.61,145.26a.22.22,0,0,1,0-.35,1,1,0,0,1,.75.32,3.86,3.86,0,0,1-.76,0Zm77.84-39.45a1,1,0,0,1-.6.14,4.89,4.89,0,0,1,1.19-.59,1.19,1.19,0,0,1-.57.49l0,0ZM16.39,144a1.24,1.24,0,0,1,.35-.68l-.2,1c-.14,0-.31,0-.38-.12l.24-.15Zm54.1-9.21h-.41c0-.2.19-.36.39-.32a.9.9,0,0,1,.46.36l-.44-.05ZM61,127l.28.05c.06.06,0,.18-.08.21a.46.46,0,0,1-.26,0l-.69-.17a.6.6,0,0,1,.7,0l0-.06Zm-21.53,4.87-.4.31a.21.21,0,0,1-.08-.28.52.52,0,0,1,.22-.22c.14-.1.39-.18.45,0l-.19.2Zm57.17-19.69a4.35,4.35,0,0,1,1.39-.49,2,2,0,0,1-1.39.49Zm-79.4-9.84a.78.78,0,0,1,0-.34.22.22,0,0,1,.28-.12L18,102c-.14-.07-.27.09-.37.21s-.3.22-.38.1l.07,0ZM72.65,83.06a5.84,5.84,0,0,1-.43,1.28,1.32,1.32,0,0,1,.43-1.28ZM5.3,130l.51.16a.85.85,0,0,1-.83.06c-.09,0-.07-.19,0-.24a.45.45,0,0,1,.3,0ZM63,131.33a1.37,1.37,0,0,1,.61-.69l.22.22-.83.47Zm34.24-10.76q.45,0,.9,0a.52.52,0,0,1,0,.67.58.58,0,0,0-.31-.5,1.59,1.59,0,0,0-.6-.17ZM6.15,135.09a1.4,1.4,0,0,1,.7.12,1.56,1.56,0,0,1-1.06.11.37.37,0,0,1,.37-.18v0Zm29.26.5a.22.22,0,0,1-.14,0,.14.14,0,0,1-.07-.16,1.33,1.33,0,0,1,1-.06,1.42,1.42,0,0,1-.75.24ZM71.09,82.67a1.27,1.27,0,0,1,.28-.65,1.51,1.51,0,0,1-.49,1.2,1,1,0,0,1,.17-.55ZM34.72,135.78a.24.24,0,0,1,.18-.05.08.08,0,0,1,0,0,1.54,1.54,0,0,1-1.14.64l.92-.63Zm15.37-3.19c-.16,0-.37.06-.43-.09.22-.25.62-.17,1-.08a.62.62,0,0,1-.51.19v0Zm6.58-60.25,0,.83a1.91,1.91,0,0,1,0,.48,2.2,2.2,0,0,1-.09-1.41s.08,0,.08.1Zm39.42,49.09a.54.54,0,0,0-.43-.39l.39-.11a.85.85,0,0,0,.87.41l-.83.09Zm-75.71-8a.39.39,0,0,1,.45,0,1,1,0,0,1-.84.22l-.13-.24a.65.65,0,0,1,.51.07v0Zm82.85,11.38a2.59,2.59,0,0,1-1,0c-.13,0-.28-.18-.17-.24.27.31.94-.16,1.13.2ZM86.29,136.34a1,1,0,0,1,.72.6c0,.09.06.2,0,.26l-.71-.86ZM35.9,83.58l-.22-.83a2,2,0,0,1,.51,1.1c-.14.06-.25-.13-.29-.27Zm64.29,33.25a3.11,3.11,0,0,1-1.3.35l0-.18,1.26-.17ZM89.76,98.26a1.31,1.31,0,0,1-.27.19c-.06,0-.18,0-.17,0l1.12-.93a4,4,0,0,1-.68.79ZM42.6,125.44l.91-.5a.7.7,0,0,1-.91.5Zm42.71-23.61a.37.37,0,0,1,.32-.15l-.35.84a.43.43,0,0,1,0-.66l0,0ZM43,129.25a1.79,1.79,0,0,1-1.32.22,3,3,0,0,1,1.32-.22Zm1.58-5a1.77,1.77,0,0,0-1.11.69.56.56,0,0,1,.36-.6,1.57,1.57,0,0,1,.75-.09Zm1.45,8.25c.06.08-.08.19-.17.14a.32.32,0,0,1-.13-.27.82.82,0,0,1,0-.44.28.28,0,0,1,.36-.18.55.55,0,0,0-.08.75Zm49.72,7.12a.68.68,0,0,1,.51.29.73.73,0,0,1-.35.18.64.64,0,0,1-.24-.22.21.21,0,0,1,.07-.28v0Zm3.19-3a.55.55,0,0,1,.46.51,3.86,3.86,0,0,1-.77-.49.24.24,0,0,1,.32-.11v.09Zm-73,.31a.29.29,0,0,1,.48-.21c-.17,0-.3.16-.31.34s0,.37-.07.51a.71.71,0,0,1-.11-.63ZM42.8,128.4l-.5.47a1.12,1.12,0,0,1,1.05-.82l-.53.36Zm34.48,6.1a.5.5,0,0,1-.34-.18c0-.17.25-.23.39-.15a.79.79,0,0,1,.29.4.21.21,0,0,1-.32-.07Zm-27.46-4a.38.38,0,0,0-.41,0,2.78,2.78,0,0,1,.71-.7,1,1,0,0,1-.34.69l0,0ZM87.43,127a.27.27,0,0,0-.07-.42.94.94,0,0,1,.8.24.48.48,0,0,0-.51.25l-.21-.08ZM4,119.54a1.74,1.74,0,0,0-.3-.59.55.55,0,0,1,.56.38.26.26,0,0,1,0,.24c-.06.05-.19,0-.2,0Zm55.1,8.66a1.53,1.53,0,0,1,.77.28c.08.06.16.18.08.25a2,2,0,0,1-.85-.53Zm29.32,6.91a1.52,1.52,0,0,1-.52,0,.34.34,0,0,0-.4-.33c0-.16.24-.17.37-.07s.29.25.42.16l.13.21Zm-80.13-10a.55.55,0,0,1,.74.45,1.37,1.37,0,0,1-.74-.45ZM74.73,84.81a1.5,1.5,0,0,1,.28-.87.46.46,0,0,1,.22-.17,2.71,2.71,0,0,1-.5,1ZM10.16,125.46a.22.22,0,0,1-.21.19l-.37-.46.69.07a.21.21,0,0,1-.13.19Zm24.58,6.74a.27.27,0,0,1-.35.05.83.83,0,0,1,.92-.3,2.14,2.14,0,0,1-.55.26ZM4.24,121.44a2.2,2.2,0,0,1,1.63.16l-1.63-.16Zm10.85-21.7a.28.28,0,0,1-.25-.31,1.46,1.46,0,0,1,.86.35,1,1,0,0,1-.6-.07v0ZM39.36,80.38a4.68,4.68,0,0,1-.48-1.54,3.65,3.65,0,0,1,.48,1.54Zm55.91,34.23-.1-.14.53-.43a.42.42,0,0,1-.4.57ZM72.65,78.91a.8.8,0,0,1-.3.36l.26-1a.59.59,0,0,1,0,.67Zm17.87,56.8a1.13,1.13,0,0,1,.91.48,5.19,5.19,0,0,0-.87-.28.23.23,0,0,1,0-.2ZM42.77,82.36A5.3,5.3,0,0,1,42.4,81a2,2,0,0,1,.37,1.35ZM27.48,100a2.21,2.21,0,0,1-.8-.52c-.05,0-.1-.13-.06-.19a1.77,1.77,0,0,1,.86.71Zm.28-14,.69.94a.19.19,0,0,1,0,.18,2,2,0,0,1-.71-1.12Zm72.6,38.93h.42a.38.38,0,0,1-.41.29,1.05,1.05,0,0,1-.5-.21,1.06,1.06,0,0,0,.5-.06v0Zm-23,7.07a.31.31,0,0,1-.11.36.4.4,0,0,1-.09-.27l0-.67a.6.6,0,0,1,.24.58ZM19.26,112.27c-.07-.29-.29-.66-.57-.56a.66.66,0,0,1,.81.64l-.21,0,0-.11ZM107,151.58l.17.15c-.09-.08-.22,0-.26.14s0,.24-.1.33-.26.07-.25,0a.43.43,0,0,0,.08-.7.25.25,0,0,1,.34.13ZM25.44,98.22,25,97.65a1.69,1.69,0,0,1,.83.61.19.19,0,0,1-.28-.11l-.1.07Zm82.49,58a.33.33,0,0,0,.29.46l-.27.12a3.45,3.45,0,0,1-.33-1.23l.29.64Zm-96-30.61.26.6c-.25.11-.44-.24-.49-.51a.12.12,0,0,1,.19-.07l0,0Zm2.57,2a2,2,0,0,1,.88-.62,1.16,1.16,0,0,1-.88.62Zm71.32,9.93a1.62,1.62,0,0,1-.1-.87A.38.38,0,0,1,86,137a1.07,1.07,0,0,1-.17.48ZM24.21,90.72l.22.56a2.72,2.72,0,0,1-.69-.92,1.09,1.09,0,0,1,.43.37ZM3.82,130.23a.86.86,0,0,1,.82.1.51.51,0,0,1-.72-.05l-.1-.05Zm51.5-1.37-.44-.08.19-.15a1.9,1.9,0,0,1,1,.38l-.7-.14Zm-.76.39c0-.12.16-.23.25-.15a1.27,1.27,0,0,1-.29.66l-.19-.11a.62.62,0,0,0,.2-.4Zm22.2-39.53a2.16,2.16,0,0,1-.73.91,1.65,1.65,0,0,1,.73-.91ZM12.38,110.44a.67.67,0,0,1-.79-.25.77.77,0,0,1,.79.25ZM6.66,149l-.19.43a1.87,1.87,0,0,1,0-.88.31.31,0,0,1,.18.44Zm97.94-2.56-.28-.76a.68.68,0,0,1,0-.48,1.81,1.81,0,0,1,.33,1.24Zm-15-36.73c-.07,0-.13-.09-.08-.14a.18.18,0,0,1,.21,0,.48.48,0,0,1,.11.78l0-.44-.29-.19ZM81.36,84a.64.64,0,0,1,.38-.22c.15,0,.29.19.19.3a.25.25,0,0,1-.2.07.78.78,0,0,1-.39-.12l0,0Zm22.6,44.5c0-.07.09-.13.15-.08v.4a1.63,1.63,0,0,1-.79,0,.74.74,0,0,0,.63-.31Zm-.32-17.08-1.24.44a1.35,1.35,0,0,1,1.24-.44ZM26.9,110.1a.63.63,0,0,1,.49.34,1.05,1.05,0,0,0-.7,0,.23.23,0,0,1,.21-.32v-.05ZM89.62,86.17,88.8,87a1.08,1.08,0,0,1,.82-.85Zm-72,45.92a2.35,2.35,0,0,1-.64.35,4.46,4.46,0,0,1,.86-.76.52.52,0,0,1-.22.42Zm82.5,13.76,0-.28.26.36a.79.79,0,0,1-.27.61c0-.23,0-.46,0-.69ZM101.49,125a.56.56,0,0,1,.18.46l-.37,0c.1-.23.18-.55,0-.69l.2,0,0,.2,0,0ZM30.84,85.51l.4.12a.53.53,0,0,1-.22.27,7.75,7.75,0,0,0-.66-.74l.5.31,0,0ZM7.5,113c.14-.14.39-.27.5-.12s0,.34,0,.5l-.51-.45V113Zm56.89,18.29a.61.61,0,0,1-.25-.38,5.85,5.85,0,0,0,.72.07.61.61,0,0,1-.46.26v0ZM3.15,130.4a.59.59,0,0,0-.47.24c-.13,0-.11-.27,0-.34a.57.57,0,0,1,.41,0l.5.08a.68.68,0,0,1-.44.06Zm87.64,6.2a.18.18,0,0,1-.16-.27l.7.27a.34.34,0,0,1-.51,0l0,0ZM13.23,103.73l-.16-.24a.51.51,0,0,1,.63.15.39.39,0,0,1-.49.11l0,0Zm27.89,25.35a.25.25,0,0,0,0-.39.24.24,0,0,0-.31.24.24.24,0,0,0,.36.15Zm38.06-26.36c-.05.13-.28,0-.26-.1a.25.25,0,0,1,.32-.17.7.7,0,0,1,.32.25l-.38,0v0Zm-14.9,25.15a1.39,1.39,0,0,1-.56-.46.39.39,0,0,1,.54.45Zm21-43.66a1,1,0,0,1-.38.52.36.36,0,0,1,.38-.53ZM13.88,104.09c-.05-.16.16-.3.31-.24a.64.64,0,0,1,.31.37l-.6-.15,0,0ZM47.94,79.27a1.86,1.86,0,0,1,.12,1.27,5.47,5.47,0,0,1-.12-1.27ZM68,127.71l.31-.31.21.13a.71.71,0,0,1-.6.35c-.07,0,0-.18.07-.17Zm-65.6-.16c-.13.06-.27-.09-.27-.22l.87,0a1,1,0,0,1-.6.19Zm14-25.59-.34,0a.32.32,0,0,1,.3-.28.33.33,0,0,1,.32.27.39.39,0,0,1-.28,0v0Zm54.4-8.91a.51.51,0,0,1,.24-.28.52.52,0,0,1-.28.7l0-.41Zm-47.34.83a1.59,1.59,0,0,1-.84-.69,1.73,1.73,0,0,1,.84.69Zm10.66,17.43a.54.54,0,0,1,.38-.42l.2.19a.72.72,0,0,1-.56.25l0,0Zm-1.46-1.63c0,.06-.09,0,0-.1a.51.51,0,0,1,.34-.3c.16,0,.3.21.17.31s-.37,0-.43.1ZM13,127.23a.27.27,0,0,1,.32.12.62.62,0,0,1-.71,0,.33.33,0,0,1,.39-.17v0Zm51.29.67a1.88,1.88,0,0,0,.77-.33l-.58.62a1,1,0,0,1-.19-.29ZM52.2,131.23l0,.36a.85.85,0,0,1-.07-.88l.18.11a.49.49,0,0,0-.07.41Zm6.67-2.81.28.31-.72.06a.6.6,0,0,1,.45-.32v-.05Zm38.95-13.48-.24-.11a.78.78,0,0,1,.48-.17c.17,0,.34.19.27.35a.36.36,0,0,0-.49-.09l0,0ZM27.17,92.36l-.58-.83a.78.78,0,0,1,.58.83Zm73.34,52.11a.75.75,0,0,1,.33.47.61.61,0,0,1-.55-.44l.22-.05v0ZM42.32,80.57a.29.29,0,0,1,0,.36,1.78,1.78,0,0,1-.26-1,1.15,1.15,0,0,1,.23.67Zm42.92,44.06a.5.5,0,0,1,.33.74l-.33-.74Zm8.08-12.79a.59.59,0,0,1-.76.27,1.35,1.35,0,0,1,.73-.29l0,0Zm-82.39,11,0-.28a.26.26,0,0,1,.13.29,1.16,1.16,0,0,1,.56.26.67.67,0,0,1-.72-.26ZM54.05,128c-.08,0-.14-.1-.08-.17s.15-.07.24-.07.18,0,.23-.07l.13.2a.6.6,0,0,1-.52.1Zm-21,2.8c-.09-.1,0-.28.15-.3a.58.58,0,0,1,.38.13.34.34,0,0,1-.5.12l0,.05ZM27,113.37a.36.36,0,0,1,.3.42,1.4,1.4,0,0,0-.46-.1.29.29,0,0,1,.17-.31Zm74.1,15.41a.14.14,0,0,1,0-.24,2.66,2.66,0,0,0,.95.31,1.76,1.76,0,0,1-.91-.07Zm-23.4.14.31-.1a.21.21,0,0,1,0,.19,1.18,1.18,0,0,1-.74.1.53.53,0,0,1,.39-.2Zm-12.54,1.2a.28.28,0,0,1,.13.42.29.29,0,0,1-.45,0,.46.46,0,0,0,.35-.41l0,0ZM41,133.52l-.25.47a.7.7,0,0,1,.2-.77.35.35,0,0,1,.05.3ZM29.72,89.06a3,3,0,0,1-.53-.91,1.18,1.18,0,0,1,.53.91ZM71.24,126.9a.27.27,0,0,1,.24.21.66.66,0,0,1-.33.07.22.22,0,0,1-.2-.24c0-.11.21-.15.25,0Zm-35.58-1.2c0,.08-.14,0-.16-.09s0-.45.17-.42a.19.19,0,0,1,.14.23.51.51,0,0,1-.16.25v0Zm66.92-3a.54.54,0,0,0-.48.36.28.28,0,0,1-.2,0,.58.58,0,0,1,.69-.41v.09ZM52.73,85.63l-.09.83a.54.54,0,0,1,.09-.83Zm47.44,52.91a.31.31,0,0,1-.24-.4l.53.6-.1.27-.19-.43v0Zm-70-15.06a.79.79,0,0,1-.62.16,1,1,0,0,0,.6-.45.29.29,0,0,1,.33,0,.32.32,0,0,0-.28.36l0,0ZM72.25,93a.75.75,0,0,1-.32.54.54.54,0,0,1-.37.09l.69-.63Zm-.33,42.35c.15-.11.34.09.42.26a.51.51,0,0,1-.56-.12l.12-.17,0,0Zm-35.24-9.4.32-.26a.43.43,0,0,1-.69.35l.35-.11,0,0ZM45.4,92.14a.59.59,0,0,1,.19.71l-.19-.11v-.59ZM76.78,92l.17-.37a.61.61,0,0,1-.2.75.3.3,0,0,1,0-.38Zm2.36-3.5a2.52,2.52,0,0,1-.66.76,1.08,1.08,0,0,1,.66-.76ZM15.58,142a.22.22,0,0,1-.36,0,.47.47,0,0,1,.55-.29l-.17.28,0,0ZM96.33,114l-.19,0,.2-.28c.18,0,.45,0,.43.19l-.45.07v0ZM43.74,132.83c.07-.1.24,0,.28.12s0,.27.12.36l-.4.15a.56.56,0,0,0,.07-.63Zm5.76-.42a.23.23,0,0,1,0,.2.23.23,0,0,1-.28-.23.28.28,0,0,1,.3-.25l0,.28Zm18.92-.28.48.27c.07.08-.05.23-.14.19a.66.66,0,0,1-.4-.4l.06-.06Zm34-26.78-.35,0a.62.62,0,0,1,.71-.26l-.36.27Zm-75.11,9a.73.73,0,0,1-.78,0,.68.68,0,0,1,.78,0Zm48.21-23c-.06-.12.08-.26.22-.27a.72.72,0,0,1-.34.71l.1-.43ZM59.6,95.13l.19.15a1.77,1.77,0,0,1-.45.18l-.11-.19a.37.37,0,0,1,.36-.15ZM98,128.8c-.13,0-.33,0-.35-.1a1.1,1.1,0,0,1,.8,0,.43.43,0,0,1-.44.11Zm-38.78.59a.66.66,0,0,1-.68,0,.91.91,0,0,1,.72-.13l0,.11Zm-2.1-.29a.29.29,0,0,1-.14.2l-.17-.28a.26.26,0,0,1,.25-.26c.13,0,.17.25,0,.27l0,.07Zm-6.83-28a.17.17,0,0,1-.08.26.79.79,0,0,1-.22-.51.34.34,0,0,1,.2,0l.11.28Zm46.62,6.76a.55.55,0,0,1-.53,0l1-.32-.42.31ZM64,96c-.07.1-.25,0-.25-.11s.12-.22.24-.23a.71.71,0,0,1,.35.07L64,96l0,0Zm-24.49,9.48c0-.08.14-.11.17,0a.44.44,0,0,1-.17.54.42.42,0,0,1,0-.5Zm-5.47,23.31a.34.34,0,0,1-.25.17.49.49,0,0,1,.27-.56.33.33,0,0,1,0,.38ZM26.48,93.57a1.57,1.57,0,0,1-.69-.79,2,2,0,0,1,.69.79ZM12.56,123.05a.42.42,0,0,1,.53-.37.56.56,0,0,1-.53.37Zm80.73-11.22a.29.29,0,0,1,.21-.34.34.34,0,0,1,.36.22l-.58.09v0Zm1.85-5.93a.67.67,0,0,1-.75.2c.23-.11.46-.2.69-.29,0,0,.1,0,.14,0s0,.11-.06.07ZM21.44,94.07a1.34,1.34,0,0,1,.78.75,5.51,5.51,0,0,1-.78-.75Zm16.17-3.14a.23.23,0,0,1-.19.26.47.47,0,0,0-.08-.59l.2-.11a.43.43,0,0,1,.1.43ZM23.75,96.44a.1.1,0,0,1-.06-.16,1,1,0,0,1,.61.68l-.55-.51Zm83.64,58.3a.3.3,0,0,1,.08.4.44.44,0,0,1-.26-.57l.18.17ZM26.17,124.61l.2.15a.69.69,0,0,1-.65.07.42.42,0,0,1,.43-.2l0,0ZM90.1,99.8a.19.19,0,0,1-.12.07.11.11,0,0,1-.08-.09,2.13,2.13,0,0,1,.8-.52l-.6.54ZM77.83,87.72a1,1,0,0,1-.33.56,1,1,0,0,1,.23-.67s.14,0,.09.1Zm1.74,16.46c.11,0,.09.17,0,.22s-.24.13-.2.23l-.24-.13.42-.38,0,.06ZM20.1,139.29a.89.89,0,0,1-.53.26,4.41,4.41,0,0,1,.64-.58l-.09.32ZM35.42,81.85a.37.37,0,0,1,.08.33,1.32,1.32,0,0,1-.36-.94l.3.6Zm9.08,9.73a.48.48,0,0,1,0,.66.52.52,0,0,0-.19-.37.44.44,0,0,0,.17-.23l0-.06Zm7.61-12.35a2.43,2.43,0,0,1,0-.6,1.1,1.1,0,0,1,0,1l0-.43ZM8.53,135.46a.62.62,0,0,1-.52-.21l.52-.07a.17.17,0,0,1,0,.28ZM39.35,108a.35.35,0,0,1-.17-.56.5.5,0,0,1,.18.56Zm8.37,24.33c-.06,0-.12-.09-.07-.15a.61.61,0,0,1,.51.19.24.24,0,0,1-.42,0Zm34.75-.87c.16-.06.35.12.28.27a.48.48,0,0,1-.39-.08c-.09-.1,0-.32.12-.27v.08ZM14.3,146.44a.19.19,0,0,1-.27.05l.43-.54a.51.51,0,0,1-.15.51v0ZM46.52,80.79a.59.59,0,0,1,.24.73,2,2,0,0,1-.25-.71v0ZM4.15,155a.41.41,0,0,1,.67-.07l-.56.11-.11,0Zm12-32c.06,0,.12.08.07.15H16a.24.24,0,0,1,0-.2l-.24-.08.19-.1.32.22Zm-4.85-9.31a.37.37,0,0,1,.19-.56.42.42,0,0,1-.17.53l0,0ZM53.81,99.43c.09,0,.22,0,.19.1a.65.65,0,0,1-.55.18l.3-.35.06.07Zm31.09.11a.32.32,0,0,1,.3-.26,3.13,3.13,0,0,0-.38.88.46.46,0,0,1,.13-.57l0,0Zm-43,25.63a.27.27,0,0,1,.15.42.6.6,0,0,1-.36-.37l.2,0Zm-28.15,7.08-.26-.13a.93.93,0,0,1,.63-.2.88.88,0,0,1-.35.31l0,0Zm77.83-24.44a1.9,1.9,0,0,1,.6-.49.51.51,0,0,1-.6.46v0Zm-.72,30.61a.42.42,0,0,1,0-.67.81.81,0,0,1-.06.43.7.7,0,0,1,.32.24.21.21,0,0,1-.24,0Zm-12.69-3-.51-.38a1,1,0,0,1,.7.27l-.18.12Zm20,.75a.21.21,0,0,1-.12.35l-.2-.35a.19.19,0,0,1,.3,0ZM67.67,91.26a1.52,1.52,0,0,0-.17.81,1,1,0,0,1-.13-.47.34.34,0,0,1,.3-.34ZM10.18,131l.33-.16a.38.38,0,0,0,0,.37.31.31,0,0,1-.41-.21Zm84.21.6.16.31a.38.38,0,0,1-.28,0l-.1-.52a.37.37,0,0,1,.22.17ZM23.24,103.77c-.08-.1.1-.21.22-.17a.42.42,0,0,1,.29.3.45.45,0,0,1-.46-.19l-.05.06ZM48.4,93.14a.35.35,0,0,1,.24-.17.67.67,0,0,1-.28.52.28.28,0,0,1-.12-.2l.16-.15ZM8.19,130.07c-.08,0-.11-.11-.06-.16a.28.28,0,0,1,.22,0l.53.08-.19.2a.5.5,0,0,0-.52-.13l0,0Zm20-20a.37.37,0,0,1,.13-.55.42.42,0,0,1-.11.53l0,0Zm-5.44-7c.07,0,.12.16,0,.19l-.6-.45a.62.62,0,0,1,.58.24l0,0Zm26.33-9.26a.31.31,0,0,1,.11-.42.35.35,0,0,1,.2.18l-.29.32,0-.08Zm29.3-7a.75.75,0,0,1-.45.35,1,1,0,0,1,.5-.55l0,.2ZM50.47,130.75c-.08-.05,0-.18.06-.21a.37.37,0,0,1,.27,0l.08-.24a.3.3,0,0,1,0,.36.25.25,0,0,1-.35,0l0,.06ZM22.08,98.05a.27.27,0,0,1,.23.18.9.9,0,0,1-.67-.62.79.79,0,0,1,.42.44Zm36.79-2.66-.24.24a.35.35,0,0,1,.37-.47.25.25,0,0,1-.13.22Zm-55.94,39s-.08.09-.12,0,0-.11,0-.17a2.18,2.18,0,0,1,.22-.55,1,1,0,0,1-.09.65v0Zm8.88-11.33-.09-.14.21-.2a.59.59,0,0,0,.3.21.29.29,0,0,1-.37.09l0,0Zm18-18.34a.27.27,0,0,1-.16-.4,1.28,1.28,0,0,1,.39.34l-.22.06ZM6.28,130.81l.23,0a.82.82,0,0,1-.36.47.38.38,0,0,1,.13-.42v0Zm94.64,8.13c.17-.06.41.1.34.27a1.78,1.78,0,0,1-.57-.28.12.12,0,0,1,.21,0Zm-88.15-8.45a.46.46,0,0,1-.52.28l.12-.29a.29.29,0,0,0,.36,0l0,0Zm75,5.5a.57.57,0,0,1,.39.38.3.3,0,0,1-.38-.36v0ZM74.88,87.68l.19-.38a.66.66,0,0,1-.32.74l.12-.36Zm-67.15,21a.86.86,0,0,1,.86.15,3.17,3.17,0,0,1-.86-.15ZM38.07,90.32c0-.06.12,0,.09.06s-.11.05-.16,0a.78.78,0,0,1-.51-.44l.55.33,0,0ZM93,123.81l-.63.1a.52.52,0,0,1,.68-.17l0,.07Zm14.7-5.7.24.08-.6.08a.14.14,0,0,1-.11-.16.64.64,0,0,1,.47,0Zm-4.26,0a.16.16,0,0,1-.06.27.44.44,0,0,1,.1-.64l0,.37Zm-94.8,9.08h.67a.38.38,0,0,1-.63,0l0,0ZM82.42,82.91a.67.67,0,0,1-.18.8,3.7,3.7,0,0,1,.18-.8ZM56.86,126.1a.47.47,0,0,1,.56-.17.47.47,0,0,1-.56.17l0,0ZM69.64,78.47a.42.42,0,0,0-.24-.54c.08-.14.32-.06.37.09a.64.64,0,0,1-.1.46ZM4,157.15a.47.47,0,0,1,.4,0,.64.64,0,0,1-.52.2c-.06-.07,0-.2.12-.17v0ZM38.52,110a.64.64,0,0,1,.3-.24.34.34,0,0,1-.17.45l-.12-.21ZM2.6,122.73a.53.53,0,0,1-.59.12l.59-.27c.08,0,.09.16,0,.17v0Zm5.18-22.52c-.22,0-.5,0-.55-.26a.59.59,0,0,1,.56.25ZM7.06,130.1a.34.34,0,0,1-.47.09.26.26,0,0,1,.44-.11l0,0Zm40.87-3.61a.35.35,0,0,1,.42-.15,1,1,0,0,1-.55.33c0-.07,0-.19.12-.15v0Zm1.91,4,.31.14a1.13,1.13,0,0,1-.38.3.49.49,0,0,1,.07-.39v-.05Zm-37-15.85c.11,0,.15.15.13.26a.43.43,0,0,0-.56-.11c0-.19.29-.29.38-.12l.05,0ZM5,132.12a.15.15,0,0,1-.09-.21.44.44,0,0,1,.44.1.33.33,0,0,1-.36.12Zm62.1-3.61a.5.5,0,0,1-.27-.21,1,1,0,0,1,.72.25l-.44-.06v0Zm-10.34-1.68a.16.16,0,0,1,0-.29l.37.17a.54.54,0,0,1-.36.14v0ZM84.9,107.75l.13-.26a.18.18,0,1,1-.13.28v0Zm-13.15,25.1a.24.24,0,0,1-.43.12.38.38,0,0,1,.44-.15v0Zm-57.17-34-.13.3L14.19,99c.08-.16.29-.34.4-.2v0Zm66.44,32a.22.22,0,0,1-.37.07.4.4,0,0,1,.24-.22c.11,0,.25.07.22.18l-.09,0Zm-25.52-35c-.07,0,0-.16,0-.2a.42.42,0,0,1,.25,0,.31.31,0,0,1,0,.32l-.28-.12Zm53.24,24.06a.51.51,0,0,1-.35-.17l.66.08a.28.28,0,0,1,0,.2l-.34-.15v0Zm-25.92-26,.19,0a1.4,1.4,0,0,0-.27.53.42.42,0,0,1,.08-.55ZM1.34,127.44l.52,0a1.09,1.09,0,0,1-.9,0l.38,0Zm68.44,8.49-.16.16a.51.51,0,0,1-.2-.28.31.31,0,0,1,.2-.11.4.4,0,0,1,.17.23ZM92,91.59a.09.09,0,0,1-.17,0,.53.53,0,0,1,.34-.37.44.44,0,0,1-.17.4ZM28.56,96.11s-.09,0,0-.07.1,0,.14,0a1,1,0,0,1,.29.58,1.3,1.3,0,0,1-.38-.52v0Zm12.91,6.34-.18-.13a.78.78,0,0,0,.1-.36.31.31,0,0,1,.11.48Zm-4.85,5.46a.3.3,0,0,1-.4,0,.46.46,0,0,1,.28-.15c.1,0,.21.13.14.22l0,0Zm5.66-8.81c0-.18-.32-.22-.35,0s.32.22.35,0ZM7.41,146.6a.46.46,0,0,1,.29-.6,1.42,1.42,0,0,1-.29.59Zm100.85-24.11a.68.68,0,0,1,.43.19.54.54,0,0,1-.35.07c-.12,0-.19-.21-.1-.29l0,0Zm-47.41,8.78-.2-.2a.6.6,0,0,1,.27-.2.32.32,0,0,1-.06.42v0ZM41.44,104.36a.22.22,0,0,1-.07-.24c.14-.1.37.08.3.24a.18.18,0,0,1-.23,0ZM80.76,88.51a.2.2,0,0,1,.16-.31.25.25,0,0,1,.11.19.26.26,0,0,1-.28.15v0ZM56.47,76.12c-.2,0-.17-.4,0-.41a.59.59,0,0,1,0,.45l0,0ZM17.55,142l.16-.18a.6.6,0,0,1-.45.59.57.57,0,0,1,.32-.36l0-.05ZM69.66,78.48a1,1,0,0,1-.2.64.5.5,0,0,1,.21-.62v0Zm-27,17-.38.23a.21.21,0,0,1,0-.28h.32l.09,0Zm35.41-14s0-.07.06-.05,0,.06,0,.1a.74.74,0,0,1-.28.53,1.17,1.17,0,0,1,.19-.57ZM45,93.2a.43.43,0,0,0,.28-.34l.12.27a.39.39,0,0,1-.18.18.15.15,0,0,1-.2-.1Zm4.32-.57a.3.3,0,0,1-.36,0,.82.82,0,0,1,.72-.18l-.36.13ZM26.42,130.85a.41.41,0,0,1-.23-.18.84.84,0,0,1,.36-.19l-.09.36ZM7.08,121.51a.16.16,0,0,1,.23-.08.36.36,0,0,1-.21.34.15.15,0,0,1,0-.26Zm89,1.61.44,0a1.94,1.94,0,0,1-1,.09l.52-.08v0Zm-17-16.27.2.2a.26.26,0,0,1-.34,0c-.13-.08,0-.32.15-.23ZM30.89,82.6a.15.15,0,0,1,.09.21.63.63,0,0,1-.36-.54.53.53,0,0,1,.27.32Zm45.33-.88c0-.21,0-.48.21-.55a.47.47,0,0,1-.22.53v0Zm31.42,72.07a.65.65,0,0,1-.15.64,1.8,1.8,0,0,1,.1-.65Zm-49.51-64c-.06-.13.09-.28.23-.26a1.34,1.34,0,0,1-.22.54l0-.27Zm13.19,4c.12,0,.09.24,0,.28a.43.43,0,0,1-.36-.07.46.46,0,0,1,.38-.16v0ZM13.15,126.13v.2a.37.37,0,0,1-.49-.11l.49-.06v0Zm66.6-38.94.14-.19a.33.33,0,0,1-.33.46l.2-.26Zm28.15,32.73a.19.19,0,0,1-.31-.07,1.07,1.07,0,0,1,.64,0l-.32.1ZM16.54,141.78a.37.37,0,0,1,.43-.28l-.32.34c-.06,0-.19,0-.13-.06Zm26.2-14.87c-.11,0-.28,0-.27-.1a1.63,1.63,0,0,0,.44-.21.24.24,0,0,1-.17.3ZM10.46,149.17l.23-.21a.39.39,0,0,1-.27.46.17.17,0,0,1,.05-.25ZM84.1,85.45l.37-.51a.5.5,0,0,1-.28.51ZM63.84,131.9a.29.29,0,0,1,.38-.29.37.37,0,0,1-.41.29Zm26.28-29.05c0,.07-.18,0-.14-.07a.34.34,0,0,1,.46-.16l-.31.24ZM10,111.11a.77.77,0,0,1-.59-.12.86.86,0,0,1,.61.05s.07,0,.07.09-.09,0-.06,0Zm94.65,35.32a.93.93,0,0,1,.29.56.62.62,0,0,1-.31-.55Zm3.26,5.29c.1,0,.15.12.12.21a.46.46,0,0,1-.2.19.27.27,0,0,1-.11-.19l.2-.19v0Zm-44-52.15a.3.3,0,0,1,.14-.32l.1.2a.24.24,0,0,1-.09.18c-.06,0-.16,0-.15-.06Zm-49.81,3.61a.94.94,0,0,1,.52.1c-.19.08-.46.13-.55,0l0,0ZM67.44,125a.1.1,0,0,1,0,.18c-.17,0-.36-.21-.22-.33l.19.12v0ZM40.93,101.19s0,.07,0,.08-.09,0-.12,0-.28-.38-.12-.48l.21.43,0,0ZM66.45,133.8a.11.11,0,0,1,.19,0,.36.36,0,0,1-.47.09.28.28,0,0,1,.28-.13ZM87.72,96.42a.24.24,0,0,1,.43-.13.52.52,0,0,1-.43.12Zm12.09,49.09-.22.4a.46.46,0,0,0-.14-.47.29.29,0,0,1,.27.06Zm-58-17.64a1.25,1.25,0,0,1,.51,0l-.35.2a.41.41,0,0,1-.17-.24Zm-17-30.55c.1,0,0,.2-.07.18s-.16-.12-.2-.22-.09-.2-.19-.2a.5.5,0,0,1,.41.29l.05-.05ZM47.37,75.6c-.19,0-.19-.31,0-.44a.58.58,0,0,1,.09.44ZM23.83,94.38a.23.23,0,0,1-.13-.33l.37.5a.25.25,0,0,1-.24-.15v0Zm-6.9,12.21a.25.25,0,0,1,.13-.37.44.44,0,0,1,.06.25c0,.09-.11.16-.19.12Zm84.17-.73a.22.22,0,0,1-.33.07.49.49,0,0,1,.39-.24.11.11,0,0,1-.06.16Zm-93.68,23-.19.06a.22.22,0,0,1,.11-.27,1.33,1.33,0,0,0,.44.09l-.37.1v0ZM96.8,143.52l.12.27a.3.3,0,0,1-.17.12l-.07-.53c.06,0,.13.07.11.13ZM45.48,87.36a.19.19,0,0,1,.06-.21.68.68,0,0,1,0,.65l-.08-.42.06,0ZM14.9,144l.29-.36a.58.58,0,0,1,0,.37c-.08.1-.28.09-.3,0l.05,0Zm87.56-2.05c.21.06.32.29.39.5a1,1,0,0,1-.42-.46l0,0ZM25.09,89.63a.33.33,0,0,1-.21-.42l.28.34s.06.08.05.12-.1,0-.09,0l0,0ZM39,130.55c-.09,0-.18-.07-.16-.16a.37.37,0,0,1,.18-.21.27.27,0,0,1,.11.18l-.16.16,0,0Zm-.5-.74a.27.27,0,0,1-.33.24l.23-.37.12.11,0,0ZM54.88,73.14a2.21,2.21,0,0,1,0,.68,2.58,2.58,0,0,1,0-1,.35.35,0,0,1,0,.28ZM4.5,125.89a.3.3,0,0,1-.15.4.26.26,0,0,1,.15-.4ZM18.88,98.71c0-.16.26-.18.35,0a.22.22,0,0,1-.35,0Zm69,11.66c0,.11-.23,0-.23-.07s.1-.21.2-.28l0,.34ZM29.52,83.79a.21.21,0,0,1-.14-.3c.11,0,.24.1.27.21s-.13.25-.2.15l.07-.06Zm-9.81,29.26a1.06,1.06,0,0,0,.29-.37l.18.12a1.77,1.77,0,0,1-.45.3l0,0ZM103,125.62a1.8,1.8,0,0,1,.8,0,1.36,1.36,0,0,1-.8,0ZM4.94,153.51c-.05-.06.09-.12.15-.07l-.19.43-.12-.2.15-.16Zm53.79-22.36a.26.26,0,0,1-.38.16.21.21,0,0,1,.32-.16ZM103.43,145a.62.62,0,0,1,.27.54.9.9,0,0,1-.29-.54Zm-89.17-.45a.37.37,0,0,1,.2-.12.45.45,0,0,1,0,.28.26.26,0,0,1-.19,0,.27.27,0,0,1,0-.19Zm.15-7.64a.59.59,0,0,0-.34.26.24.24,0,0,1,.06-.32.25.25,0,0,1,.32.05Zm61.8-55.22a.42.42,0,0,1-.2.47.4.4,0,0,1,.21-.47ZM60.06,83.93l-.12-.2a.32.32,0,0,1,.2-.12,1.14,1.14,0,0,1,0,.45.1.1,0,0,1-.1-.13Zm29.83,21.7a.35.35,0,0,1,.24-.17.87.87,0,0,1,0,.36c-.1,0-.17-.1-.2-.2Zm-70.42,4.5.19-.28a.26.26,0,0,1,.13.28.31.31,0,0,1-.32,0Zm29.85-9.56.27.13a.25.25,0,0,1-.26.14c-.1,0-.13-.2,0-.22v-.05ZM3.59,122.22a.23.23,0,0,1,0-.2.78.78,0,0,1,.19.36.26.26,0,0,1-.19,0,.28.28,0,0,1,0-.2Zm15.07-8.4a.31.31,0,0,1,.34-.07l-.12.2a.28.28,0,0,1-.2,0c-.06,0-.09-.12,0-.16v0Zm76.43-.53,0-.23a.52.52,0,0,1,.07.58.23.23,0,0,1,0-.36Zm-2.53,27.12a.29.29,0,0,1-.39-.09l.29-.12.11.24v0ZM45.23,86.5l0-.36a1.92,1.92,0,0,1,.11.71.47.47,0,0,1-.15-.35ZM27.72,86l-.33-.58a.68.68,0,0,1,.37.55l0,0Zm-.66,46.85a.59.59,0,0,1-.29.38.29.29,0,0,1,.25-.38ZM79.34,99.27a.72.72,0,0,1,.51-.14.77.77,0,0,1-.71.19.17.17,0,0,1,.2,0ZM53.61,90.21l0-.28a.38.38,0,0,1,.09.48c-.08,0-.13-.1-.11-.2Zm22.79,8c0,.08-.09.18-.17.13a.28.28,0,0,1-.09-.26.2.2,0,0,1,.26.13Zm22.49,15.59a.18.18,0,0,1,.3.09.21.21,0,0,1-.25.12.28.28,0,0,1,0-.2ZM21.52,136.6a.58.58,0,0,1-.17.37.24.24,0,0,1,.18-.4v0Zm57.94-1.74a.57.57,0,0,0,.28-.11l.19.19a.39.39,0,0,1-.48-.07ZM25.8,92.76a.4.4,0,0,1-.3-.45.7.7,0,0,1,.31.47v0ZM41.52,132.9c-.1-.07,0-.24.14-.19a.23.23,0,0,1,.06.32l-.2-.13ZM81.6,91.72a.49.49,0,0,1-.22.27.53.53,0,0,1,.25-.47.12.12,0,0,1,0,.19Zm.46-.72a.4.4,0,0,0-.16-.41.29.29,0,0,1,.19.49l0-.08Zm-24.5,5.54a.24.24,0,0,1-.11.27l-.11-.19.12-.22.12.11,0,0Zm7.19-1.11c0-.08.1-.15.18-.12a.23.23,0,0,1,.14.2.2.2,0,0,1-.3-.09Zm31.33,33.38a.46.46,0,0,1,.44,0,4.48,4.48,0,0,1-.62.2l.19-.16Zm-70.72,8.55c.05,0,.12,0,.11.09a.25.25,0,0,1-.11.14.63.63,0,0,1-.2-.28.13.13,0,0,1,.2.05Zm29.54-9.24c-.07-.09.08-.2.19-.16s.14.16.18.27l-.34-.15,0,0ZM40.35,99.07a.13.13,0,0,1,.22.09.47.47,0,0,0-.36.18.2.2,0,0,1,.13-.26Zm-2-9.1a.5.5,0,0,1,0-.43l.1.63L38.36,90ZM22.87,137.79a.14.14,0,0,1-.24,0,.9.9,0,0,1,.36-.19c.06.07,0,.2-.11.17v0Zm85.43-22.9.64-.09a.89.89,0,0,1-.64.15v-.06Zm-32.42-29a.49.49,0,0,1-.25.48.81.81,0,0,1,.26-.5v0ZM49.5,94.57a.46.46,0,0,0,.41,0,.32.32,0,0,1-.48.13s-.06-.08,0-.12.1,0,.08,0ZM11.89,127l.2-.12a.45.45,0,0,1,0,.28.73.73,0,0,0-.36,0c0-.06.06-.13.12-.1v0Zm81.85-25a.29.29,0,0,1-.39.17.34.34,0,0,1,.42-.18Zm-6.1-1.29a.24.24,0,0,1,.2,0,.21.21,0,0,1-.34.15l.12-.2,0,0ZM45.11,85.6a.34.34,0,0,1,.1.3.21.21,0,0,1-.12-.37l0,.07Zm52.15,58.85a.23.23,0,0,1-.26.06.86.86,0,0,1,.36-.29.16.16,0,0,1-.08.23ZM84.71,103.68c-.08,0-.21,0-.19-.11a.45.45,0,0,1,.39,0,.12.12,0,0,1-.19.1ZM6.83,147.59c0-.07.18,0,.16.08l-.28.27a.36.36,0,0,1,.12-.35Zm25.15-30a.18.18,0,0,1-.25.13c0-.1,0-.21.14-.25s.22.07.15.15l0,0Zm40.51,20,.18.16a2,2,0,0,1-.48-.09.17.17,0,0,1,.28,0l0,0ZM70.31,69.79c.12.11,0,.32-.06.46l-.12-.19a.42.42,0,0,0,.17-.23v0Zm23.38,56.39a.19.19,0,0,1-.25-.17.45.45,0,0,1,.28,0,.13.13,0,0,1,0,.19Zm10.14,1.12a.42.42,0,0,1-.43.06.34.34,0,0,1,.46-.07ZM29.47,91.43a.17.17,0,0,1-.08-.24.36.36,0,0,1,.28.29l-.2,0v0Zm15.92.72a.36.36,0,0,0-.27-.08.16.16,0,0,1,.08-.23.43.43,0,0,1,.21.31Zm49.14,16.49.18.14a.45.45,0,0,1-.39,0c0-.08.1-.13.19-.11l0,0ZM76.05,85.51a.56.56,0,0,1,.3-.41.41.41,0,0,1-.29.4ZM102,107.33a.22.22,0,0,1,.34-.12c-.07,0-.12.05-.16.11s-.09.12-.16.12-.11-.11,0-.13l0,0ZM93.9,128.58a.14.14,0,0,1,.22-.12c0,.1-.08.22-.19.24s-.18-.17-.07-.18l0,.06Zm-78.21,6.6a.26.26,0,0,1,.25-.15l-.31.42a.2.2,0,0,1,0-.27Zm13.14-4.54a.17.17,0,0,1,.09-.23.24.24,0,0,1,.11.27.13.13,0,0,1-.19-.05Zm46-2.07a.15.15,0,0,1-.09-.21,1.07,1.07,0,0,0,.36.1.27.27,0,0,1-.28.12ZM29.51,103.81a.27.27,0,0,0,.32,0,.32.32,0,0,1-.32.22.14.14,0,0,1-.13-.1c0-.06.07-.11.11-.07ZM56.71,132a.2.2,0,0,1-.13-.33.23.23,0,0,1,.14.27V132ZM16.24,117.93c-.11,0-.12-.19,0-.25a.39.39,0,0,1,.33,0l-.32.15v.06ZM99,128.15c0,.11-.25,0-.22-.07l.26-.21a.27.27,0,0,1,0,.27Zm-4.59-16.83a.29.29,0,0,1,0-.35.37.37,0,0,1,.16.19c0,.08-.05.19-.13.17ZM72.26,82c.15,0,.2.27,0,.28a.14.14,0,0,1,0-.25v0Zm7.32,28.05c-.07,0,0-.14,0-.12s.1.09.12.15l-.09.37-.07-.4Zm-73.7,2.53a.72.72,0,0,1-.47-.12.37.37,0,0,1,.49.11Zm6.49,13.24a.28.28,0,0,1,.4.06.3.3,0,0,1-.41-.06Zm2.45-13c.08-.12.27,0,.38.06A.31.31,0,0,1,15,113l-.16-.16Zm81.35-.38.16-.16a.26.26,0,0,1,.12.21.25.25,0,0,0-.17,0,.15.15,0,0,1-.17,0c0-.05,0-.14.07-.09ZM73.61,132.13a.16.16,0,0,1-.18.17.16.16,0,0,1-.12-.21.24.24,0,0,1,.25.06l0,0ZM32.19,78.88a.63.63,0,0,1,.22.46.39.39,0,0,1-.2-.46Zm72,27.34c0-.07.09.09,0,.13a.5.5,0,0,1-.39.08.63.63,0,0,1,.36-.21ZM17.74,132.93l-.1.35a.24.24,0,0,1-.22,0l.28-.41,0,0Zm49.43-.67a.25.25,0,0,1-.28.25.3.3,0,0,1,.32-.28l0,0Zm24.34-17.19a.35.35,0,0,1,.24-.17.17.17,0,0,1,0,.24.16.16,0,0,1-.23-.07ZM5.88,112.63c.21,0,.46,0,.57.13a1.43,1.43,0,0,1-.58-.12Zm1.68,2.23.45,0a.77.77,0,0,1-.39.14l-.06-.12Zm5.71,18a.23.23,0,0,1-.08-.32c.14,0,.22.28.08.33Zm15-43.23a.21.21,0,0,1-.1-.29.29.29,0,0,1,.18.14c0,.07,0,.18-.09.17v0ZM69,126.49a.28.28,0,0,1-.34.16.26.26,0,0,1,.33-.17ZM41.09,75.94a.16.16,0,0,1-.15.24c-.12-.09,0-.32.16-.25Zm50.62,61.69c0-.1.14-.14.24-.08a.51.51,0,0,0-.2.28.13.13,0,0,1,0-.2Zm.79.51-.25-.13.12-.19a.31.31,0,0,1,.12.32Zm-78.75-.71a.17.17,0,0,1-.16.24.17.17,0,0,1,.16-.27v0Zm42.51-9.09c-.09,0-.21,0-.19-.12a.42.42,0,0,1,.27,0c.07.05,0,.18-.08.15ZM5.8,152.09a.08.08,0,0,1-.11.1.18.18,0,0,1,0-.3.32.32,0,0,1,.12.2ZM59,89.23l.2-.06a.43.43,0,0,1-.2.29.13.13,0,0,1,0-.23Zm36,39a.11.11,0,0,1-.18,0,.73.73,0,0,1,.26-.29.15.15,0,0,1-.08.23ZM48.4,125.9a.21.21,0,0,1,0,.39l0-.4ZM93.29,91.43a.52.52,0,0,1,.3-.38.46.46,0,0,1-.27.37ZM34.34,79.78a.23.23,0,0,1,0-.2.41.41,0,0,1,.08.48.57.57,0,0,0-.11-.28ZM3.66,132.06c0,.18-.31.12-.46,0l.43,0ZM30,86.63c-.14,0-.14-.21-.09-.34s.14.2.09.33Zm17.17,43.7c0,.08-.18,0-.16-.09s.13-.13.22-.16a.16.16,0,0,1-.09.23l0,0Zm-7.41-49c-.16,0-.18-.22-.13-.37a.33.33,0,0,1,.12.36ZM94,90.8a.17.17,0,0,1-.26,0c0-.08.08-.17.17-.19s.17.11.09.15ZM27.26,102c0-.07.17,0,.21,0a.43.43,0,0,1,0,.25.22.22,0,0,1-.17-.26l-.06,0ZM76,85.52a.3.3,0,0,1-.13.39c0-.16,0-.38.15-.4Zm-5,48.41a.19.19,0,0,1,.31.06.22.22,0,0,1-.33-.06Zm-19-4a.3.3,0,0,1-.1.35.25.25,0,0,1,.11-.38v0Zm-38.78-9.17c-.05-.07.08-.14.14-.08a.52.52,0,0,1-.19.36.25.25,0,0,1,.05-.27ZM9.73,134.44l.14-.09.2.2a.22.22,0,0,1-.31-.08l0,0ZM66.46,71.27a.16.16,0,0,1,0-.29.16.16,0,0,1,0,.29Zm3,57.16c-.07-.05,0-.18.1-.18a.4.4,0,0,1,.22.14.19.19,0,0,1-.3,0l0,.05Zm33,13.52c-.16,0-.27-.26-.12-.33a.32.32,0,0,1,.11.32Zm-91-37.82a.17.17,0,0,1-.3-.09.2.2,0,0,1,.31.08ZM9.68,142.22,9.8,142a.45.45,0,0,1-.17.48.27.27,0,0,1,0-.27Zm97.13-26.94a.62.62,0,0,1,.47-.11.36.36,0,0,1-.47.09v0ZM90.05,134.89a.5.5,0,0,1-.4-.19.29.29,0,0,1,.38.17l0,0Zm3.69-40.21a.35.35,0,0,1,.33-.22.51.51,0,0,1-.36.28l0-.06Zm-10.57,9a.51.51,0,0,1,.33.17c-.1.13-.35,0-.3-.15l0,0Zm13.17,38.6c.08.08-.11.19-.18.11s0-.22,0-.33l.12.27,0,0Zm-15-19.93a.25.25,0,0,1-.31-.18.22.22,0,0,1,.27.13l0,0ZM74,95.07l.17-.16c0,.1.05.23,0,.29s-.22-.09-.13-.13ZM18.32,105.38c.08,0,.08.13,0,.18s-.17.1-.17.18a.19.19,0,0,1,.16-.3v-.06Zm65.45,29.91c-.07,0,0-.17.07-.15a.47.47,0,0,1,0,.4l-.08-.24Zm-46.68-.23c0-.11.2-.15.23,0a.19.19,0,0,1-.29.07l.06,0ZM107.14,120l-.26-.12c.07-.14.32-.06.31.08l0,0Zm-3.9.44a.47.47,0,0,1-.42.13.31.31,0,0,1,.41-.11v0ZM28.65,103c0-.1.19-.09.23,0a.61.61,0,0,0-.28.19.13.13,0,0,1,0-.19ZM54.85,70.6v.45l-.11-.39.1-.06Zm24.34,64.93a.18.18,0,0,1-.28.13.24.24,0,0,1,.28-.15v0Zm-60.4,5.53a.7.7,0,0,1,.26-.31.28.28,0,0,1-.25.32Zm-5-18.25a.2.2,0,0,1,.36,0l-.36,0Zm95.38,4.51c0,.14-.2.25-.27.12a.29.29,0,0,1,.28-.12Zm-96.77-6.68a.4.4,0,0,0,.17.23.21.21,0,0,1-.25,0l0-.25Zm-3.85,24a.36.36,0,0,1,.19-.4.84.84,0,0,1-.2.4Zm5.25-38.75c-.08,0-.1-.12-.05-.18a.32.32,0,0,1,.21-.08c.05.1-.07.23-.17.21v.05Zm88.6,22.5.13-.19a.26.26,0,0,1,.14.2.21.21,0,0,1-.25,0l0,0ZM10.1,114.59a.12.12,0,0,1-.2,0c0-.08,0-.17.13-.19s.15.12.07.14ZM46.54,80.13a.19.19,0,0,1,0,.29.19.19,0,0,1,0-.31v0Zm2.76,44.18a.13.13,0,0,1-.21,0c0-.15.27-.13.42-.08a.24.24,0,0,1-.2,0ZM45,91.56l0,.19a.49.49,0,0,1-.29,0,.44.44,0,0,1,.24-.18v0Zm-1-4.84.11.36a.21.21,0,0,1-.15-.3l0-.06Zm-.19,44.83a.17.17,0,0,1-.24.16c0-.12.15-.24.24-.16ZM99.13,98.29l.09.14-.29.12a.31.31,0,0,1,.17-.23l0,0ZM65.35,124.94l.2,0a.3.3,0,0,1-.42,0,.14.14,0,0,1,.21,0ZM1,122.25c-.05,0-.12,0-.11-.08s.06-.1.11-.13.12.22,0,.23v0ZM24.57,88.91a.28.28,0,0,1-.25-.32.7.7,0,0,1,.26.31Zm43.2,41.72c0-.14,0-.33.12-.39a.35.35,0,0,1-.13.4ZM44,90.75c.06-.08.16.11.06.14s-.19,0-.25-.14.18-.07.19,0v0Zm59.26,23a.7.7,0,0,1-.53,0,1.46,1.46,0,0,1,.51,0l0,0ZM69.18,73.93,69,73.69c.14-.09.31.17.18.27l0,0ZM46,77.33l.08.36a.44.44,0,0,1-.18-.35.1.1,0,0,1,.06-.1s.08.06,0,.07v0ZM7.19,146.92a.36.36,0,0,1,.18-.24l-.06.23c0,.06,0,.12-.09.14s-.1-.1,0-.1v0Zm-1.77,5.57a.15.15,0,0,1-.25.08c0-.13.23-.21.22-.08ZM78.3,89.63l-.15.46a.37.37,0,0,1,.12-.47ZM78,105.71a.23.23,0,0,1,.31-.1c-.09.12-.3.23-.35.09ZM.15,125.8,0,125.62a.34.34,0,0,1,.32,0,.1.1,0,0,1-.13.09l0,0Zm5.53-7.65a.2.2,0,0,1-.28,0c0-.14.23-.16.31,0Zm2.1-17.94a.49.49,0,0,1,.39.2.34.34,0,0,1-.39-.2ZM78.26,89.62a.36.36,0,0,1,.26-.31.34.34,0,0,1-.25.3ZM48.8,94.24l0,.44a.57.57,0,0,1,0-.46l0,0ZM87,126.31l.28.1a.57.57,0,0,0-.28.11c-.09,0-.08-.2,0-.22ZM15.4,101.72c.09,0,.22,0,.2.12a.3.3,0,0,1-.21,0c-.06,0-.05-.16,0-.16v.06ZM27.85,88.79l-.06-.21c.17,0,.16.25.1.41a.28.28,0,0,1,0-.2ZM13.36,136.9l.15-.19a.37.37,0,0,1-.09.32c0,.05-.09-.08,0-.11l0,0Zm80-.09c-.13.07-.26-.17-.14-.24l.12.18,0,.06ZM64.88,87.73l.34-.08a.23.23,0,0,1-.36.1l0,0ZM10,108.11c0,.08-.18,0-.17,0a.11.11,0,0,1,.13-.1.1.1,0,0,1,.05.15ZM33.3,121.54a.3.3,0,0,1,.34-.11.23.23,0,0,1-.32.1Zm-.11,5.7a.17.17,0,0,1-.28.12.27.27,0,0,1,.27-.12ZM85.4,86.62a.43.43,0,0,1-.23.31.27.27,0,0,1,.22-.3ZM92,126.47a.38.38,0,0,1,.39.11.39.39,0,0,1-.38-.1ZM85.37,86.61a.43.43,0,0,1,.23-.31.28.28,0,0,1-.22.31Zm20.19,20.78c.08-.08.24,0,.2.13s-.22,0-.2-.13ZM90.68,99.26a.21.21,0,0,1,.32-.12.31.31,0,0,1-.32.12ZM65.2,76.9c.08,0,0,.18,0,.21a.39.39,0,0,1-.26,0l.28-.12V76.9ZM25,140a.21.21,0,0,1-.27.21A.47.47,0,0,1,25,140Zm64.2-52.37c0-.08.16,0,.12.1s-.14.08-.23.08l.11-.18ZM50.34,77.49a.66.66,0,0,1,.08-.36.39.39,0,0,1,0,.38l-.07,0Zm-37.59,53,.11-.14.29.11a.86.86,0,0,1-.39,0Zm52.4-.39c-.11,0-.22-.09-.24-.21a.19.19,0,0,1,.22.21Zm-42.59-37c-.13,0-.2-.17-.13-.28a.26.26,0,0,1,.12.28ZM87.48,108.2s.12,0,.11.09a.2.2,0,0,1-.11.13.12.12,0,0,1,0-.22Zm15.4,41.26a.11.11,0,0,1,.05-.17.11.11,0,0,1,.13.11.09.09,0,0,1-.17,0v0ZM67.79,130.7l-.35.17a.28.28,0,0,1,.31-.2l0,0ZM8.57,108.82a.53.53,0,0,0,.39-.07.22.22,0,0,1-.39.07ZM87.64,93.5a.21.21,0,0,1,.19,0,.24.24,0,0,1-.19.11c-.09,0-.09-.16,0-.16v0Zm18.21,32.11c-.06,0-.07-.1,0-.11s.12,0,.16.07a.18.18,0,0,0,.17.05.31.31,0,0,1-.32,0Zm-4.27,15.24c-.07,0,0-.14,0-.09a.32.32,0,0,1,.09.31.28.28,0,0,1-.12-.2v0Zm.38-22.67c0-.11.26,0,.17.08s-.23,0-.2-.12l0,0ZM32.2,78.87a.21.21,0,0,1-.12-.32.3.3,0,0,1,.11.32ZM20.65,142a.42.42,0,0,1,.22-.31.27.27,0,0,1-.21.31ZM92.34,109.1a.64.64,0,0,1,.47,0,.64.64,0,0,1-.47,0ZM79.66,84.32a.22.22,0,0,1-.09.32.22.22,0,0,1,.09-.31Zm-77,38.16-.12-.18a.12.12,0,0,1,.19,0,.12.12,0,0,1,0,.18l0,0ZM2,122.25l.28,0a.41.41,0,0,1-.4,0s.09-.1.12,0ZM53.29,98.67a.24.24,0,0,1-.11.27.17.17,0,0,1,.12-.28Zm3,30.8a.5.5,0,0,1,.31.1.21.21,0,0,1-.32-.07v0ZM91.22,98.81c0-.07.16,0,.12.11a.27.27,0,0,1-.23.08l.11-.18ZM43.37,80.38a.19.19,0,0,1,.18-.25.17.17,0,0,1-.17.21v0ZM8.18,145.14a.2.2,0,0,0,.08.24.16.16,0,0,1-.24-.09l.13-.18,0,0ZM23,95.49c.08,0,.08.14,0,.15s-.14-.07-.19-.14a.32.32,0,0,1,.19,0v0Zm12.8,38.23a.21.21,0,0,1,.19,0c0,.07-.1.15-.19.14s-.08-.18,0-.15v0ZM8.48,144.63a.23.23,0,0,1-.2.31l.2-.32Zm61.26-10.08c0-.11.14-.14.24-.08a.14.14,0,0,1-.24.08Zm31-11.63a.12.12,0,0,1,0-.19l.19.28c0,.07-.18,0-.15-.08Zm-10-25.83a.22.22,0,0,1,.3-.09.24.24,0,0,1-.32.1Zm-58.9,13.43a.21.21,0,0,1-.3.09.24.24,0,0,1,.32-.1ZM28.09,81.28a.22.22,0,0,1,0-.19c.07,0,.15.11.14.19s-.18.08-.15,0ZM108.63,113c-.09,0-.13-.13,0-.17s.18,0,.26.08l-.22.07v0ZM84.84,96.38a.15.15,0,0,1-.24.08.17.17,0,0,1,.23-.09Zm9.79-.26c.06,0,.09.1.05.15a.29.29,0,0,1-.18,0l.12-.19Zm9.52,22.75-.27,0a.26.26,0,0,1,.17-.12c.06,0,.14.07.1.13Zm-7.5.14.35,0a.33.33,0,0,1-.38,0l0,0ZM42.81,82.34a.38.38,0,0,1,0,.4.74.74,0,0,1,0-.39ZM44.06,81l0,.35A.32.32,0,0,1,44,81l0,0Zm22,45.93c-.08.06-.25.09-.25,0a.22.22,0,0,1,.29,0Zm29.1,1.78c.09-.06.26-.09.26,0a.22.22,0,0,1-.29,0ZM69.3,128a.14.14,0,0,1-.08.23.16.16,0,0,1,.09-.23Zm-67-3.34c.06.12-.16.23-.21.12l.19-.12ZM64.19,83c0,.07-.13.08-.14,0s.06-.14.13-.18l0,.17Zm1-.68s.1-.07.12,0a.17.17,0,0,1,0,.16c-.07,0-.14-.09-.07-.15ZM25.36,96l-.27-.12a.17.17,0,0,1,.28.11Zm77.5,46.45.23.21c-.11.07-.28-.07-.23-.19v0ZM77,83.81a.23.23,0,0,1-.13.2c0-.07,0-.16,0-.22s.16,0,.16,0l0,0Zm-10.8,44c-.12.08-.26-.15-.15-.23l.11.19,0,0ZM61.92,79.24a.15.15,0,0,1,.21-.1.27.27,0,0,1-.1.15c-.06,0-.15,0-.14-.07l0,0Zm12.33-.09c0-.09,0-.22.11-.19s0,.22-.12.21v0ZM20.64,142a.15.15,0,0,1-.1.23.16.16,0,0,1,.12-.24ZM4.81,134.76a.15.15,0,0,1,.09.21c-.06,0-.12-.05-.15-.11s0-.15.07-.13v0ZM27.22,85a.12.12,0,0,1,0,.19c-.12,0-.15-.22,0-.21v0Zm73.43,33.5c0-.07.14,0,.14,0s-.07.12-.13.15l0-.19Zm-22.34,1.68a.15.15,0,0,1-.08-.22c.1,0,.14.14.09.24v0ZM47.68,77.65l0-.28c0,.09.08.16.09.25s-.18.09-.13,0ZM35,81.1c-.1,0,0-.22.08-.16s0,.22-.1.18l0,0Zm10.94,12,.27.14a.2.2,0,0,1-.3-.1l0,0Zm32.91-7.23a.49.49,0,0,1,.11-.31.21.21,0,0,1-.09.3ZM95.18,108.7c-.05,0-.09-.08,0-.12l.28,0-.25.1Zm5.52,3.63c0-.1.22,0,.16.08s-.22,0-.18-.11l0,0ZM86.22,85.51a.17.17,0,0,1-.17.24.31.31,0,0,1,.17-.23Zm-10.41,8c.08-.07.22.09.14.15s-.2-.12-.1-.16ZM68.47,92l0-.21c.08,0,.17.1.16.19s-.17.09-.15,0ZM107,149.51c.1,0,0,.22-.08.16s0-.22.1-.18l0,0Zm-25.14-50-.36,0a.33.33,0,0,1,.38,0l0,0Zm8.06,40c.09,0,.22,0,.19.12a.14.14,0,0,1-.21-.13ZM5,151.94c.06-.09.23,0,.23.08a.16.16,0,0,1-.23-.09Zm88.86-13.16c.09,0,.22,0,.19.12a.14.14,0,0,1-.21-.13Zm-61.72-37.7c0,.06,0,.13-.11.13a.32.32,0,0,1-.17-.11l.28,0ZM7.36,132.53c0,.12-.24.08-.22,0a.14.14,0,0,1,.2,0Zm79.22,5.65a.14.14,0,0,1-.24.08.17.17,0,0,1,.23-.08Zm14.5-30.51-.27.12c0-.12.15-.22.23-.13ZM3.83,101.4c.08,0,0,.15,0,.15s-.13-.06-.18-.12a.17.17,0,0,1,.22,0v0ZM85.7,136.63a.18.18,0,0,1,0-.31.5.5,0,0,1,0,.32Zm-60-31.2c0-.13.22-.06.29,0a.29.29,0,0,1-.27,0Zm46,32.35a.31.31,0,0,1-.3.1.23.23,0,0,1,.32-.1Zm36.1-16.31a.11.11,0,0,1,.19,0c0,.11-.19.15-.22,0Zm-79.29-16.6a.18.18,0,0,1,.18-.23.39.39,0,0,1-.17.23ZM5.33,156.67c0-.07.14,0,.12.06s-.1.1-.17.12a.12.12,0,0,1,.06-.17Zm60-84.74c0-.05.13,0,.09.11a.19.19,0,0,1-.19,0,.12.12,0,0,1,.1-.14Z"></path> </g> <g id="Layer_10" data-name="Layer 10"> <g id="LineTt"> <path class="cls-1" d="M44.14,48.4c.1-.12.26-.26.4-.17a.27.27,0,0,1,.06.31,3,3,0,0,0-.12.32c0,.13,0,.28,0,.4a3.15,3.15,0,0,0-.38,1.23.16.16,0,0,1-.17.13.26.26,0,0,1-.19-.13.86.86,0,0,1,0-.67,2.74,2.74,0,0,1,.27-.79c.05-.09,0-.2,0-.31A.73.73,0,0,1,44.14,48.4Z"></path> <path class="cls-1" d="M46.81,86.71c-.11.06-.25,0-.34-.11a1.33,1.33,0,0,1-.27-.93c0-.13,0-.28.16-.32a.23.23,0,0,1,.25.09.71.71,0,0,1,.11.25l.17.59C46.93,86.43,47,86.64,46.81,86.71Z"></path> <path class="cls-1" d="M53.37,97.69a.22.22,0,0,1,.09.1.3.3,0,0,1-.07.36.3.3,0,0,1-.46-.22.29.29,0,0,1,.44-.24m-.11.3s0-.06,0-.06,0,.06,0,.06Z"></path> <path class="cls-1" d="M35,78.12c-2.22-2.61-4-5.81-4-9.24-1.08,2.77.4,5.83,1.94,8.37a14.92,14.92,0,0,0,3,3.82,8.33,8.33,0,0,0,9.37.79c.87,1.81-1.55,4.45,0,5.73a6,6,0,0,0,1.16.58c1.59.83,1.74,3.07,1.31,4.81s-1.22,3.53-.75,5.26c-.14.3-.62.22-.8,0a1.4,1.4,0,0,1-.11-1l.9-7.72A4.35,4.35,0,0,1,44.61,83a7,7,0,0,1-6,.35,11.67,11.67,0,0,1-4.84-3.83,17.48,17.48,0,0,1-3.64-9.49,1.92,1.92,0,0,1,.39-1.58c.41-.39,1.3-.14,1.22.42-.42,2.73,1.24,5.3,2.9,7.5a10.78,10.78,0,0,0,4.1,3.76c1.74.73,4.08.35,5-1.29-1.46-3-3.42-5.81-4.9-8.84s-2.5-6.44-1.88-9.75c.75-4,3.72-7.18,5.07-11a29.58,29.58,0,0,1,1.64-4.63c1-1.85,2.79-3.14,4.32-4.6s2.93-3.33,2.85-5.45A25.88,25.88,0,0,1,56.87,17a4.73,4.73,0,0,1,2.05-1.58c1.67-.51,3.41.85,4.12,2.46s.72,3.41,1.08,5.12c.27,1.27,1.4,2.8,2.55,2.18l9.88-5.27c.76-.4,1.82-.76,2.37-.09l-6,7.68c-.63.82-.1,2.06.71,2.71s1.83,1,2.59,1.7c2.42,2.28.77,6.8,3,9.31,1.87,2.14.43,5.62-1.78,7.4s-5.73,2.71-8.26,1.16a1.55,1.55,0,0,0-.85-.35c-.31,0-.6.39-.42.64,2.57,3.47,2.87,8.18,2,12.41s-2.71,8.18-4.17,12.24A67.89,67.89,0,0,0,63,84.84c-.3,1.61-.51,3.39.34,4.78A4.46,4.46,0,0,1,60.21,96c-1.45.16-3.24-.29-4.12.87a6.22,6.22,0,0,1-.64.94c-.29.26-.84.27-1-.09.3-1.33,1.73-2.09,3.06-2.37a16.23,16.23,0,0,0,4-.88c1.22-.6,2.15-2.17,1.45-3.35-1.4-2.34-1-5.29-.48-8a69.7,69.7,0,0,1,5.27-15.59,19.1,19.1,0,0,0-.41-17,1.79,1.79,0,0,1-.28-.77c0-.95,1.34-1.28,2.2-.87s1.54,1.2,2.47,1.37c1.83.34,3.36-1.84,5.21-1.64.64.07,1.15-.54,1.36-1.15a7.44,7.44,0,0,1,.65-1.8c1.06-1.54.31-3.64-.6-5.28s-2-3.45-1.47-5.25c.45-1.58-1.33-2.8-2.78-3.57s-3.06-2.36-2.22-3.77a38.47,38.47,0,0,1,5.86-7.47L69.11,25c-1.63.86-3.72,1.7-5.21.61L62.62,19.5c-.25-1.2-.64-2.57-1.76-3C59.47,15.87,58,17,57,18.21a24,24,0,0,0-5.22,18A17.38,17.38,0,0,1,48,41.19a24.6,24.6,0,0,0-2.32,2.13,14.35,14.35,0,0,0-2,3.67,38.51,38.51,0,0,0-3,8.73A19.9,19.9,0,0,0,40.37,60l-.77-4.22c-2.29,3.08-2.43,7.35-1.29,11s3.39,6.87,5.6,10a3,3,0,0,1-.94,4,4.62,4.62,0,0,1-4.42.18A10.49,10.49,0,0,1,35,78.12M60.88,15.79s-.06-.08-.06,0a.26.26,0,0,1,.09.19c.07,0,.05-.15,0-.15M40.46,53.46c.07,0,0-.18-.07-.14S40.39,53.49,40.46,53.46Z"></path> </g> </g> </g> </svg> 