<?xml version="1.0" encoding="UTF-8"?> <svg xmlns="http://www.w3.org/2000/svg" id="Layer_1" data-name="Layer 1" viewBox="0 0 1921.06 1081.06"> <defs> <style>.cls-1{fill:#121212;stroke:#000;stroke-miterlimit:10;stroke-width:1.06px;}.cls-2,.cls-56,.cls-57,.cls-59,.cls-62,.cls-66{font-size:89px;font-family:RomaOutline, Roma Outline;}.cls-2{fill:#f2f2f2;letter-spacing:0.05em;}.cls-3{letter-spacing:0.05em;}.cls-10,.cls-17,.cls-21,.cls-25,.cls-26,.cls-27,.cls-29,.cls-37,.cls-38,.cls-39,.cls-4,.cls-42,.cls-43,.cls-44,.cls-5,.cls-53,.cls-6,.cls-7{font-size:54px;}.cls-4{fill:#dfe6e9;}.cls-10,.cls-12,.cls-13,.cls-14,.cls-17,.cls-19,.cls-21,.cls-22,.cls-24,.cls-25,.cls-26,.cls-27,.cls-29,.cls-36,.cls-37,.cls-38,.cls-39,.cls-4,.cls-40,.cls-42,.cls-43,.cls-44,.cls-5,.cls-53,.cls-54,.cls-55,.cls-6,.cls-7{font-family:JosefinSans-Thin, Josefin Sans;font-weight:200;}.cls-21,.cls-25,.cls-39,.cls-4,.cls-42,.cls-6{letter-spacing:0.01em;}.cls-5{fill:#e4eaee;}.cls-30,.cls-5{letter-spacing:-0.05em;}.cls-6{fill:#dbe5eb;}.cls-7{fill:#e8eef1;}.cls-8{letter-spacing:-0.04em;}.cls-9{letter-spacing:-0.04em;}.cls-10{fill:#e3eaf0;}.cls-11{letter-spacing:-0.04em;}.cls-12,.cls-13,.cls-19,.cls-22,.cls-24,.cls-36,.cls-40,.cls-54,.cls-55{font-size:43px;}.cls-12,.cls-13,.cls-14,.cls-19,.cls-22,.cls-24,.cls-36,.cls-40,.cls-54,.cls-55{fill:#8c8c8c;}.cls-12{letter-spacing:0em;}.cls-13{letter-spacing:-0.02em;}.cls-14{font-size:42px;}.cls-15{letter-spacing:-0.03em;}.cls-16{letter-spacing:-0.03em;}.cls-17{fill:#e7ecf0;letter-spacing:-0.02em;}.cls-18{letter-spacing:0em;}.cls-20{letter-spacing:-0.05em;}.cls-21{fill:#e8edf1;}.cls-22{letter-spacing:-0.04em;}.cls-23{letter-spacing:0em;}.cls-24{letter-spacing:0em;}.cls-25,.cls-26{fill:#dce6eb;}.cls-27{fill:#e4eaef;letter-spacing:-0.06em;}.cls-28{letter-spacing:0em;}.cls-29{fill:#e5ecef;}.cls-31{letter-spacing:-0.05em;}.cls-32{letter-spacing:-0.05em;}.cls-33{letter-spacing:-0.05em;}.cls-34,.cls-55{letter-spacing:-0.01em;}.cls-35,.cls-54{letter-spacing:-0.07em;}.cls-36{letter-spacing:0.01em;}.cls-37,.cls-38{fill:#e2e8ed;}.cls-37{letter-spacing:-0.03em;}.cls-39{fill:#dde5eb;}.cls-40{letter-spacing:-0.07em;}.cls-41{letter-spacing:-0.08em;}.cls-42,.cls-43{fill:#dde7ec;}.cls-44{fill:#e3ebef;letter-spacing:-0.02em;}.cls-45{letter-spacing:-0.02em;}.cls-46{letter-spacing:-0.02em;}.cls-47{letter-spacing:0em;}.cls-48{letter-spacing:-0.06em;}.cls-49{letter-spacing:-0.05em;}.cls-50{letter-spacing:-0.06em;}.cls-51{letter-spacing:-0.06em;}.cls-52{letter-spacing:-0.04em;}.cls-53{fill:#e7eef2;letter-spacing:0em;}.cls-56,.cls-57,.cls-59,.cls-62,.cls-66{fill:#3dddf0;}.cls-56{letter-spacing:0.02em;}.cls-57{letter-spacing:0.01em;}.cls-58{letter-spacing:-0.01em;}.cls-59{letter-spacing:-0.02em;}.cls-60,.cls-62{letter-spacing:-0.01em;}.cls-61{letter-spacing:-0.03em;}.cls-63{letter-spacing:-0.03em;}.cls-64{letter-spacing:-0.06em;}.cls-65{letter-spacing:-0.01em;}.cls-67{font-size:55px;fill:#01b3c4;font-family:JosefinSans-Light, Josefin Sans;font-weight:300;}.cls-68{letter-spacing:-0.01em;}.cls-69{letter-spacing:0em;}.cls-70{letter-spacing:-0.02em;}</style> </defs> <title>personality</title> <rect class="cls-1" x="0.53" y="0.53" width="1920" height="1080"></rect> <text class="cls-2" transform="translate(686.77 148)">BRAND PERSONALITY <tspan class="cls-3"><tspan x="-13.88" y="128">FACTORS AND FACETS</tspan></tspan></text> <text class="cls-4" transform="translate(521.65 420)">Daring </text> <text class="cls-5" transform="translate(131.18 420)">Down to earth </text> <text class="cls-6" transform="translate(902.95 422) scale(1 1.09)">Reliable<tspan x="0" y="59.62"> </tspan></text> <text class="cls-7" transform="translate(1292.77 420)"> <tspan class="cls-8">U</tspan> <tspan class="cls-9" x="35.21" y="0">pp</tspan> <tspan class="cls-8" x="89.53" y="0">er class</tspan> <tspan x="230.96" y="0"> </tspan> </text> <text class="cls-10" transform="translate(1670.83 418)"> <tspan class="cls-11">Outdoorsy</tspan> <tspan x="215.24" y="0"> </tspan> </text> <text class="cls-12" transform="translate(521.65 527.74)">Trendy</text> <text class="cls-13" transform="translate(131.18 475.07)">Family-oriented</text> <text class="cls-14" transform="translate(131.18 529.84) scale(1 1.09)"> <tspan class="cls-15">S</tspan> <tspan class="cls-16" x="21.67" y="0">mall-to</tspan> <tspan class="cls-15" x="130.53" y="0">w</tspan> <tspan x="156.74" y="0">n</tspan> </text> <text class="cls-12" transform="translate(521.65 475.15)">Exciting </text> <text class="cls-12" transform="translate(902.95 470.93)">Hard working</text> <text class="cls-12" transform="translate(902.95 525.42)">Secure </text> <text class="cls-17" transform="translate(131.18 595.78) scale(1 1.08)">Hones<tspan class="cls-18" x="130.46" y="0">t</tspan></text> <text class="cls-19" transform="translate(1292.77 474.35)"> <tspan class="cls-20">Glamorou</tspan> <tspan x="159.27" y="0">s</tspan> </text> <text class="cls-19" transform="translate(1292.77 526.14)">Good looking</text> <text class="cls-21" transform="translate(521.65 589.69)">Spirited</text> <text class="cls-22" transform="translate(1670.83 472.13)">Masculin<tspan class="cls-23" x="139.92" y="0">e</tspan></text> <text class="cls-24" transform="translate(1670.83 523.7)">Wester<tspan class="cls-23" x="122.85" y="0">n</tspan></text> <text class="cls-25" transform="translate(902.95 591.01) scale(1 1.19)">Intelligent</text> <text class="cls-26" transform="translate(1085.96 615.3) scale(1 1.19)"> </text> <text class="cls-27" transform="translate(1292.77 593.55) scale(1 1.14)">Charming<tspan class="cls-28" x="193.26" y="0"> </tspan></text> <text class="cls-29" transform="translate(1670.83 584.64)"> <tspan class="cls-30">T</tspan> <tspan class="cls-31" x="28.35" y="0">o</tspan> <tspan class="cls-30" x="52.76" y="0">u</tspan> <tspan class="cls-32" x="76.36" y="0">g</tspan> <tspan class="cls-33" x="102.92" y="0">h</tspan> <tspan x="126.52" y="0"> </tspan> </text> <text class="cls-12" transform="translate(521.65 649.83) scale(1 1.14)">Cool</text> <text class="cls-19" transform="translate(1670.83 642.84) scale(1 1.11)"> <tspan class="cls-34">Rugge</tspan> <tspan x="111.03" y="0">d</tspan> </text> <text class="cls-19" transform="translate(132.18 710.58) scale(1 1.08)"> <tspan class="cls-35">Real</tspan> <tspan x="66.65" y="0"> </tspan> </text> <text class="cls-36" transform="translate(521.65 703.79)">Young </text> <text class="cls-37" transform="translate(131.18 776.66) scale(1 1.08)">Wholesome</text> <text class="cls-38" transform="translate(253.95 825.53) scale(1 1.08)"> </text> <text class="cls-12" transform="translate(902.95 648.52) scale(1 1.11)">Technical</text> <text class="cls-12" transform="translate(902.95 704.11)">Corporate</text> <text class="cls-39" transform="translate(521.65 772) scale(1 1.14)">lmaginative </text> <text class="cls-40" transform="translate(1292.77 649.62)">Romantic</text> <text class="cls-19" transform="translate(1292.77 701.41)"> <tspan class="cls-41">Smooth</tspan> <tspan x="111.93" y="0"> </tspan> </text> <text class="cls-42" transform="translate(902.95 769.42) scale(1 1.08)">Successful</text> <text class="cls-43" transform="translate(1085.38 691.53) scale(1 1.08)"> </text> <text class="cls-19" transform="translate(131.18 832.68)"> <tspan class="cls-34">Origina</tspan> <tspan x="131.97" y="0">l</tspan> </text> <text class="cls-12" transform="translate(521.65 828.87)">Unique</text> <text class="cls-44" transform="translate(131.18 898.02) scale(1 1.08)">Chee<tspan class="cls-45" x="109.02" y="0">rf</tspan><tspan class="cls-46" x="139.7" y="0">ul</tspan><tspan class="cls-47" x="174.74" y="0"> </tspan></text> <text class="cls-12" transform="translate(902.95 830.41)">Leader</text> <text class="cls-12" transform="translate(902.95 889.65) scale(1 1.08)">Confident</text> <text class="cls-19" transform="translate(131.18 956.79) scale(1 1.08)"> <tspan class="cls-48">S</tspan> <tspan class="cls-49" x="21.28" y="0">en</tspan> <tspan class="cls-48" x="57.58" y="0">ti</tspan> <tspan class="cls-49" x="74.78" y="0">men</tspan> <tspan class="cls-50" x="141.6" y="0">t</tspan> <tspan class="cls-51" x="152.26" y="0">a</tspan> <tspan x="173.2" y="0">l</tspan> </text> <text class="cls-19" transform="translate(131.18 1010.06)"> <tspan class="cls-52">Friendl</tspan> <tspan x="109.78" y="0">y</tspan> </text> <text class="cls-53" transform="translate(521.65 897.09) scale(1 1.14)">Up-to-date </text> <text class="cls-12" transform="translate(521.65 956.71) scale(1 1.08)">Independent</text> <text class="cls-12" transform="translate(521.65 1010.06)">Contemporary </text> <text class="cls-54" transform="translate(131.18 654.56) scale(1 1.08)">Sincere</text> <text class="cls-55" transform="translate(1670.83 699.59) scale(1 1.11)">Strong</text> <text class="cls-56" transform="translate(111.2 772.26) rotate(-90.09)">Sincerity</text> <text class="cls-57" transform="matrix(0.01, -1, 1, 0.01, 495.7, 852.57)">E<tspan class="cls-58" x="46.01" y="0">x</tspan><tspan x="93.98" y="0">citement </tspan></text> <text class="cls-59" transform="translate(882.57 885.63) rotate(-89.2)">C<tspan class="cls-60" x="57.76" y="0">OMP</tspan><tspan class="cls-61" x="248.4" y="0">E</tspan><tspan class="cls-60" x="290.5" y="0">TENCE</tspan></text> <text class="cls-62" transform="translate(1272.8 1005.65) rotate(-89.99)">SOPHI<tspan class="cls-63" x="242.61" y="0">S</tspan><tspan x="282.21" y="0">TIC</tspan><tspan class="cls-64" x="413.13" y="0">A</tspan><tspan class="cls-65" x="461.46" y="0">TION</tspan></text> <text class="cls-66" transform="matrix(0, -1, 1, 0, 1655.26, 894.71)">RUGGEDNESS</text> <text class="cls-67" transform="translate(286.92 271.94) rotate(0.25)">Jenni<tspan class="cls-68" x="113.63" y="0">f</tspan><tspan class="cls-69" x="130.62" y="0">er Aa</tspan><tspan class="cls-70" x="262.68" y="0">k</tspan><tspan class="cls-69" x="286.33" y="0">er’s</tspan></text> </svg> 